<?xml version="1.0" encoding="utf-8"?>
<!-- Generator: Adobe Illustrator 16.0.0, SVG Export Plug-In . SVG Version: 6.00 Build 0)  -->
<!DOCTYPE svg PUBLIC "-//W3C//DTD SVG 1.1//EN" "http://www.w3.org/Graphics/SVG/1.1/DTD/svg11.dtd">
<svg version="1.1" xmlns="http://www.w3.org/2000/svg" xmlns:xlink="http://www.w3.org/1999/xlink" x="0px" y="0px"
	 width="1229.753px" height="2042.544px" viewBox="0 0 1229.753 2042.544" enable-background="new 0 0 1229.753 2042.544"
	 xml:space="preserve">
<g id="Legend">
	<g>
		<g>
			<g>
				
					<line fill="none" stroke="#727171" stroke-width="0.8504" stroke-miterlimit="10" x1="125.925" y1="1965.743" x2="163.796" y2="1965.743"/>
				<g>
					<path fill="#727171" d="M168.929,1965.743c-2.415,0.896-5.411,2.425-7.269,4.044l1.463-4.044l-1.463-4.044
						C163.518,1963.318,166.514,1964.848,168.929,1965.743z"/>
				</g>
			</g>
		</g>
		<text transform="matrix(1 0 0 1 179.3657 1969.2637)" font-family="'MyriadPro-Regular'" font-size="12">Student-Professor influece</text>
	</g>
	<g>
		<g>
			<g>
				
					<line fill="none" stroke="#727171" stroke-width="0.8504" stroke-miterlimit="10" x1="125.925" y1="1984.646" x2="130.177" y2="1984.646"/>
				
					<line fill="none" stroke="#727171" stroke-width="0.8504" stroke-miterlimit="10" stroke-dasharray="7.3419,4.8946" x1="135.072" y1="1984.646" x2="157.097" y2="1984.646"/>
				
					<line fill="none" stroke="#727171" stroke-width="0.8504" stroke-miterlimit="10" x1="159.544" y1="1984.646" x2="163.796" y2="1984.646"/>
				<g>
					<path fill="#727171" d="M168.929,1984.646c-2.415,0.896-5.411,2.425-7.269,4.045l1.463-4.045l-1.463-4.043
						C163.518,1982.223,166.514,1983.752,168.929,1984.646z"/>
				</g>
			</g>
		</g>
		<text transform="matrix(1 0 0 1 179.3657 1988.167)" font-family="'MyriadPro-Regular'" font-size="12">Some types of influence (citation, inspiration etc)</text>
	</g>
	<g>
		<g>
			<g>
				
					<line fill="none" stroke="#727171" stroke-width="0.8504" stroke-miterlimit="10" x1="131.058" y1="2003.942" x2="163.796" y2="2003.942"/>
				<g>
					<path fill="#727171" d="M125.925,2003.942c2.415,0.896,5.411,2.425,7.269,4.045l-1.463-4.045l1.463-4.043
						C131.336,2001.519,128.34,2003.048,125.925,2003.942z"/>
				</g>
				<g>
					<path fill="#727171" d="M168.929,2003.942c-2.415,0.896-5.411,2.425-7.269,4.045l1.463-4.045l-1.463-4.043
						C163.518,2001.519,166.514,2003.048,168.929,2003.942z"/>
				</g>
			</g>
		</g>
		<text transform="matrix(1 0 0 1 179.3657 2007.0703)" font-family="'MyriadPro-Regular'" font-size="12">Some types of mutual relationship or association (citation, co-workers, same school)</text>
	</g>
</g>
<g id="Connections">
	<g>
		<g>
			<path fill="none" stroke="#727171" stroke-width="0.5669" stroke-miterlimit="10" stroke-dasharray="2.8347,5.6693" d="
				M295.742,127.067c0,0,81.19-17.715,110.354-17.578"/>
			<g>
				<path fill="#727171" d="M409.512,109.605c-1.62,0.568-3.636,1.552-4.894,2.609l1.023-2.679l-0.927-2.712
					C405.934,107.926,407.914,108.98,409.512,109.605z"/>
			</g>
		</g>
	</g>
	<g>
		<g>
			<path fill="none" stroke="#727171" stroke-width="0.5669" stroke-miterlimit="10" stroke-dasharray="2.8347,5.6693" d="
				M179.257,125.273c0,0,17.774-22.8,44.938-3.402"/>
			<g>
				<path fill="#727171" d="M226.924,123.939c-1.646-0.488-3.856-0.871-5.494-0.75l2.397-1.572l0.837-2.742
					C225.007,120.482,225.995,122.496,226.924,123.939z"/>
			</g>
		</g>
	</g>
	<g>
		<g>
			<path fill="none" stroke="#727171" stroke-width="0.5669" stroke-miterlimit="10" d="M409.841,204.597
				c0.904-6.43,4.326-21.39,17.251-39.838"/>
			<g>
				<path fill="#727171" d="M409.517,207.998c0.757-1.541,1.972-3.426,3.171-4.549l-2.78,0.699l-2.584-1.243
					C408.273,204.246,409.085,206.336,409.517,207.998z"/>
			</g>
			<g>
				<path fill="#727171" d="M429.094,161.979c-0.44,1.66-0.76,3.879-0.592,5.514l-1.64-2.352l-2.766-0.758
					C425.694,163.994,427.678,162.949,429.094,161.979z"/>
			</g>
		</g>
	</g>
	<g>
		<g>
			<path fill="none" stroke="#727171" stroke-width="0.5669" stroke-miterlimit="10" d="M406.28,120.85
				c-25.004,8.649-187.346,65.531-213.701,93.485"/>
			<g>
				<path fill="#727171" d="M409.512,119.737c-1.717-0.028-3.939-0.325-5.467-0.933l1.816,2.219l-0.023,2.867
					C406.647,122.461,408.192,120.836,409.512,119.737z"/>
			</g>
			<g>
				<path fill="#727171" d="M190.428,216.998c0.56-1.623,1.039-3.814,0.99-5.456l1.466,2.464l2.702,0.957
					C193.966,215.234,191.911,216.133,190.428,216.998z"/>
			</g>
		</g>
	</g>
	<g>
		<g>
			<path fill="none" stroke="#727171" stroke-width="0.5669" stroke-miterlimit="10" d="M883.537,222.453
				c-95.529,13.854-305.562,136.486-337.862,148.728"/>
			<g>
				<path fill="#727171" d="M886.923,222.002c-1.682-0.346-3.811-1.051-5.199-1.93l1.373,2.518l-0.555,2.812
					C883.603,224.146,885.422,222.836,886.923,222.002z"/>
			</g>
			<g>
				<path fill="#727171" d="M542.389,372.146c1.36-1.047,2.967-2.613,3.829-4.011L546.085,371l1.73,2.285
					C546.314,372.621,544.104,372.24,542.389,372.146z"/>
			</g>
		</g>
	</g>
	<g>
		<g>
			<path fill="none" stroke="#727171" stroke-width="0.5669" stroke-miterlimit="10" d="M883.541,239.724
				c-96.947,15.88-344.953,223.519-363.576,257.978"/>
			<g>
				<path fill="#727171" d="M886.923,239.24c-1.682-0.35-3.809-1.061-5.194-1.942l1.367,2.521l-0.562,2.811
					C883.597,241.377,885.42,240.07,886.923,239.24z"/>
			</g>
			<g>
				<path fill="#727171" d="M518.855,500.939c-0.008-1.717-0.279-3.943-0.867-5.477l2.197,1.842l2.866,0.01
					C521.612,498.107,519.968,499.633,518.855,500.939z"/>
			</g>
		</g>
	</g>
	<g>
		<g>
			<path fill="none" stroke="#727171" stroke-width="0.5669" stroke-miterlimit="10" d="M255.232,235.477
				c18.906-13.201,124.405-94.229,154.32-104.381"/>
			<g>
				<path fill="#727171" d="M252.321,237.271c1.681-0.354,3.913-0.559,5.537-0.307l-2.264-1.76l-0.614-2.8
					C254.509,233.98,253.364,235.907,252.321,237.271z"/>
			</g>
			<g>
				<path fill="#727171" d="M412.856,130.211c-1.388,1.012-3.033,2.535-3.932,3.91l0.206-2.859l-1.67-2.33
					C408.945,129.635,411.144,130.074,412.856,130.211z"/>
			</g>
		</g>
	</g>
	<g>
		<g>
			<path fill="none" stroke="#727171" stroke-width="0.5669" stroke-miterlimit="10" d="M413.427,145.064
				c-17.248,12.41-120.326,67.992-169.879,191.359"/>
			<g>
				<path fill="#727171" d="M415.9,142.695c-1.592,0.644-3.755,1.236-5.397,1.273l2.538,1.335l1.096,2.649
					C414.324,146.32,415.113,144.221,415.9,142.695z"/>
			</g>
			<g>
				<path fill="#727171" d="M242.288,339.607c0.062-1.717-0.117-3.953-0.643-5.509l2.12,1.931l2.863,0.127
					C245.158,336.889,243.454,338.346,242.288,339.607z"/>
			</g>
		</g>
	</g>
	<g>
		<g>
			<path fill="none" stroke="#727171" stroke-width="0.5669" stroke-miterlimit="10" d="M360.257,420.938
				c0,0,78.878-38.598,107.866-40.172"/>
			<g>
				<path fill="#727171" d="M471.543,380.771c-1.604,0.613-3.592,1.653-4.818,2.745l0.947-2.706l-1.002-2.686
					C467.919,379.191,469.927,380.191,471.543,380.771z"/>
			</g>
		</g>
	</g>
	<g>
		<g>
			<path fill="none" stroke="#727171" stroke-width="0.5669" stroke-miterlimit="10" stroke-dasharray="2.8347,5.6693" d="
				M334.256,411.937c0,0,241.75-187.859,295.182-190.085"/>
			<g>
				<path fill="#727171" d="M632.855,222.002c-1.626,0.553-3.65,1.517-4.918,2.562l1.049-2.668l-0.9-2.722
					C629.293,220.287,631.262,221.361,632.855,222.002z"/>
			</g>
		</g>
	</g>
	<g>
		<g>
			<path fill="none" stroke="#727171" stroke-width="0.5669" stroke-miterlimit="10" stroke-dasharray="2.8347,5.6693" d="
				M168.191,438.38c0,0,117.207-39.279,298.761-64.757"/>
			<g>
				<path fill="#727171" d="M470.34,373.15c-1.5,0.836-3.319,2.146-4.379,3.402l0.554-2.812l-1.374-2.517
					C466.529,372.102,468.658,372.806,470.34,373.15z"/>
			</g>
		</g>
	</g>
	<g>
		<g>
			<path fill="none" stroke="#727171" stroke-width="0.5669" stroke-miterlimit="10" stroke-dasharray="2.8347,5.6693" d="
				M259.258,161.979c0,0,87.192,131.129,210.786,195.066"/>
			<g>
				<path fill="#727171" d="M473.09,358.604c-1.702-0.223-3.945-0.254-5.544,0.123l2.121-1.93l0.396-2.839
					C470.654,355.49,471.945,357.324,473.09,358.604z"/>
			</g>
		</g>
	</g>
	<g>
		<g>
			<path fill="none" stroke="#727171" stroke-width="0.5669" stroke-miterlimit="10" d="M377.541,438.38
				c0,0,169.109,41.818,201.803,67.306"/>
			<g>
				<path fill="#727171" d="M581.915,507.939c-1.608-0.603-3.785-1.141-5.428-1.136l2.503-1.399l1.028-2.676
					C580.247,504.355,581.088,506.434,581.915,507.939z"/>
			</g>
		</g>
	</g>
	<g>
		<g>
			<path fill="none" stroke="#727171" stroke-width="0.5669" stroke-miterlimit="10" d="M295.742,548.273
				c0,0,161.33,124.77,263.369,345.139"/>
			<g>
				<path fill="#727171" d="M560.543,896.521c-1.229-1.199-3.005-2.569-4.51-3.227l2.854-0.271l2.019-2.035
					C560.46,892.569,560.394,894.811,560.543,896.521z"/>
			</g>
		</g>
	</g>
	<g>
		<g>
			<path fill="none" stroke="#727171" stroke-width="0.5669" stroke-miterlimit="10" d="M635.375,582.08
				c16.667,15.602,113.213,111.107,205.58,311.328"/>
			<g>
				<path fill="#727171" d="M632.855,579.771c0.771,1.535,1.537,3.643,1.707,5.275l1.125-2.637l2.551-1.308
					C636.596,581.049,634.44,580.432,632.855,579.771z"/>
			</g>
			<g>
				<path fill="#727171" d="M842.386,896.521c-1.232-1.196-3.012-2.561-4.519-3.215l2.854-0.279l2.014-2.04
					C842.293,892.57,842.232,894.812,842.386,896.521z"/>
			</g>
		</g>
	</g>
	<g>
		<g>
			<path fill="none" stroke="#727171" stroke-width="0.5669" stroke-miterlimit="10" stroke-dasharray="2.8347,5.6693" d="
				M381.922,351.94c0,0,58.975,5.782,85.167,13.768"/>
			<g>
				<path fill="#727171" d="M470.34,366.771c-1.715,0.084-3.928,0.454-5.434,1.109l1.743-2.275l-0.117-2.865
					C467.387,364.143,468.985,365.717,470.34,366.771z"/>
			</g>
		</g>
	</g>
	<g>
		<g>
			<path fill="none" stroke="#727171" stroke-width="0.5669" stroke-miterlimit="10" d="M332.208,379.596
				c0.484,5.126-0.436,15.893-11.962,30.645"/>
			<g>
				<path fill="#727171" d="M331.539,376.243c-0.29,1.692-0.923,3.845-1.755,5.261l2.471-1.457l2.829,0.461
					C333.793,379.49,332.422,377.715,331.539,376.243z"/>
			</g>
			<g>
				<path fill="#727171" d="M318.09,412.896c0.533-1.633,0.979-3.83,0.903-5.471l1.505,2.44l2.717,0.913
					C321.6,411.077,319.559,412.008,318.09,412.896z"/>
			</g>
		</g>
	</g>
	<g>
		<g>
			<path fill="none" stroke="#727171" stroke-width="0.5669" stroke-miterlimit="10" stroke-dasharray="2.8347,5.6693" d="
				M332.917,449.144c0.883,11.078,2.278,46.481-13.651,65.405"/>
			<g>
				<path fill="#727171" d="M332.59,445.74c-0.469,1.652-1.328,3.723-2.308,5.043l2.611-1.185l2.764,0.761
					C334.485,449.21,333.312,447.299,332.59,445.74z"/>
			</g>
		</g>
	</g>
	<g>
		<g>
			<path fill="none" stroke="#727171" stroke-width="0.5669" stroke-miterlimit="10" stroke-dasharray="2.8347,5.6693" d="
				M477.821,516.742c-21.267-1.451-135.365-8.223-152.623,12.279"/>
			<g>
				<path fill="#727171" d="M481.23,516.986c-1.571-0.693-3.504-1.83-4.676-2.981l0.812,2.75l-1.135,2.632
					C477.533,518.384,479.587,517.486,481.23,516.986z"/>
			</g>
		</g>
	</g>
	<g>
		<g>
			<path fill="none" stroke="#727171" stroke-width="0.5669" stroke-miterlimit="10" d="M495.749,497.527
				c0.808-14.643,4.265-72.635,9.72-99.615"/>
			<g>
				<path fill="#727171" d="M495.566,500.939c0.702-1.567,1.851-3.493,3.01-4.658l-2.755,0.796l-2.626-1.15
					C494.191,497.233,495.077,499.293,495.566,500.939z"/>
			</g>
			<g>
				<path fill="#727171" d="M506.192,394.57c0.26,1.697,0.854,3.859,1.661,5.291l-2.443-1.5l-2.837,0.41
					C503.88,397.777,505.282,396.026,506.192,394.57z"/>
			</g>
		</g>
	</g>
	<g>
		<g>
			<path fill="none" stroke="#727171" stroke-width="0.5669" stroke-miterlimit="10" d="M604.817,582.531
				c-8.735,11.083-44.679,47.791-84.526-37.412"/>
			<g>
				<path fill="#727171" d="M606.833,579.771c-1.438,0.938-3.447,1.935-5.052,2.287l2.746,0.823l1.585,2.389
					C605.982,583.632,606.353,581.42,606.833,579.771z"/>
			</g>
			<g>
				<path fill="#727171" d="M518.855,542c1.23,1.198,3.009,2.564,4.516,3.219l-2.854,0.277l-2.017,2.038
					C518.944,545.952,519.007,543.71,518.855,542z"/>
			</g>
		</g>
	</g>
	<g>
		<g>
			<path fill="none" stroke="#727171" stroke-width="0.5669" stroke-miterlimit="10" d="M596.091,980.329
				c-34.499-19.745-350.854-211.831-17.025-436.422"/>
			<g>
				<path fill="#727171" d="M599.072,982c-1.108-1.312-2.346-3.182-2.893-4.73l-0.478,2.827l-2.175,1.867
					C595.136,981.633,597.376,981.728,599.072,982z"/>
			</g>
			<g>
				<path fill="#727171" d="M581.915,542c-0.989,1.403-2.06,3.374-2.47,4.965l-0.722-2.775l-2.329-1.671
					C578.026,542.708,580.25,542.419,581.915,542z"/>
			</g>
		</g>
	</g>
	<g>
		<g>
			<path fill="none" stroke="#727171" stroke-width="0.5669" stroke-miterlimit="10" d="M689.012,946.121
				c-9.542,3.594-38.955,11.945-63.947-9.782"/>
			<g>
				<path fill="#727171" d="M692.169,944.809c-1.717,0.039-3.949-0.17-5.499-0.717l1.902,2.146l0.089,2.865
					C689.414,947.643,690.894,945.958,692.169,944.809z"/>
			</g>
			<g>
				<path fill="#727171" d="M622.542,934.026c1.593,0.642,3.757,1.231,5.399,1.266l-2.536,1.339l-1.092,2.65
					C624.125,937.649,623.332,935.551,622.542,934.026z"/>
			</g>
		</g>
	</g>
	<g>
		<g>
			<path fill="none" stroke="#727171" stroke-width="0.5669" stroke-miterlimit="10" d="M614.377,974.618
				c-1.433-6.276-6.979-20.713-28.45-38.444"/>
			<g>
				<path fill="#727171" d="M614.876,978c0.341-1.684,1.037-3.814,1.912-5.205l-2.513,1.382l-2.813-0.546
					C612.72,974.687,614.038,976.502,614.876,978z"/>
			</g>
			<g>
				<path fill="#727171" d="M583.268,934.026c1.621,0.567,3.81,1.057,5.452,1.015l-2.472,1.455l-0.969,2.697
					C585.015,937.572,584.127,935.513,583.268,934.026z"/>
			</g>
		</g>
	</g>
	<g>
		<g>
			<path fill="none" stroke="#727171" stroke-width="0.5669" stroke-miterlimit="10" d="M390.045,919.07
				c-7.981,6.68-29.014,29.208-0.156,63.028"/>
			<g>
				<path fill="#727171" d="M392.766,917c-1.639,0.512-3.843,0.926-5.483,0.828l2.42,1.538l0.876,2.729
					C390.899,920.484,391.857,918.456,392.766,917z"/>
			</g>
			<g>
				<path fill="#727171" d="M392.157,984.666c-1.506-0.824-3.585-1.666-5.212-1.894l2.676-1.03l1.397-2.503
					C391.014,980.882,391.553,983.059,392.157,984.666z"/>
			</g>
		</g>
	</g>
	<g>
		<g>
			<path fill="none" stroke="#727171" stroke-width="0.5669" stroke-miterlimit="10" d="M834.55,918.808
				c-17.67,10.93-111.638,67.784-157.723,69.965"/>
			<g>
				<path fill="#727171" d="M837.45,917c-1.687,0.323-3.923,0.487-5.542,0.205l2.231,1.801l0.563,2.811
					C835.202,920.252,836.382,918.345,837.45,917z"/>
			</g>
			<g>
				<path fill="#727171" d="M673.405,988.831c1.592-0.644,3.56-1.721,4.766-2.836l-0.896,2.724l1.053,2.666
					C677.058,990.342,675.032,989.381,673.405,988.831z"/>
			</g>
		</g>
	</g>
	<g>
		<g>
			<path fill="none" stroke="#727171" stroke-width="0.5669" stroke-miterlimit="10" d="M855.773,973.839
				c-19.074,4.791-115.655,28.492-161.657,29.039"/>
			<g>
				<path fill="#727171" d="M859.084,973c-1.706-0.195-3.89-0.707-5.35-1.459l1.592,2.385l-0.303,2.851
					C855.968,975.433,857.664,973.965,859.084,973z"/>
			</g>
			<g>
				<path fill="#727171" d="M690.692,1002.874c1.597-0.631,3.572-1.692,4.788-2.798l-0.918,2.717l1.031,2.674
					C694.333,1004.414,692.314,1003.437,690.692,1002.874z"/>
			</g>
		</g>
	</g>
	<g>
		<g>
			<path fill="none" stroke="#727171" stroke-width="0.5669" stroke-miterlimit="10" d="M810.016,730.31
				c1.202,13.091,2.259,59.885-43.067,66.294"/>
			<g>
				<path fill="#727171" d="M809.617,726.915c-0.424,1.664-1.227,3.758-2.169,5.104l2.578-1.255l2.783,0.685
					C811.605,730.332,810.38,728.453,809.617,726.915z"/>
			</g>
			<g>
				<path fill="#727171" d="M763.541,797c1.521-0.799,3.371-2.065,4.461-3.294l-0.622,2.799l1.312,2.548
					C767.326,798.141,765.213,797.386,763.541,797z"/>
			</g>
		</g>
	</g>
	<g>
		<g>
			<path fill="none" stroke="#727171" stroke-width="0.5669" stroke-miterlimit="10" d="M836.247,726.471
				c6.369,17.641,36.956,104.148,46.331,163.914"/>
			<g>
				<path fill="#727171" d="M835.079,723.261c-0.023,1.718-0.314,3.94-0.917,5.47l2.214-1.822l2.866,0.016
					C837.81,726.118,836.18,724.578,835.079,723.261z"/>
			</g>
			<g>
				<path fill="#727171" d="M883.09,893.771c-0.853-1.49-2.185-3.295-3.452-4.34l2.819,0.521l2.5-1.402
					C884.094,889.948,883.416,892.086,883.09,893.771z"/>
			</g>
		</g>
	</g>
	<g>
		<g>
			<path fill="none" stroke="#727171" stroke-width="0.5669" stroke-miterlimit="10" d="M914.111,716.424
				c-4.836,11.814-19.371,59.23-2.529,173.957"/>
			<g>
				<path fill="#727171" d="M915.541,713.319c-1.205,1.223-2.954,2.627-4.446,3.313l2.858,0.216l2.059,1.995
					C915.535,717.272,915.424,715.032,915.541,713.319z"/>
			</g>
			<g>
				<path fill="#727171" d="M912.085,893.771c-0.81-1.515-2.09-3.355-3.327-4.437l2.804,0.602l2.538-1.331
					C913.199,889.979,912.458,892.096,912.085,893.771z"/>
			</g>
		</g>
	</g>
	<g>
		<g>
			<path fill="none" stroke="#727171" stroke-width="0.5669" stroke-miterlimit="10" d="M1075.861,825.105
				c-3.02,13.286-21.327,62.404-128.655,84.864"/>
			<g>
				<path fill="#727171" d="M1076.439,821.736c-0.879,1.476-2.241,3.256-3.527,4.279l2.828-0.473l2.476,1.446
					C1077.376,825.576,1076.735,823.428,1076.439,821.736z"/>
			</g>
			<g>
				<path fill="#727171" d="M943.855,910.656c1.447-0.924,3.185-2.342,4.167-3.658l-0.384,2.842l1.522,2.428
					C947.722,911.475,945.554,910.9,943.855,910.656z"/>
			</g>
		</g>
	</g>
	<g>
		<g>
			<path fill="none" stroke="#727171" stroke-width="0.5669" stroke-miterlimit="10" d="M1099.912,826.608
				c-5.799,18.856-40.175,113.368-152.703,137.655"/>
			<g>
				<path fill="#727171" d="M1100.855,823.324c-1.031,1.373-2.577,2.998-3.965,3.877l2.862-0.166l2.307,1.701
					C1101.376,827.242,1100.968,825.037,1100.855,823.324z"/>
			</g>
			<g>
				<path fill="#727171" d="M943.855,964.962c1.438-0.94,3.158-2.377,4.127-3.704l-0.354,2.846l1.55,2.412
					C947.731,965.737,945.557,965.188,943.855,964.962z"/>
			</g>
		</g>
	</g>
	<g>
		<g>
			<path fill="none" stroke="#727171" stroke-width="0.5669" stroke-miterlimit="10" d="M569.814,892.116
				c-3.637-29.707-18.435-244.249,318.081-213.174"/>
			<g>
				<path fill="#727171" d="M570.291,895.5c0.38-1.675,1.126-3.789,2.033-5.159l-2.544,1.322l-2.801-0.61
					C568.212,892.138,569.487,893.982,570.291,895.5z"/>
			</g>
			<g>
				<path fill="#727171" d="M891.304,679.265c-1.655,0.458-3.732,1.302-5.059,2.271l1.202-2.603l-0.741-2.769
					C887.848,677.346,889.751,678.532,891.304,679.265z"/>
			</g>
		</g>
	</g>
	<g>
		<g>
			<path fill="none" stroke="#727171" stroke-width="0.5669" stroke-miterlimit="10" d="M810.39,738.146
				c0,0-2.616,174.302-55.967,186.279"/>
			<g>
				<path fill="#727171" d="M751.045,924.958c1.485-0.862,3.281-2.205,4.318-3.479l-0.504,2.823l1.418,2.491
					C754.875,925.938,752.733,925.273,751.045,924.958z"/>
			</g>
		</g>
	</g>
	<g>
		<g>
			<path fill="none" stroke="#727171" stroke-width="0.5669" stroke-miterlimit="10" d="M599.358,893.108
				c-0.655-17.143-0.318-93.14,56.916-96.024"/>
			<g>
				<path fill="#727171" d="M599.541,896.521c0.517-1.638,1.435-3.684,2.451-4.974l-2.644,1.108l-2.741-0.84
					C597.747,892.999,598.864,894.943,599.541,896.521z"/>
			</g>
			<g>
				<path fill="#727171" d="M659.7,797c-1.581,0.67-3.53,1.78-4.718,2.915l0.852-2.738l-1.098-2.648
					C656.022,795.551,658.064,796.478,659.7,797z"/>
			</g>
		</g>
	</g>
	<g>
		<g>
			<path fill="none" stroke="#727171" stroke-width="0.5669" stroke-miterlimit="10" d="M625.61,907.017
				c23.99-11.609,186.65-87.327,414.536-120.834"/>
			<g>
				<path fill="#727171" d="M622.542,908.522c1.71-0.161,3.951-0.111,5.536,0.323l-2.05-2.005l-0.293-2.852
					C625.089,905.5,623.733,907.285,622.542,908.522z"/>
			</g>
			<g>
				<path fill="#727171" d="M1043.541,785.688c-1.495,0.844-3.307,2.166-4.359,3.428l0.537-2.816l-1.389-2.508
					C1039.723,784.662,1041.857,785.353,1043.541,785.688z"/>
			</g>
		</g>
	</g>
	<g>
		<g>
			<path fill="none" stroke="#727171" stroke-width="0.5669" stroke-miterlimit="10" d="M583.473,892.092
				c-1.311-24.138-1.661-168.616,176.658-178.599"/>
			<g>
				<path fill="#727171" d="M583.721,895.5c0.493-1.645,1.383-3.703,2.382-5.008l-2.629,1.146l-2.752-0.802
					C581.878,892.003,583.023,893.932,583.721,895.5z"/>
			</g>
			<g>
				<path fill="#727171" d="M763.541,713.319c-1.562,0.714-3.479,1.877-4.635,3.044l0.774-2.76l-1.17-2.617
					C759.824,711.972,761.891,712.842,763.541,713.319z"/>
			</g>
		</g>
	</g>
	<g>
		<g>
			<path fill="none" stroke="#727171" stroke-width="0.5669" stroke-miterlimit="10" stroke-dasharray="2.8347,5.6693" d="
				M893.388,991.712c-30.599,11.545-274.853,98.707-449.667,8.812"/>
			<g>
				<path fill="#727171" d="M896.578,990.485c-1.717-0.001-3.944-0.263-5.48-0.845l1.852,2.189l0.021,2.866
					C893.756,993.254,895.275,991.604,896.578,990.485z"/>
			</g>
		</g>
	</g>
	<g>
		<g>
			<path fill="none" stroke="#727171" stroke-width="0.5669" stroke-miterlimit="10" d="M906.824,657.013
				c-31.036-21.578-314.553-203.272-479.19,236.758"/>
			<g>
				<path fill="#727171" d="M909.604,659c-0.967-1.419-2.006-3.406-2.391-5.003l-0.766,2.763l-2.355,1.634
					C905.727,658.23,907.946,658.555,909.604,659z"/>
			</g>
		</g>
	</g>
	<g>
		<g>
			<path fill="none" stroke="#727171" stroke-width="0.5669" stroke-miterlimit="10" d="M1003.812,1204.879
				c4.469-58.065,58.551-838.341-267.574-777.227"/>
			<g>
				<path fill="#727171" d="M1003.541,1208.285c0.703-1.566,1.853-3.492,3.012-4.656l-2.755,0.794l-2.625-1.151
					C1002.167,1204.578,1003.052,1206.639,1003.541,1208.285z"/>
			</g>
			<g>
				<path fill="#727171" d="M732.874,428.31c1.475-0.879,3.255-2.244,4.276-3.53l-0.47,2.829l1.447,2.474
					C736.714,429.245,734.565,428.604,732.874,428.31z"/>
			</g>
		</g>
	</g>
	<g>
		<g>
			<path fill="none" stroke="#727171" stroke-width="0.5669" stroke-miterlimit="10" d="M595.898,991.601
				c-19.577-4.084-120.02-26.072-168.265-56.825"/>
			<g>
				<path fill="#727171" d="M599.246,992.286c-1.446-0.925-3.183-2.345-4.164-3.662l0.382,2.842l-1.524,2.428
					C595.377,993.101,597.545,992.528,599.246,992.286z"/>
			</g>
		</g>
	</g>
	<g>
		<g>
			<path fill="none" stroke="#727171" stroke-width="0.5669" stroke-miterlimit="10" d="M536.752,399.158
				c8.785,13.584,46.101,71.922,56.421,98.564"/>
			<g>
				<path fill="#727171" d="M534.891,396.291c0.368,1.678,0.591,3.908,0.353,5.534l1.74-2.278l2.795-0.638
					C538.202,398.451,536.264,397.322,534.891,396.291z"/>
			</g>
			<g>
				<path fill="#727171" d="M594.338,500.939c-1.131-1.291-2.794-2.797-4.243-3.57l2.866-0.047l2.173-1.871
					C594.566,496.993,594.324,499.223,594.338,500.939z"/>
			</g>
		</g>
	</g>
	<g>
		<g>
			<path fill="none" stroke="#727171" stroke-width="0.5669" stroke-miterlimit="10" d="M989.141,201.996
				c10.316-8.654,50.573-37.195,95.837,0.057"/>
			<g>
				<path fill="#727171" d="M986.59,204.271c1.604-0.615,3.776-1.17,5.419-1.178l-2.514-1.38l-1.05-2.667
					C988.23,200.675,987.405,202.76,986.59,204.271z"/>
			</g>
			<g>
				<path fill="#727171" d="M1087.59,204.271c-1.622-0.564-3.812-1.049-5.453-1.005l2.468-1.459l0.964-2.7
					C1085.836,200.729,1086.729,202.787,1087.59,204.271z"/>
			</g>
		</g>
	</g>
	<g>
		<g>
			<path fill="none" stroke="#727171" stroke-width="0.5669" stroke-miterlimit="10" d="M599.246,934.026
				c0,0,53.23,65.683,252.124,30.055"/>
			<g>
				<path fill="#727171" d="M854.737,963.471c-1.485,0.861-3.282,2.203-4.32,3.477l0.506-2.822l-1.417-2.492
					C850.908,962.487,853.049,963.154,854.737,963.471z"/>
			</g>
		</g>
	</g>
	<g>
		<g>
			<path fill="none" stroke="#727171" stroke-width="0.5669" stroke-miterlimit="10" d="M713.828,895.862
				c0.729-11.476,2.543-49.109-3.441-69.293"/>
			<g>
				<path fill="#727171" d="M713.59,899.271c0.695-1.57,1.836-3.501,2.989-4.671l-2.751,0.808l-2.631-1.14
					C712.2,895.571,713.093,897.628,713.59,899.271z"/>
			</g>
			<g>
				<path fill="#727171" d="M709.296,823.324c1.061,1.351,2.641,2.941,4.047,3.791l-2.865-0.105l-2.269,1.752
					C708.859,827.253,709.219,825.04,709.296,823.324z"/>
			</g>
		</g>
	</g>
	<g>
		<g>
			<path fill="none" stroke="#727171" stroke-width="0.5669" stroke-miterlimit="10" d="M325.943,1210.69
				c-8.632-0.721-30.817-5.973-33.485-40.721"/>
			<g>
				<path fill="#727171" d="M329.36,1210.772c-1.59-0.649-3.554-1.732-4.756-2.852l0.888,2.727l-1.062,2.662
					C325.702,1212.271,327.731,1211.317,329.36,1210.772z"/>
			</g>
			<g>
				<path fill="#727171" d="M292.263,1166.56c0.695,1.57,1.836,3.501,2.99,4.67l-2.751-0.807l-2.631,1.14
					C290.873,1170.261,291.767,1168.203,292.263,1166.56z"/>
			</g>
		</g>
	</g>
	<g>
		<g>
			<path fill="none" stroke="#727171" stroke-width="0.5669" stroke-miterlimit="10" d="M435.983,1356.999
				c9.278-4.515,37.226-14.566,44.662,23.619"/>
			<g>
				<path fill="#727171" d="M432.969,1358.614c1.706-0.201,3.948-0.203,5.542,0.193l-2.096-1.956l-0.359-2.844
					C435.445,1355.532,434.131,1357.35,432.969,1358.614z"/>
			</g>
			<g>
				<path fill="#727171" d="M481.23,1384c-0.874-1.479-2.231-3.264-3.514-4.29l2.827,0.481l2.479-1.438
					C482.18,1380.163,481.532,1382.31,481.23,1384z"/>
			</g>
		</g>
	</g>
	<g>
		<g>
			<path fill="none" stroke="#727171" stroke-width="0.5669" stroke-miterlimit="10" d="M617.247,1202.233
				c9.155,3.755,34.357,17.448,29.006,52.893"/>
			<g>
				<path fill="#727171" d="M614.031,1201.071c1.29,1.135,2.79,2.801,3.56,4.252l0.055-2.866l1.875-2.168
					C617.977,1200.854,615.748,1201.091,614.031,1201.071z"/>
			</g>
			<g>
				<path fill="#727171" d="M645.662,1258.501c-0.321-1.688-0.993-3.826-1.851-5.227l2.496,1.41l2.82-0.513
					C647.856,1255.214,646.518,1257.013,645.662,1258.501z"/>
			</g>
		</g>
	</g>
	<g>
		<g>
			<path fill="none" stroke="#727171" stroke-width="0.5669" stroke-miterlimit="10" d="M806.586,1187.166
				c-8.689,15.887-52.126,89.281-115.509,94.438"/>
			<g>
				<path fill="#727171" d="M808.189,1184.147c-1.287,1.137-3.129,2.416-4.666,2.996l2.837,0.415l1.915,2.134
					C807.909,1188.091,807.955,1185.849,808.189,1184.147z"/>
			</g>
			<g>
				<path fill="#727171" d="M687.653,1281.815c1.557-0.727,3.466-1.903,4.612-3.079l-0.754,2.767l1.189,2.607
					C691.379,1283.134,689.306,1282.279,687.653,1281.815z"/>
			</g>
		</g>
	</g>
	<g>
		<g>
			<path fill="none" stroke="#727171" stroke-width="0.5669" stroke-miterlimit="10" d="M785.394,1496.861
				c-0.522-9.104-3.178-35.611-16.68-69.751"/>
			<g>
				<path fill="#727171" d="M785.522,1500.276c0.52-1.637,1.441-3.682,2.46-4.97l-2.646,1.104l-2.739-0.845
					C783.734,1496.751,784.848,1498.696,785.522,1500.276z"/>
			</g>
		</g>
	</g>
	<g>
		<g>
			<path fill="none" stroke="#727171" stroke-width="0.5669" stroke-miterlimit="10" d="M947.231,1226.419
				c-6.761,1.963-22.634,7.527-35.754,19.427"/>
			<g>
				<path fill="#727171" d="M950.537,1225.55c-1.71-0.159-3.903-0.625-5.38-1.346l1.642,2.351l-0.241,2.856
					C947.472,1228.047,949.137,1226.544,950.537,1225.55z"/>
			</g>
			<g>
				<path fill="#727171" d="M908.997,1248.207c0.767-1.536,1.527-3.646,1.693-5.28l1.132,2.635l2.555,1.301
					C912.734,1246.921,910.58,1247.542,908.997,1248.207z"/>
			</g>
		</g>
	</g>
	<g>
		<g>
			<path fill="none" stroke="#727171" stroke-width="0.5669" stroke-miterlimit="10" d="M882.312,1084.005
				c8.031,12.036,36.424,63.544,12.056,160.887"/>
			<g>
				<path fill="#727171" d="M880.318,1081.229c0.442,1.659,0.766,3.878,0.6,5.513l1.637-2.354l2.764-0.762
					C883.721,1083.239,881.736,1082.198,880.318,1081.229z"/>
			</g>
			<g>
				<path fill="#727171" d="M893.522,1248.207c-0.198-1.706-0.714-3.888-1.468-5.348l2.387,1.588l2.851-0.308
					C895.949,1245.087,894.484,1246.784,893.522,1248.207z"/>
			</g>
		</g>
	</g>
	<g>
		<g>
			<path fill="none" stroke="#727171" stroke-width="0.5669" stroke-miterlimit="10" d="M892.461,1075.573
				c16.461,7.405,92.069,46.044,94.04,131.799"/>
			<g>
				<path fill="#727171" d="M889.319,1074.229c1.238,1.189,2.664,2.921,3.369,4.404l0.181-2.861l1.969-2.083
					C893.272,1074.185,891.034,1074.323,889.319,1074.229z"/>
			</g>
			<g>
				<path fill="#727171" d="M986.541,1210.799c-0.646-1.591-1.727-3.557-2.844-4.761l2.725,0.892l2.665-1.057
					C988.045,1207.144,987.087,1209.171,986.541,1210.799z"/>
			</g>
		</g>
	</g>
	<g>
		<g>
			<path fill="none" stroke="#727171" stroke-width="0.5669" stroke-miterlimit="10" d="M890.684,937.463
				c0.43,1.786,0.986,4.393,1.62,8.094"/>
			<g>
				<path fill="#727171" d="M889.854,934.146c-0.203,1.705-0.727,3.886-1.486,5.343l2.394-1.58l2.849,0.316
					C892.27,937.275,890.811,935.572,889.854,934.146z"/>
			</g>
			<g>
				<path fill="#727171" d="M892.854,948.938c-0.867-1.482-2.217-3.273-3.494-4.307l2.824,0.494l2.486-1.427
					C893.821,945.105,893.163,947.248,892.854,948.938z"/>
			</g>
		</g>
	</g>
	<g>
		<g>
			<path fill="none" stroke="#727171" stroke-width="0.5669" stroke-miterlimit="10" stroke-dasharray="2.8347,5.6693" d="
				M829.03,1081.877c-12.526,2.558-55.834,12.732-55.834,31.123"/>
			<g>
				<path fill="#727171" d="M832.385,1081.229c-1.698-0.254-3.862-0.841-5.296-1.644l1.508,2.438l-0.4,2.839
					C829.187,1083.552,830.932,1082.145,832.385,1081.229z"/>
			</g>
		</g>
	</g>
	<g>
		<g>
			<path fill="none" stroke="#727171" stroke-width="0.5669" stroke-miterlimit="10" stroke-dasharray="2.8347,5.6693" d="
				M824.13,1068.225c-38.722,2.583-394.203,27.107-394.203,56.93"/>
			<g>
				<path fill="#727171" d="M827.541,1068c-1.648-0.479-3.715-1.353-5.027-2.34l1.167,2.619l-0.778,2.759
					C824.059,1069.872,825.978,1068.711,827.541,1068z"/>
			</g>
		</g>
	</g>
	<g>
		<g>
			<path fill="none" stroke="#727171" stroke-width="0.5669" stroke-miterlimit="10" stroke-dasharray="2.8347,5.6693" d="
				M859.843,1275.75c-40.094-3.302-421.019-37.202-442.867-135.202"/>
			<g>
				<path fill="#727171" d="M863.25,1276.022c-1.553-0.734-3.455-1.922-4.595-3.104l0.738,2.771l-1.204,2.602
					C859.516,1277.321,861.594,1276.479,863.25,1276.022z"/>
			</g>
		</g>
	</g>
	<g>
		<g>
			<path fill="none" stroke="#727171" stroke-width="0.5669" stroke-miterlimit="10" stroke-dasharray="2.8347,5.6693" d="
				M858.897,1085.132c-0.83,11.377-5.207,48.549-27.548,70.891"/>
			<g>
				<path fill="#727171" d="M859.084,1081.719c-0.698,1.569-1.843,3.497-2.999,4.664l2.752-0.802l2.629,1.146
					C860.467,1085.422,859.578,1083.363,859.084,1081.719z"/>
			</g>
		</g>
	</g>
	<g>
		<g>
			<path fill="none" stroke="#727171" stroke-width="0.5669" stroke-miterlimit="10" d="M612.04,1156.229
				c6.559-4.653,24.055-15.978,43.813-19.759c25.925-4.96,61.698-3.074,100.02,25.083"/>
			<g>
				<path fill="#727171" d="M609.291,1158.26c1.653-0.466,3.867-0.818,5.504-0.675l-2.376-1.604l-0.8-2.753
					C611.254,1154.829,610.24,1156.829,609.291,1158.26z"/>
			</g>
			<g>
				<path fill="#727171" d="M758.611,1163.607c-1.654-0.461-3.87-0.808-5.506-0.66l2.371-1.61l0.792-2.756
					C756.638,1160.182,757.658,1162.18,758.611,1163.607z"/>
			</g>
		</g>
	</g>
	<g>
		<g>
			<path fill="none" stroke="#727171" stroke-width="0.5669" stroke-miterlimit="10" stroke-dasharray="2.8347,5.6693" d="
				M362.017,1355.338c-12.222-20.64-84.469-144.349-86.095-187.188"/>
			<g>
				<path fill="#727171" d="M363.764,1358.274c-0.294-1.691-0.42-3.931-0.11-5.545l-1.838,2.201l-2.82,0.514
					C360.551,1355.972,362.438,1357.185,363.764,1358.274z"/>
			</g>
		</g>
	</g>
	<g>
		<g>
			<path fill="none" stroke="#727171" stroke-width="0.5669" stroke-miterlimit="10" stroke-dasharray="2.8347,5.6693" d="
				M734.623,1521.833c-43.154,3.695-482.362,31.793-482.362-355.273"/>
			<g>
				<path fill="#727171" d="M738.025,1521.517c-1.656-0.451-3.736-1.29-5.065-2.256l1.21,2.6l-0.732,2.771
					C734.575,1523.446,736.474,1522.254,738.025,1521.517z"/>
			</g>
		</g>
	</g>
	<g>
		<g>
			<path fill="none" stroke="#727171" stroke-width="0.5669" stroke-miterlimit="10" stroke-dasharray="2.8347,5.6693" d="
				M737.842,1509.479c-31.505-1.339-272.03-14.903-345.076-119.085"/>
			<g>
				<path fill="#727171" d="M741.257,1509.606c-1.58-0.672-3.528-1.782-4.716-2.918l0.85,2.738l-1.1,2.647
					C737.579,1511.054,739.622,1510.128,741.257,1509.606z"/>
			</g>
		</g>
	</g>
	<g>
		<g>
			<path fill="none" stroke="#727171" stroke-width="0.5669" stroke-miterlimit="10" stroke-dasharray="2.8347,5.6693" d="
				M529.123,1188.619c-23.227-0.47-158.505-4.204-209.279-28.056"/>
			<g>
				<path fill="#727171" d="M532.541,1188.68c-1.593-0.643-3.561-1.718-4.768-2.832l0.898,2.723l-1.051,2.667
					C528.889,1190.193,530.915,1189.23,532.541,1188.68z"/>
			</g>
		</g>
	</g>
	<g>
		<g>
			<path fill="none" stroke="#727171" stroke-width="0.5669" stroke-miterlimit="10" stroke-dasharray="2.8347,5.6693" d="
				M385.602,1778.517c-9.888,0.159-37.839-1.94-37.839-30.77"/>
			<g>
				<path fill="#727171" d="M389.018,1778.344c-1.63-0.541-3.662-1.488-4.938-2.523l1.069,2.66l-0.88,2.729
					C385.469,1780.086,387.43,1778.997,389.018,1778.344z"/>
			</g>
		</g>
	</g>
	<g>
		<g>
			<path fill="none" stroke="#727171" stroke-width="0.5669" stroke-miterlimit="10" stroke-dasharray="2.8347,5.6693" d="
				M556.091,1615.442c-14.214-8.578-78.758-42.618-145.424,0.962"/>
			<g>
				<path fill="#727171" d="M558.979,1617.271c-1.044-1.363-2.191-3.29-2.664-4.863l-0.611,2.801l-2.262,1.762
					C555.065,1616.717,557.298,1616.919,558.979,1617.271z"/>
			</g>
		</g>
	</g>
	<g>
		<g>
			<path fill="none" stroke="#727171" stroke-width="0.5669" stroke-miterlimit="10" stroke-dasharray="2.8347,5.6693" d="
				M738.031,1609.605c-29.561-10.14-254.7-83.338-360.003,1.126"/>
			<g>
				<path fill="#727171" d="M741.257,1610.731c-1.334-1.081-2.9-2.687-3.727-4.106l0.06,2.867l-1.787,2.241
					C737.322,1611.107,739.541,1610.781,741.257,1610.731z"/>
			</g>
		</g>
	</g>
	<g>
		<g>
			<path fill="none" stroke="#727171" stroke-width="0.5669" stroke-miterlimit="10" stroke-dasharray="2.8347,5.6693" d="
				M738.033,1621.602c-14.819-5.009-76.946-23.848-106.968,1.132"/>
			<g>
				<path fill="#727171" d="M741.257,1622.733c-1.323-1.095-2.874-2.714-3.688-4.142l0.033,2.867l-1.808,2.225
					C737.319,1623.072,739.541,1622.768,741.257,1622.733z"/>
			</g>
		</g>
	</g>
	<g>
		<g>
			<path fill="none" stroke="#727171" stroke-width="0.5669" stroke-miterlimit="10" stroke-dasharray="2.8347,5.6693" d="
				M922.935,1614.469c-15.339-5.211-82.622-25.591-140.678-4.08"/>
			<g>
				<path fill="#727171" d="M926.157,1615.609c-1.32-1.099-2.865-2.725-3.674-4.154l0.023,2.867l-1.816,2.219
					C922.217,1615.934,924.44,1615.637,926.157,1615.609z"/>
			</g>
		</g>
	</g>
	<g>
		<g>
			<path fill="none" stroke="#727171" stroke-width="0.5669" stroke-miterlimit="10" stroke-dasharray="2.8347,5.6693" d="
				M773.402,1662.355c-9.014,153.937,4.434,200.407,2.52,193.916"/>
			<g>
				<path fill="#727171" d="M773.605,1658.939c-0.672,1.58-1.784,3.527-2.921,4.714l2.739-0.848l2.646,1.101
					C775.05,1662.619,774.125,1660.576,773.605,1658.939z"/>
			</g>
		</g>
	</g>
	<g>
		<g>
			<path fill="none" stroke="#727171" stroke-width="0.5669" stroke-miterlimit="10" stroke-dasharray="2.8347,5.6693" d="
				M457.878,1834.109c-9.892-0.217-37.835-3.252-37.835-30.634"/>
			<g>
				<path fill="#727171" d="M461.298,1834.072c-1.608-0.604-3.602-1.63-4.836-2.714l0.966,2.7l-0.985,2.691
					C457.685,1835.676,459.686,1834.663,461.298,1834.072z"/>
			</g>
		</g>
	</g>
	<g>
		<g>
			<path fill="none" stroke="#727171" stroke-width="0.5669" stroke-miterlimit="10" stroke-dasharray="2.8347,5.6693" d="
				M545.696,1879.932c-11.902,0.432-50.841,1.113-50.841-8.456"/>
			<g>
				<path fill="#727171" d="M549.111,1879.783c-1.63-0.542-3.661-1.492-4.936-2.529l1.067,2.662l-0.883,2.727
					C545.561,1881.521,547.522,1880.435,549.111,1879.783z"/>
			</g>
		</g>
	</g>
	<g>
		<g>
			<path fill="none" stroke="#727171" stroke-width="0.5669" stroke-miterlimit="10" stroke-dasharray="2.8347,5.6693" d="
				M635.606,1900.607c-10.893,0.631-44.133,1.58-44.133-10.334"/>
			<g>
				<path fill="#727171" d="M639.016,1900.372c-1.641-0.505-3.693-1.407-4.992-2.415l1.129,2.637l-0.82,2.747
					C635.507,1902.191,637.444,1901.061,639.016,1900.372z"/>
			</g>
		</g>
	</g>
	<g>
		<g>
			<path fill="none" stroke="#727171" stroke-width="0.5669" stroke-miterlimit="10" stroke-dasharray="2.8347,5.6693" d="
				M744.588,1911.543c-7.67,4.83-29.834,15.91-51.998-0.234"/>
			<g>
				<path fill="#727171" d="M747.407,1909.607c-1.672,0.395-3.899,0.652-5.528,0.439l2.306,1.704l0.682,2.784
					C745.299,1912.951,746.397,1910.996,747.407,1909.607z"/>
			</g>
		</g>
	</g>
	<g>
		<g>
			<path fill="none" stroke="#727171" stroke-width="0.5669" stroke-miterlimit="10" d="M578.62,1812.208
				c-1.148-12.131-3.764-52.75,12.297-55.834"/>
			<g>
				<path fill="#727171" d="M578.98,1815.605c0.454-1.656,1.293-3.735,2.259-5.063l-2.6,1.208l-2.771-0.734
					C577.053,1812.154,578.244,1814.054,578.98,1815.605z"/>
			</g>
			<g>
				<path fill="#727171" d="M594.338,1756.273c-1.58,0.671-3.527,1.782-4.714,2.919l0.849-2.738l-1.101-2.648
					C590.66,1754.827,592.703,1755.751,594.338,1756.273z"/>
			</g>
		</g>
	</g>
	<g>
		<g>
			<path fill="none" stroke="#727171" stroke-width="0.5669" stroke-miterlimit="10" d="M557.872,1814.371
				c-3.375-10.098-13.552-42.395-17.615-76.1c-4.236-35.147,5.56-98.023,15.475-107.561"/>
			<g>
				<path fill="#727171" d="M558.979,1817.605c0.055-1.717,0.387-3.934,1.018-5.451l-2.247,1.781l-2.866-0.068
					C556.301,1814.698,557.902,1816.269,558.979,1817.605z"/>
			</g>
			<g>
				<path fill="#727171" d="M558.979,1629.605c-1.277,1.146-2.761,2.828-3.516,4.287l-0.084-2.865l-1.898-2.148
					C555.03,1629.428,557.262,1629.641,558.979,1629.605z"/>
			</g>
		</g>
	</g>
	<g>
		<g>
			<path fill="none" stroke="#727171" stroke-width="0.5669" stroke-miterlimit="10" d="M660.032,1847.478
				c2.076-10.171,9.013-42.245,20.936-78.976"/>
			<g>
				<path fill="#727171" d="M659.366,1850.829c0.906-1.458,2.304-3.212,3.608-4.21l-2.836,0.418l-2.447-1.494
					C658.501,1846.972,659.102,1849.133,659.366,1850.829z"/>
			</g>
			<g>
				<path fill="#727171" d="M682.033,1765.246c0.084,1.715,0.454,3.927,1.111,5.434l-2.277-1.742l-2.864,0.117
					C679.405,1768.199,680.978,1766.602,682.033,1765.246z"/>
			</g>
		</g>
	</g>
	<g>
		<g>
			<path fill="none" stroke="#727171" stroke-width="0.5669" stroke-miterlimit="10" d="M1007.244,1612.145
				c8.716-4.428,35.556-15.007,67.768,2.131"/>
			<g>
				<path fill="#727171" d="M1004.257,1613.812c1.701-0.234,3.943-0.28,5.545,0.086l-2.134-1.916l-0.415-2.836
					C1006.672,1610.684,1005.394,1612.525,1004.257,1613.812z"/>
			</g>
			<g>
				<path fill="#727171" d="M1078.001,1615.939c-1.698-0.252-3.94-0.322-5.545,0.028l2.153-1.894l0.443-2.832
					C1075.619,1612.785,1076.877,1614.641,1078.001,1615.939z"/>
			</g>
		</g>
	</g>
	<g>
		<g>
			<path fill="none" stroke="#727171" stroke-width="0.5669" stroke-miterlimit="10" d="M757.494,1852.855
				c-0.318-15.691-3.697-80.706-37.688-95.289"/>
			<g>
				<path fill="#727171" d="M757.523,1856.271c0.582-1.615,1.582-3.623,2.649-4.871l-2.687,1.001l-2.705-0.949
					C755.873,1852.68,756.911,1854.668,757.523,1856.271z"/>
			</g>
			<g>
				<path fill="#727171" d="M716.59,1756.37c1.717,0.018,3.947-0.22,5.489-0.785l-1.875,2.169l-0.053,2.866
					C719.381,1759.17,717.88,1757.503,716.59,1756.37z"/>
			</g>
		</g>
	</g>
	<g>
		<g>
			<path fill="none" stroke="#727171" stroke-width="0.5669" stroke-miterlimit="10" d="M739.694,1637.666
				c-14.637,4.5-73.193,26.145-73.418,84.511"/>
			<g>
				<path fill="#727171" d="M742.981,1636.73c-1.713-0.127-3.914-0.551-5.404-1.244l1.686,2.318l-0.188,2.861
					C739.963,1639.285,741.6,1637.751,742.981,1636.73z"/>
			</g>
			<g>
				<path fill="#727171" d="M666.329,1725.605c-0.596-1.611-1.611-3.611-2.689-4.85l2.694,0.979l2.697-0.973
					C667.95,1721.999,666.928,1723.995,666.329,1725.605z"/>
			</g>
		</g>
	</g>
	<g>
		<g>
			<path fill="none" stroke="#727171" stroke-width="0.5669" stroke-miterlimit="10" d="M947.357,1746.939
				c-20.267-8.062-130.788-53.379-138.345-85.769"/>
			<g>
				<path fill="#727171" d="M950.537,1748.189c-1.263-1.164-2.723-2.865-3.458-4.334l-0.122,2.863l-1.927,2.123
					C946.585,1748.314,948.821,1748.13,950.537,1748.189z"/>
			</g>
			<g>
				<path fill="#727171" d="M808.605,1657.771c0.805,1.518,2.078,3.363,3.312,4.447l-2.802-0.61l-2.544,1.322
					C807.479,1661.561,808.226,1659.446,808.605,1657.771z"/>
			</g>
		</g>
	</g>
	<g>
		<g>
			<path fill="none" stroke="#727171" stroke-width="0.5669" stroke-miterlimit="10" d="M729.901,1750.623
				c0,0,127.062-10.781,217.336,13.037"/>
			<g>
				<path fill="#727171" d="M950.537,1764.551c-1.706,0.195-3.889,0.709-5.35,1.462l1.591-2.386l-0.304-2.851
					C947.419,1762.121,949.116,1763.587,950.537,1764.551z"/>
			</g>
		</g>
	</g>
	<g>
		<g>
			<path fill="none" stroke="#727171" stroke-width="0.5669" stroke-miterlimit="10" d="M841.605,1546.411
				c-1.746-3.276-4.928-9.103-9.512-16.939"/>
			<g>
				<path fill="#727171" d="M843.19,1549.438c-0.229-1.702-0.266-3.944,0.106-5.544l-1.923,2.127l-2.839,0.403
					C840.07,1547.011,841.908,1548.296,843.19,1549.438z"/>
			</g>
			<g>
				<path fill="#727171" d="M830.355,1526.519c1.316,1.103,3.191,2.333,4.742,2.873l-2.824,0.489l-1.859,2.183
					C830.738,1530.453,830.634,1528.213,830.355,1526.519z"/>
			</g>
		</g>
	</g>
	<g>
		<g>
			<path fill="none" stroke="#727171" stroke-width="0.5669" stroke-miterlimit="10" d="M623.915,1177.301
				c2.907-10.12,13.325-40.07,35.112-41.389"/>
			<g>
				<path fill="#727171" d="M623.041,1180.606c1.003-1.394,2.516-3.05,3.885-3.957l-2.858,0.226l-2.34-1.656
					C622.439,1176.699,622.892,1178.896,623.041,1180.606z"/>
			</g>
		</g>
	</g>
	<g>
		<g>
			<path fill="none" stroke="#727171" stroke-width="0.5669" stroke-miterlimit="10" stroke-dasharray="2.8347,5.6693" d="
				M493.92,1187.399c0,0,8.613-19.733,37.53-20.801"/>
			<g>
				<path fill="#727171" d="M534.875,1166.561c-1.593,0.643-3.561,1.719-4.768,2.833l0.898-2.723l-1.052-2.667
					C531.222,1165.048,533.249,1166.01,534.875,1166.561z"/>
			</g>
		</g>
	</g>
	<g>
		<g>
			<path fill="none" stroke="#727171" stroke-width="0.5669" stroke-miterlimit="10" stroke-dasharray="2.8347,5.6693" d="
				M499.302,127.067c0,0,348.246-7.182,425.028,74.655"/>
			<g>
				<path fill="#727171" d="M926.609,204.271c-1.528-0.782-3.63-1.565-5.263-1.748l2.646-1.104l1.327-2.541
					C925.361,200.521,925.96,202.682,926.609,204.271z"/>
			</g>
		</g>
	</g>
</g>
<g id="Entities">
	<text transform="matrix(1 0 0 1 746.3745 1518.4727)" fill="#232120" font-family="'HelveticaNeue'" font-size="10">Minkler &amp; Wallerstein</text>
	<g>
		<text transform="matrix(1 0 0 1 817.9253 1564.4697)"><tspan x="0" y="0" fill="#232120" font-family="'HelveticaNeue-Italic'" font-size="10">National Institute for </tspan><tspan x="0" y="14.4" fill="#232120" font-family="'HelveticaNeue-Italic'" font-size="10">Environmental Health Sciences </tspan></text>
	</g>
	<text transform="matrix(1 0 0 1 121.9277 133.8438)"><tspan x="0" y="0" fill="#232120" font-family="'HelveticaNeue'" font-size="10">Saul Alinsky</tspan><tspan x="0" y="14.4" fill="#232120" font-family="'HelveticaNeue'" font-size="10">1960s to 90s</tspan></text>
	<g>
		<text transform="matrix(1 0 0 1 896.5776 217)"><tspan x="0" y="0" fill="#232120" font-family="'HelveticaNeue-Italic'" font-size="10">Pacific Rim Participatory </tspan><tspan x="0" y="14.4" fill="#232120" font-family="'HelveticaNeue-Italic'" font-size="10">Community Design Conference </tspan><tspan x="0" y="28.8" fill="#232120" font-family="'HelveticaNeue-Italic'" font-size="10">1998 to Present</tspan></text>
	</g>
	<g>
		<text transform="matrix(1 0 0 1 228.5762 134.8496)"><tspan x="0" y="0" font-family="'HelveticaNeue'" font-size="10">Paul Davidoff</tspan><tspan x="0" y="14.4" fill="#232120" font-family="'HelveticaNeue'" font-size="10">1960s to 80s</tspan></text>
	</g>
	<text transform="matrix(1 0 0 1 639.0171 216.999)"><tspan x="0" y="0" fill="#232120" font-family="'HelveticaNeue'" font-size="10">Frederik Wulz</tspan><tspan x="0" y="14.4" fill="#232120" font-family="'HelveticaNeue'" font-size="10">1980s </tspan></text>
	<g>
		<text transform="matrix(1 0 0 1 481.23 371.1509)"><tspan x="0" y="0" font-family="'HelveticaNeue'" font-size="9">Randy Hester</tspan><tspan x="0" y="14.4" font-family="'HelveticaNeue'" font-size="9">1970s to Present</tspan></text>
	</g>
	<g>
		<text transform="matrix(1 0 0 1 392.7661 222.002)"><tspan x="0" y="0" font-family="'HelveticaNeue-Italic'" font-size="10">Asian </tspan><tspan x="0" y="12.756" font-family="'HelveticaNeue-Italic'" font-size="10">Neighborhood </tspan><tspan x="0" y="25.512" font-family="'HelveticaNeue-Italic'" font-size="10">Design </tspan><tspan x="0" y="38.268" font-family="'HelveticaNeue'" font-size="10">1973 to Present</tspan></text>
	</g>
	<g>
		<text transform="matrix(1 0 0 1 300.3818 354.2241)"><tspan x="0" y="0" font-family="'HelveticaNeue'" font-size="10">Lawrence Halprin</tspan><tspan x="0" y="14.4" font-family="'HelveticaNeue'" font-size="10">1960s to 2000s</tspan></text>
	</g>
	<g>
		<text transform="matrix(1 0 0 1 424.6147 113.7373)"><tspan x="0" y="0" font-family="'HelveticaNeue-Italic'" font-size="10">Association for </tspan><tspan x="0" y="12.756" font-family="'HelveticaNeue-Italic'" font-size="10">Community </tspan><tspan x="0" y="25.512" font-family="'HelveticaNeue-Italic'" font-size="10">Design Inc. </tspan><tspan x="0" y="38.268" font-family="'HelveticaNeue'" font-size="10">1977 to Present</tspan></text>
	</g>
	<g>
		<text transform="matrix(1 0 0 1 292.2632 423.6392)"><tspan x="0" y="0" font-family="'HelveticaNeue'" font-size="10">Henry Sanoff</tspan><tspan x="0" y="14.4" font-family="'HelveticaNeue'" font-size="10">1960s to Present</tspan></text>
	</g>
	<g>
		<text transform="matrix(1 0 0 1 198.229 239.2402)"><tspan x="0" y="0" font-family="'HelveticaNeue'" font-size="10">Rex Curry</tspan><tspan x="0" y="14.4" font-family="'HelveticaNeue'" font-size="10">1960s to</tspan><tspan x="0" y="28.8" font-family="'HelveticaNeue'" font-size="10">2000s</tspan></text>
	</g>
	<g>
		<text transform="matrix(1 0 0 1 653.0757 428.3096)"><tspan x="0" y="0" fill="#232120" font-family="'HelveticaNeue'" font-size="10">Nabeel Hamdi</tspan><tspan x="0" y="14.4" fill="#232120" font-family="'HelveticaNeue'" font-size="10">1980s to Present</tspan></text>
	</g>
	<g>
		<text transform="matrix(1 0 0 1 589.3813 516.9868)"><tspan x="0" y="0" font-family="'HelveticaNeue-Italic'" font-size="10">MIG Inc. </tspan><tspan x="0" y="12.756" font-family="'HelveticaNeue-Italic'" font-size="10">(Moore </tspan><tspan x="0" y="25.512" font-family="'HelveticaNeue-Italic'" font-size="10">Iacofano </tspan><tspan x="0" y="38.268" font-family="'HelveticaNeue-Italic'" font-size="10">Goltsman)</tspan><tspan x="0" y="52.668" fill="#232120" font-family="'HelveticaNeue'" font-size="10">1980s to Present</tspan></text>
	</g>
	<g>
		<text transform="matrix(1 0 0 1 252.2607 523.9883)"><tspan x="0" y="0" font-family="'HelveticaNeue'" font-size="10">Sherry Arnstein</tspan><tspan x="0" y="14.4" font-family="'HelveticaNeue'" font-size="10">1960s to 1970s</tspan></text>
	</g>
	<text transform="matrix(1 0 0 1 486.2402 516.9883)"><tspan x="0" y="0" fill="#232120" font-family="'HelveticaNeue'" font-size="10">Mark Francis</tspan><tspan x="0" y="14.4" fill="#232120" font-family="'HelveticaNeue'" font-size="10">1980s to 2000s</tspan></text>
	<g>
		<text transform="matrix(1 0 0 1 768.7144 713.3193)"><tspan x="0" y="0" fill="#7D7D7D" font-family="'HelveticaNeue'" font-size="10">Local Agenda 21</tspan><tspan x="0" y="14.4" fill="#7D7D7D" font-family="'HelveticaNeue'" font-size="10">1992</tspan></text>
	</g>
	<text transform="matrix(1 0 0 1 899.5903 674.5635)"><tspan x="0" y="0" font-family="'HelveticaNeue'" font-size="10">David Driskell</tspan><tspan x="0" y="14.4" font-family="'HelveticaNeue'" font-size="10">1990s to</tspan><tspan x="0" y="28.8" font-family="'HelveticaNeue'" font-size="10"> Present</tspan></text>
	<g>
		<text transform="matrix(1 0 0 1 1050.395 766.0176)"><tspan x="0" y="0" fill="#7D7D7D" font-family="'HelveticaNeue'" font-size="10">A symposium on </tspan><tspan x="0" y="14.4" fill="#7D7D7D" font-family="'HelveticaNeue'" font-size="10">&quot;Children Participation </tspan><tspan x="0" y="28.8" fill="#7D7D7D" font-family="'HelveticaNeue'" font-size="10"> </tspan><tspan x="2.78" y="28.8" fill="#7D7D7D" font-family="'HelveticaNeue'" font-size="10"> </tspan><tspan x="4.76" y="28.8" fill="#7D7D7D" font-family="'HelveticaNeue'" font-size="10">in Community Settings&quot; </tspan><tspan x="0" y="43.2" fill="#7D7D7D" font-family="'HelveticaNeue'" font-size="10">  in Oslo, 2000</tspan></text>
	</g>
	<g>
		<text transform="matrix(1 0 0 1 746.769 1176.1514)" fill="#232120" font-family="'HelveticaNeue-Italic'" font-size="10">NGOs (ActionAid, MYRADA)</text>
	</g>
	<g>
		<text transform="matrix(1 0 0 1 746.8286 1125.1543)" fill="#232120" font-family="'HelveticaNeue'" font-size="10">Amartya Sen</text>
	</g>
	<g>
		<text transform="matrix(1 0 0 1 832.3853 1075.1504)" fill="#232120" font-family="'HelveticaNeue-Italic'" font-size="10">World Bank</text>
	</g>
	<g>
		<text transform="matrix(1 0 0 1 537.9175 1168.1494)" fill="#232120" font-family="'HelveticaNeue'" font-size="10">Robert Chambers</text>
	</g>
	<g>
		<text transform="matrix(1 0 0 1 538.5903 1191.0801)" fill="#232120" font-family="'HelveticaNeue-Italic'" font-size="10">University of Sussex</text>
	</g>
	<g>
		<text transform="matrix(1 0 0 1 393.7192 1135.1172)" fill="#232120" font-family="'HelveticaNeue-Italic'" font-size="10">Grameen Bank</text>
	</g>
	<g>
		<text transform="matrix(1 0 0 1 393.7192 1058.1514)"><tspan x="0" y="0" fill="#232120" font-family="'HelveticaNeue-Italic'" font-size="10">Self-Employed </tspan><tspan x="0" y="14.4" fill="#232120" font-family="'HelveticaNeue-Italic'" font-size="10">Women&apos;s Associations </tspan><tspan x="0" y="28.8" fill="#232120" font-family="'HelveticaNeue-Italic'" font-size="10">(SEWA) in India</tspan></text>
	</g>
	<g>
		<text transform="matrix(1 0 0 1 558.979 1371.709)"><tspan x="0" y="0" fill="#232120" font-family="'HelveticaNeue-Italic'" font-size="10">Iringa Nutrition </tspan><tspan x="0" y="14.4" fill="#232120" font-family="'HelveticaNeue-Italic'" font-size="10">Project in Tanzania</tspan></text>
	</g>
	<g>
		<text transform="matrix(1 0 0 1 558.979 1333.4736)"><tspan x="0" y="0" fill="#232120" font-family="'HelveticaNeue-Italic'" font-size="10">Orangi Slum Improvement </tspan><tspan x="0" y="14.4" fill="#232120" font-family="'HelveticaNeue-Italic'" font-size="10">Project in Pakistan</tspan></text>
	</g>
	<g>
		<text transform="matrix(1 0 0 1 956.0923 1226.5508)" fill="#232120" font-family="'HelveticaNeue-Italic'" font-size="10">United Nations</text>
	</g>
	<g>
		<text transform="matrix(1 0 0 1 329.3608 1629.6953)"><tspan x="0" y="0" fill="#7D7D7D" font-family="'HelveticaNeue'" font-size="10">Design Research </tspan><tspan x="0" y="14.4" fill="#7D7D7D" font-family="'HelveticaNeue'" font-size="10">Society Conference </tspan><tspan x="0" y="28.8" fill="#7D7D7D" font-family="'HelveticaNeue'" font-size="10">Design Participation </tspan><tspan x="0" y="43.2" fill="#7D7D7D" font-family="'HelveticaNeue'" font-size="10">1971 , England</tspan></text>
	</g>
	<g>
		<text transform="matrix(1 0 0 1 329.3599 1711.0352)"><tspan x="0" y="0" fill="#232120" font-family="'HelveticaNeue-Italic'" font-size="10">NJMF Project</tspan><tspan x="0" y="14.4" fill="#232120" font-family="'HelveticaNeue-Italic'" font-size="10">Norway </tspan><tspan x="0" y="28.8" fill="#232120" font-family="'HelveticaNeue-Italic'" font-size="10">19711973</tspan></text>
	</g>
	<g>
		<text transform="matrix(1 0 0 1 396.7935 1765.2461)"><tspan x="0" y="0" fill="#232120" font-family="'HelveticaNeue-Italic'" font-size="10">DEMOS Project</tspan><tspan x="0" y="14.4" fill="#232120" font-family="'HelveticaNeue-Italic'" font-size="10">Sweden</tspan><tspan x="0" y="28.801" fill="#232120" font-family="'HelveticaNeue-Italic'" font-size="10">19751979</tspan></text>
	</g>
	<g>
		<text transform="matrix(1 0 0 1 465.2944 1834.7461)"><tspan x="0" y="0" fill="#232120" font-family="'HelveticaNeue-Italic'" font-size="10">DUE Project</tspan><tspan x="0" y="14.4" fill="#232120" font-family="'HelveticaNeue-Italic'" font-size="10">Denmark</tspan><tspan x="0" y="28.801" fill="#232120" font-family="'HelveticaNeue-Italic'" font-size="10">19771980</tspan></text>
	</g>
	<g>
		<text transform="matrix(1 0 0 1 554.2944 1836.7461)"><tspan x="0" y="0" fill="#232120" font-family="'HelveticaNeue-Italic'" font-size="10">UTOPIA project</tspan><tspan x="0" y="14.4" fill="#232120" font-family="'HelveticaNeue-Italic'" font-size="10">Sweden and </tspan><tspan x="0" y="28.801" fill="#232120" font-family="'HelveticaNeue-Italic'" font-size="10">Denmark</tspan><tspan x="0" y="43.201" fill="#232120" font-family="'HelveticaNeue-Italic'" font-size="10">19811984</tspan></text>
	</g>
	<g>
		<text transform="matrix(1 0 0 1 645.2944 1874.7461)"><tspan x="0" y="0" fill="#232120" font-family="'HelveticaNeue-Italic'" font-size="10">Florence</tspan><tspan x="0" y="14.4" fill="#232120" font-family="'HelveticaNeue-Italic'" font-size="10">Project </tspan><tspan x="0" y="28.801" fill="#232120" font-family="'HelveticaNeue-Italic'" font-size="10">1984-1987</tspan></text>
	</g>
	<g>
		<text transform="matrix(1 0 0 1 746.7974 1871.7461)"><tspan x="0" y="0" fill="#232120" font-family="'HelveticaNeue-Italic'" font-size="10">AT Project</tspan><tspan x="0" y="14.4" fill="#232120" font-family="'HelveticaNeue-Italic'" font-size="10">Denmark</tspan><tspan x="0" y="28.801" fill="#232120" font-family="'HelveticaNeue-Italic'" font-size="10">1990 to Present</tspan></text>
	</g>
	<g>
		<text transform="matrix(1 0 0 1 565.2944 1622.7344)" fill="#232120" font-family="'HelveticaNeue-Italic'" font-size="10">Xerox PARC</text>
	</g>
	<g>
		<text transform="matrix(1 0 0 1 602.7944 1742.2461)"><tspan x="0" y="0" fill="#232120" font-family="'HelveticaNeue-Italic'" font-size="10">Computer Professionals </tspan><tspan x="0" y="14.4" fill="#232120" font-family="'HelveticaNeue-Italic'" font-size="10">for Social Responsibility</tspan><tspan x="0" y="28.799" fill="#232120" font-family="'HelveticaNeue-Italic'" font-size="10">(CPSR)</tspan><tspan x="0" y="43.199" fill="#232120" font-family="'HelveticaNeue'" font-size="10">1983  2013</tspan></text>
	</g>
	<g>
		<text transform="matrix(1 0 0 1 747.7974 1621.7344)"><tspan x="0" y="0" fill="#232120" font-family="'HelveticaNeue-Italic'" font-size="10">Participatory </tspan><tspan x="0" y="14.4" fill="#232120" font-family="'HelveticaNeue-Italic'" font-size="10">Design Conference</tspan><tspan x="0" y="28.801" fill="#232120" font-family="'HelveticaNeue'" font-size="10">1990 to Present</tspan></text>
	</g>
	<g>
		<text transform="matrix(1 0 0 1 1083.8032 1622.7344)" fill="#232120" font-family="'HelveticaNeue'" font-size="10">Hussain et al.</text>
	</g>
	<g>
		<text transform="matrix(1 0 0 1 954.8013 1755.2461)"><tspan x="0" y="0" fill="#232120" font-family="'HelveticaNeue-Italic'" font-size="10">Public Sphere</tspan><tspan x="0" y="14.4" fill="#232120" font-family="'HelveticaNeue-Italic'" font-size="10">Project</tspan><tspan x="31.659" y="14.4" fill="#232120" font-family="'HelveticaNeue'" font-size="10"> </tspan><tspan x="0" y="28.8" fill="#232120" font-family="'HelveticaNeue'" font-size="10">2000s to Present</tspan></text>
	</g>
	<g>
		<text transform="matrix(1 0 0 1 932.8013 1622.7344)"><tspan x="0" y="0" fill="#232120" font-family="'HelveticaNeue'" font-size="10">Elizabeth B.-N. </tspan><tspan x="0" y="14.4" fill="#232120" font-family="'HelveticaNeue'" font-size="10">Sanders</tspan></text>
	</g>
	<text transform="matrix(1 0 0 1 246.2881 1141.0312)"><tspan x="0" y="0" fill="#232120" font-family="'HelveticaNeue'" font-size="10">Paulo Freire</tspan><tspan x="0" y="14.4" fill="#232120" font-family="'HelveticaNeue'" font-size="10">1960s to 1990s</tspan></text>
	<g>
		<text transform="matrix(1 0 0 1 342.9351 1203.0352)"><tspan x="0" y="0" fill="#232120" font-family="'HelveticaNeue-Italic'" font-size="10">International Council </tspan><tspan x="0" y="14.399" fill="#232120" font-family="'HelveticaNeue-Italic'" font-size="10">for Adult Education</tspan></text>
	</g>
	<g>
		<text transform="matrix(1 0 0 1 445.5435 1401.126)"><tspan x="0" y="0" fill="#232120" font-family="'HelveticaNeue-Italic'" font-size="10">Symposium of</tspan><tspan x="0" y="14.399" fill="#232120" font-family="'HelveticaNeue-Italic'" font-size="10">Action Research</tspan></text>
	</g>
	<g>
		<text transform="matrix(1 0 0 1 575.5884 1276.0225)"><tspan x="0" y="0" fill="#232120" font-family="'HelveticaNeue-Italic'" font-size="10">Society for Participatory</tspan><tspan x="0" y="14.399" fill="#232120" font-family="'HelveticaNeue-Italic'" font-size="10">Research in Asia 1982</tspan></text>
	</g>
	<g>
		<text transform="matrix(1 0 0 1 368.4487 1373.125)" fill="#232120" font-family="'HelveticaNeue'" font-size="10">Orlando Fals-Borda</text>
	</g>
	<g>
		<text transform="matrix(1 0 0 1 398.4707 910.6562)"><tspan x="0" y="0" font-family="'HelveticaNeue'" font-size="10">Kevin Lynch </tspan><tspan x="0" y="14.399" font-family="'HelveticaNeue'" font-size="10">1960 to 1980s</tspan></text>
	</g>
	<g>
		<text transform="matrix(1 0 0 1 396.9473 978.9395)"><tspan x="0" y="0" fill="#232120" font-family="'HelveticaNeue-Italic'" font-size="10">Growing up</tspan><tspan x="0" y="14.4" fill="#232120" font-family="'HelveticaNeue-Italic'" font-size="10"> in Cities 1977 to 1980s</tspan></text>
	</g>
	<text transform="matrix(1 0 0 1 863.2495 963.6953)"><tspan x="0" y="0" font-family="'HelveticaNeue'" font-size="10">Louise Chawla</tspan><tspan x="0" y="14.4" font-family="'HelveticaNeue'" font-size="10">1990s to Present</tspan></text>
	<g>
		<text transform="matrix(1 0 0 1 682.0327 910.6553)"><tspan x="0" y="0" fill="#7D7D7D" font-family="'HelveticaNeue'" font-size="10">UN Conviction</tspan><tspan x="0" y="14.399" fill="#7D7D7D" font-family="'HelveticaNeue'" font-size="10">of Rights of</tspan><tspan x="0" y="28.8" fill="#7D7D7D" font-family="'HelveticaNeue'" font-size="10">the Child 1989</tspan></text>
	</g>
	<g>
		<text transform="matrix(1 0 0 1 673.3853 784.3223)"><tspan x="0" y="0" fill="#232120" font-family="'HelveticaNeue-Italic'" font-size="10">UNICEF Innocenti</tspan><tspan x="0" y="14.4" fill="#232120" font-family="'HelveticaNeue-Italic'" font-size="10">Research Centre</tspan><tspan x="0" y="28.8" fill="#232120" font-family="'HelveticaNeue'" font-size="10">Founded in 1988</tspan></text>
	</g>
	<g>
		<text transform="matrix(1 0 0 1 556.187 910.6562)"><tspan x="0" y="0" fill="#232120" font-family="'HelveticaNeue'" font-size="10">Roger Hart</tspan><tspan x="0" y="14.399" fill="#232120" font-family="'HelveticaNeue'" font-size="10">1970s to Present</tspan></text>
	</g>
	<g>
		<text transform="matrix(1 0 0 1 869.8374 1261.248)"><tspan x="0" y="0" fill="#232120" font-family="'HelveticaNeue-Italic'" font-size="10">Millenium </tspan><tspan x="0" y="14.4" fill="#232120" font-family="'HelveticaNeue-Italic'" font-size="10">Development </tspan><tspan x="0" y="28.801" fill="#232120" font-family="'HelveticaNeue-Italic'" font-size="10">Goals (MGDs)</tspan></text>
	</g>
	<g>
		<text transform="matrix(1 0 0 1 1069.8823 217)"><tspan x="0" y="0" font-family="'HelveticaNeue'" font-size="10">Jeffrey Hou</tspan><tspan x="0" y="14.4" font-family="'HelveticaNeue'" font-size="10">1990s to Present</tspan></text>
	</g>
	<text transform="matrix(1 0 0 1 120.7705 425.2485)"><tspan x="0" y="0" fill="#232120" font-family="'HelveticaNeue'" font-size="10">Karl Linn</tspan><tspan x="0" y="14.4" fill="#232120" font-family="'HelveticaNeue'" font-size="10">1960s to</tspan><tspan x="0" y="28.8" fill="#232120" font-family="'HelveticaNeue'" font-size="10">1990s</tspan></text>
	<g>
		<text transform="matrix(1 0 0 1 198.2891 350.4663)"><tspan x="0" y="0" font-family="'HelveticaNeue-Italic'" font-size="10">Architectural </tspan><tspan x="0" y="12.756" font-family="'HelveticaNeue-Italic'" font-size="10">Renewal </tspan><tspan x="0" y="25.512" font-family="'HelveticaNeue-Italic'" font-size="10">Committee in </tspan><tspan x="0" y="38.268" font-family="'HelveticaNeue-Italic'" font-size="10">Harlem (ARCH)</tspan><tspan x="0" y="51.023" font-family="'HelveticaNeue'" font-size="10">1963 - 1970s</tspan></text>
	</g>
	<g>
		<text transform="matrix(1 0 0 1 120.9414 215.2383)"><tspan x="0" y="0" font-family="'HelveticaNeue-Italic'" font-size="10">Architecture-</tspan><tspan x="0" y="12.756" font-family="'HelveticaNeue-Italic'" font-size="10">Research-</tspan><tspan x="0" y="25.512" font-family="'HelveticaNeue-Italic'" font-size="10">Construction </tspan><tspan x="0" y="38.268" font-family="'HelveticaNeue-Italic'" font-size="10">(ARC) </tspan><tspan x="0" y="51.023" font-family="'HelveticaNeue'" font-size="10">1960s to</tspan><tspan x="0" y="63.78" font-family="'HelveticaNeue'" font-size="10">Present</tspan></text>
	</g>
	<text transform="matrix(1 0 0 1 607.2495 990.4854)"><tspan x="0" y="0" font-family="'HelveticaNeue'" font-size="10">Robin Moore</tspan><tspan x="0" y="14.4" font-family="'HelveticaNeue'" font-size="10">1970s to Present</tspan></text>
	<g>
		<text transform="matrix(1 0 0 1 840.9468 911.9375)"><tspan x="0" y="0" fill="#232120" font-family="'HelveticaNeue-Italic'" font-size="10">Growing up in Cities </tspan><tspan x="0" y="14.4" fill="#232120" font-family="'HelveticaNeue-Italic'" font-size="10">1997 to 2006</tspan></text>
	</g>
	<g>
		<text transform="matrix(1 0 0 1 746.3745 1417.0312)" fill="#232120" font-family="'HelveticaNeue'" font-size="10">William Foote Whyte</text>
	</g>
</g>
<g id="Years">
	<g>
		<text transform="matrix(1 0 0 1 121.2759 82.3369)" fill="#232120" font-family="'HelveticaNeue'" font-size="18">1960s</text>
	</g>
	<g>
		<text transform="matrix(1 0 0 1 329.8032 82.3369)" fill="#232120" font-family="'HelveticaNeue'" font-size="18">1970s</text>
	</g>
	<g>
		<text transform="matrix(1 0 0 1 538.3296 82.3369)" fill="#232120" font-family="'HelveticaNeue'" font-size="18">1980s</text>
	</g>
	<g>
		<text transform="matrix(1 0 0 1 746.8569 82.3369)" fill="#232120" font-family="'HelveticaNeue'" font-size="18">1990s</text>
	</g>
	<g>
		<text transform="matrix(1 0 0 1 955.3843 82.3369)" fill="#232120" font-family="'HelveticaNeue'" font-size="18">2000s</text>
	</g>
</g>
</svg>
