<?xml version="1.0" encoding="utf-8"?>
<!-- Generator: Adobe Illustrator 16.0.0, SVG Export Plug-In . SVG Version: 6.00 Build 0)  -->
<!DOCTYPE svg PUBLIC "-//W3C//DTD SVG 1.1//EN" "http://www.w3.org/Graphics/SVG/1.1/DTD/svg11.dtd">
<svg version="1.1" id="Layer1" xmlns="http://www.w3.org/2000/svg" xmlns:xlink="http://www.w3.org/1999/xlink" x="0px" y="0px"
	 width="1154px" height="2073.417px" viewBox="0 0 1154 2073.417" enable-background="new 0 0 1154 2073.417" xml:space="preserve">
<g id="background">
	<rect x="1.95" y="106.207" fill="#B8B8B8" width="1152.05" height="463.965"/>
	<rect id="background_color" x="1.951" y="570.172" fill="#F1F1F2" width="1152.049" height="398.829"/>
	<rect x="1.95" y="969" fill="#B8B8B8" width="1152.05" height="439.562"/>
	<rect x="1.952" y="1408.562" fill="#F1F1F2" width="1152.048" height="152.42"/>
	<g id="Background">
		<rect x="1.95" y="1560.875" fill="#B8B8B8" width="1152.05" height="417.006"/>
	</g>
</g>
<g id="Technology_Development">
	<g id="Background_8_">
		<g id="Background_5_">
			<g id="field_title_2_">
				<g>
					<g>
						<text transform="matrix(1 0 0 1 856.4053 1609.769)" fill="#232120" font-family="'HelveticaNeueLTStd-Th'" font-size="21">TECHNOLOGY DEVELOPMENT</text>
					</g>
				</g>
			</g>
		</g>
	</g>
	<g id="Connections_1_">
		<path fill="none" stroke="#4C4A49" stroke-width="0.5669" stroke-miterlimit="10" stroke-dasharray="2.8347,5.6693" d="
			M329.309,1762.615c-10.593,0.787-42.017,1.697-37.851-15.697"/>
		<g>
			<path fill="#4C4A49" d="M332.713,1762.306c-1.646-0.477-3.718-1.346-5.032-2.33l1.172,2.617l-0.771,2.76
				C329.235,1764.185,331.151,1763.021,332.713,1762.306z"/>
		</g>
		<path fill="none" stroke="#4C4A49" stroke-width="0.5669" stroke-miterlimit="10" stroke-dasharray="2.8347,5.6693" d="
			M499.786,1614.613c-14.214-8.578-78.758-42.619-145.424,0.961"/>
		<g>
			<path fill="#4C4A49" d="M502.674,1616.441c-1.044-1.363-2.188-3.289-2.664-4.863l-0.608,2.801l-2.265,1.762
				C498.76,1615.886,500.993,1616.089,502.674,1616.441z"/>
		</g>
		<path fill="none" stroke="#4C4A49" stroke-width="0.5669" stroke-miterlimit="10" stroke-dasharray="2.8347,5.6693" d="
			M681.726,1608.775c-29.561-10.141-254.697-83.338-360.003,1.127"/>
		<g>
			<path fill="#4C4A49" d="M684.952,1609.902c-1.334-1.082-2.9-2.688-3.729-4.107l0.062,2.867l-1.787,2.242
				C681.017,1610.277,683.235,1609.951,684.952,1609.902z"/>
		</g>
		<path fill="none" stroke="#4C4A49" stroke-width="0.5669" stroke-miterlimit="10" stroke-dasharray="2.8347,5.6693" d="
			M681.729,1620.771c-14.817-5.01-76.944-23.85-106.971,1.133"/>
		<g>
			<path fill="#4C4A49" d="M684.952,1621.904c-1.324-1.094-2.875-2.715-3.688-4.145l0.033,2.867l-1.809,2.227
				C681.013,1622.242,683.235,1621.937,684.952,1621.904z"/>
		</g>
		<path fill="none" stroke="#4C4A49" stroke-width="0.5669" stroke-miterlimit="10" stroke-dasharray="2.8347,5.6693" d="
			M717.097,1661.525c-9.014,153.938,4.437,200.406,2.521,193.916"/>
		<g>
			<path fill="#4C4A49" d="M717.3,1658.109c-0.672,1.58-1.785,3.525-2.922,4.715l2.74-0.85l2.646,1.102
				C718.745,1661.789,717.819,1659.746,717.3,1658.109z"/>
		</g>
		<path fill="none" stroke="#4C4A49" stroke-width="0.5669" stroke-miterlimit="10" stroke-dasharray="2.8347,5.6693" d="
			M401.573,1833.279c-9.895-0.217-37.835-3.252-37.835-30.633"/>
		<g>
			<path fill="#4C4A49" d="M404.993,1833.242c-1.607-0.604-3.604-1.629-4.836-2.713l0.966,2.697l-0.985,2.691
				C401.38,1834.845,403.381,1833.833,404.993,1833.242z"/>
		</g>
		<path fill="none" stroke="#4C4A49" stroke-width="0.5669" stroke-miterlimit="10" stroke-dasharray="2.8347,5.6693" d="
			M489.391,1879.101c-11.899,0.434-50.841,1.113-50.841-8.455"/>
		<g>
			<path fill="#4C4A49" d="M492.806,1878.953c-1.63-0.541-3.658-1.492-4.936-2.527l1.066,2.66l-0.885,2.73
				C489.256,1880.691,491.217,1879.605,492.806,1878.953z"/>
		</g>
		<path fill="none" stroke="#4C4A49" stroke-width="0.5669" stroke-miterlimit="10" stroke-dasharray="2.8347,5.6693" d="
			M579.3,1899.777c-10.893,0.631-44.133,1.58-44.133-10.334"/>
		<g>
			<path fill="#4C4A49" d="M582.71,1899.542c-1.641-0.504-3.693-1.408-4.992-2.414l1.129,2.635l-0.817,2.748
				C579.202,1901.363,581.138,1900.23,582.71,1899.542z"/>
		</g>
		<path fill="none" stroke="#4C4A49" stroke-width="0.5669" stroke-miterlimit="10" stroke-dasharray="2.8347,5.6693" d="
			M684.212,1901.701c-11.014,5.598-49.336,23.15-68.484,7.076"/>
		<g>
			<path fill="#4C4A49" d="M687.235,1900.105c-1.705,0.209-3.947,0.225-5.543-0.166l2.104,1.943l0.375,2.844
				C684.774,1903.199,686.079,1901.375,687.235,1900.105z"/>
		</g>
		<path fill="none" stroke="#4C4A49" stroke-width="0.5669" stroke-miterlimit="10" d="M522.314,1811.378
			c-1.147-12.133-3.767-52.75,12.296-55.834"/>
		<g>
			<path fill="#4C4A49" d="M522.674,1814.775c0.453-1.656,1.293-3.734,2.26-5.064l-2.601,1.209l-2.771-0.734
				C520.747,1811.324,521.938,1813.224,522.674,1814.775z"/>
		</g>
		<g>
			<path fill="#4C4A49" d="M538.032,1755.443c-1.58,0.672-3.527,1.781-4.715,2.92l0.85-2.738l-1.103-2.646
				C534.354,1753.998,536.396,1754.923,538.032,1755.443z"/>
		</g>
		<path fill="none" stroke="#4C4A49" stroke-width="0.5669" stroke-miterlimit="10" d="M504.954,1647.183
			c-8.347,16.146-43.488,91.707,29.656,92.285"/>
		<g>
			<path fill="#4C4A49" d="M506.568,1644.169c-1.28,1.145-3.116,2.434-4.649,3.02l2.84,0.398l1.929,2.123
				C506.313,1648.115,506.343,1645.873,506.568,1644.169z"/>
		</g>
		<g>
			<path fill="#4C4A49" d="M538.032,1739.443c-1.617,0.576-3.627,1.568-4.879,2.633l1.01-2.684l-0.941-2.707
				C534.446,1737.781,536.431,1738.826,538.032,1739.443z"/>
		</g>
		<path fill="none" stroke="#4C4A49" stroke-width="0.5669" stroke-miterlimit="10" d="M539.388,1665.242
			c-0.088-3.811-0.334-10.398-1.01-17.666"/>
		<g>
			<path fill="#4C4A49" d="M539.438,1668.662c0.561-1.625,1.528-3.646,2.579-4.908l-2.672,1.039l-2.719-0.912
				C537.737,1665.093,538.802,1667.066,539.438,1668.662z"/>
		</g>
		<g>
			<path fill="#4C4A49" d="M538.032,1644.169c0.735,1.553,1.928,3.453,3.11,4.592l-2.771-0.734l-2.6,1.209
				C536.739,1647.906,537.579,1645.826,538.032,1644.169z"/>
		</g>
		<path fill="none" stroke="#4C4A49" stroke-width="0.5669" stroke-miterlimit="10" d="M500.938,1813.833
			c-11.721-20.318-76.573-140.238-1.271-183.414"/>
		<g>
			<path fill="#4C4A49" d="M502.674,1816.775c-0.288-1.693-0.402-3.934-0.089-5.545l-1.847,2.191l-2.822,0.504
				C499.47,1814.46,501.353,1815.679,502.674,1816.775z"/>
		</g>
		<g>
			<path fill="#4C4A49" d="M502.674,1628.775c-1.117,1.305-2.369,3.166-2.927,4.711l-0.457-2.832l-2.161-1.883
				C498.735,1629.115,500.978,1629.035,502.674,1628.775z"/>
		</g>
		<path fill="none" stroke="#4C4A49" stroke-width="0.5669" stroke-miterlimit="10" d="M603.726,1846.648
			c2.076-10.174,9.017-42.246,20.938-78.979"/>
		<g>
			<path fill="#4C4A49" d="M603.06,1850c0.906-1.459,2.308-3.213,3.609-4.211l-2.836,0.418l-2.447-1.494
				C602.196,1846.142,602.796,1848.302,603.06,1850z"/>
		</g>
		<g>
			<path fill="#4C4A49" d="M625.729,1764.416c0.084,1.715,0.451,3.928,1.109,5.434l-2.275-1.738l-2.864,0.113
				C623.099,1767.369,624.673,1765.771,625.729,1764.416z"/>
		</g>
		<path fill="none" stroke="#4C4A49" stroke-width="0.5669" stroke-miterlimit="10" d="M701.188,1852.025
			c-0.317-15.691-3.696-80.705-37.688-95.289"/>
		<g>
			<path fill="#4C4A49" d="M701.218,1855.441c0.582-1.615,1.582-3.623,2.648-4.871l-2.688,1.002l-2.705-0.949
				C699.567,1851.849,700.604,1853.837,701.218,1855.441z"/>
		</g>
		<g>
			<path fill="#4C4A49" d="M660.284,1755.541c1.717,0.018,3.947-0.221,5.49-0.785l-1.875,2.168l-0.056,2.867
				C663.075,1758.339,661.575,1756.673,660.284,1755.541z"/>
		</g>
		<path fill="none" stroke="#4C4A49" stroke-width="0.5669" stroke-miterlimit="10" d="M683.323,1632.839
			c-12.992,2.729-61.117,14.096-97.818,39.521"/>
		<g>
			<path fill="#4C4A49" d="M686.675,1632.169c-1.699-0.242-3.867-0.816-5.307-1.609l1.521,2.43l-0.383,2.842
				C683.491,1634.513,685.229,1633.093,686.675,1632.169z"/>
		</g>
		<g>
			<path fill="#4C4A49" d="M582.71,1674.337c0.996-1.396,2.076-3.363,2.494-4.953l0.707,2.779l2.322,1.682
				C586.604,1673.648,584.378,1673.927,582.71,1674.337z"/>
		</g>
		<path fill="none" stroke="#4C4A49" stroke-width="0.5669" stroke-miterlimit="10" d="M683.446,1645.291
			c-14.771,5.408-75.187,30.504-76.386,77.955"/>
		<g>
			<path fill="#4C4A49" d="M686.675,1644.169c-1.717-0.033-3.938-0.336-5.463-0.945l1.813,2.225l-0.033,2.865
				C683.804,1646.886,685.354,1645.265,686.675,1644.169z"/>
		</g>
		<g>
			<path fill="#4C4A49" d="M607.079,1726.669c-0.58-1.615-1.578-3.625-2.646-4.873l2.688,1.004l2.707-0.947
				C608.733,1723.08,607.692,1725.066,607.079,1726.669z"/>
		</g>
		<path fill="none" stroke="#4C4A49" stroke-width="0.5669" stroke-miterlimit="10" d="M891.071,1746.056
			c-19.42-8.105-122.021-52.322-129.07-84.545"/>
		<g>
			<path fill="#4C4A49" d="M894.231,1747.359c-1.242-1.188-2.677-2.912-3.388-4.395l-0.17,2.861l-1.963,2.09
				C890.278,1747.417,892.517,1747.271,894.231,1747.359z"/>
		</g>
		<g>
			<path fill="#4C4A49" d="M761.62,1658.109c0.791,1.521,2.051,3.381,3.274,4.475l-2.799-0.633l-2.555,1.301
				C760.462,1661.89,761.229,1659.781,761.62,1658.109z"/>
		</g>
		<path fill="none" stroke="#4C4A49" stroke-width="0.5669" stroke-miterlimit="10" d="M666.235,1746.917
			c0,0,134.25-7.975,224.692,15.912"/>
		<g>
			<path fill="#4C4A49" d="M894.231,1763.72c-1.707,0.195-3.894,0.707-5.353,1.459l1.592-2.385l-0.303-2.855
				C891.114,1761.289,892.813,1762.755,894.231,1763.72z"/>
		</g>
		<path fill="none" stroke="#4C4A49" stroke-width="0.5669" stroke-miterlimit="10" d="M219.137,1838.304
			C249,1812.208,329.63,1774.66,329.63,1774.66"/>
		<g>
			<path fill="#4C4A49" d="M216.21,1840.068c1.689-0.313,3.927-0.457,5.543-0.162l-2.217-1.818l-0.541-2.811
				C218.483,1836.833,217.288,1838.732,216.21,1840.068z"/>
		</g>
		<g>
			<path fill="#4C4A49" d="M332.713,1773.169c-1.162,1.266-2.478,3.08-3.09,4.604l-0.357-2.846l-2.095-1.957
				C328.765,1773.371,331.008,1773.371,332.713,1773.169z"/>
		</g>
		<path fill="none" stroke="#4C4A49" stroke-width="0.5669" stroke-miterlimit="10" d="M238.015,1869.207
			c55.402,17.486,795.705,244.428,505.078-208.217"/>
		<g>
			<path fill="#4C4A49" d="M234.759,1868.169c1.367,1.039,2.983,2.594,3.854,3.986l-0.15-2.863l1.716-2.297
				C238.68,1867.669,236.473,1868.066,234.759,1868.169z"/>
		</g>
		<g>
			<path fill="#4C4A49" d="M741.235,1658.109c1.356,1.049,3.284,2.201,4.854,2.678l-2.803,0.604l-1.767,2.262
				C741.78,1662.025,741.583,1659.791,741.235,1658.109z"/>
		</g>
		<path fill="none" stroke="#4C4A49" stroke-width="0.5669" stroke-miterlimit="10" d="M247.746,1857.287
			c21.479,8.34,147.784,54.436,251.613,28.246"/>
		<g>
			<path fill="#4C4A49" d="M244.569,1856.027c1.281,1.141,2.773,2.813,3.537,4.27l0.067-2.865l1.89-2.154
				C248.518,1855.83,246.286,1856.054,244.569,1856.027z"/>
		</g>
		<g>
			<path fill="#4C4A49" d="M502.674,1884.669c-1.424,0.961-3.125,2.422-4.074,3.764l0.313-2.852l-1.583-2.393
				C498.787,1883.949,500.969,1884.47,502.674,1884.669z"/>
		</g>
		<path fill="none" stroke="#4C4A49" stroke-width="0.5669" stroke-miterlimit="10" d="M202.37,1869.529
			c38.212,16.307,418.033,171.273,713.817,19.99"/>
		<g>
			<path fill="#4C4A49" d="M199.235,1868.169c1.26,1.168,2.715,2.873,3.446,4.346l0.13-2.865l1.932-2.115
				C203.186,1868.056,200.951,1868.234,199.235,1868.169z"/>
		</g>
		<g>
			<path fill="#4C4A49" d="M919.235,1887.949c-1.175,1.254-2.505,3.059-3.13,4.578l-0.334-2.85l-2.077-1.975
				C915.286,1888.117,917.528,1888.134,919.235,1887.949z"/>
		</g>
	</g>
	<g id="Entities_3_">
		<g id="drscdp">
			<text transform="matrix(1 0 0 1 273.0586 1628.8647)" fill="#232120" font-family="'HelveticaNeue-Italic'" font-size="10">Design Research </text>
			<text transform="matrix(1 0 0 1 273.0586 1643.2651)" fill="#232120" font-family="'HelveticaNeue-Italic'" font-size="10">Society Conference </text>
			<text transform="matrix(1 0 0 1 273.0586 1657.6655)" fill="#232120" font-family="'HelveticaNeue-Italic'" font-size="10">“Design Participation” </text>
			<g>
				<text transform="matrix(1 0 0 1 273.0586 1672.0659)" fill="#77787B" font-family="'HelveticaNeue'" font-size="10">1971</text>
			</g>
		</g>
		<g id="njmfn">
			<text transform="matrix(1 0 0 1 273.0576 1710.2046)" fill="#232120" font-family="'HelveticaNeue-Italic'" font-size="10">NJMF Project</text>
			<text transform="matrix(1 0 0 1 273.0576 1724.605)" fill="#232120" font-family="'HelveticaNeue-Italic'" font-size="10">Norway </text>
			<g>
				<text transform="matrix(1 0 0 1 273.0576 1739.0054)" fill="#77787B" font-family="'HelveticaNeue'" font-size="10">1971 to 1973</text>
			</g>
		</g>
		<g id="demoss">
			<text transform="matrix(1 0 0 1 340.4912 1764.4175)" fill="#232120" font-family="'HelveticaNeue-Italic'" font-size="10">DEMOS Project</text>
			<text transform="matrix(1 0 0 1 340.4912 1778.8179)" fill="#232120" font-family="'HelveticaNeue-Italic'" font-size="10">Sweden</text>
			<g>
				<text transform="matrix(1 0 0 1 340.4912 1793.2163)" fill="#77787B" font-family="'HelveticaNeue'" font-size="10">1975 to 1979</text>
			</g>
		</g>
		<g id="dued">
			<text transform="matrix(1 0 0 1 408.9922 1833.9175)" fill="#232120" font-family="'HelveticaNeue-Italic'" font-size="10">DUE Project</text>
			<text transform="matrix(1 0 0 1 408.9922 1848.3179)" fill="#232120" font-family="'HelveticaNeue-Italic'" font-size="10">Denmark</text>
			<g>
				<text transform="matrix(1 0 0 1 408.9922 1862.7163)" fill="#77787B" font-family="'HelveticaNeue'" font-size="10">1977 to 1980</text>
			</g>
		</g>
		<g id="utopiasd">
			<text transform="matrix(1 0 0 1 497.9922 1835.9175)" fill="#232120" font-family="'HelveticaNeue-Italic'" font-size="10">UTOPIA project</text>
			<text transform="matrix(1 0 0 1 497.9922 1850.3179)" fill="#232120" font-family="'HelveticaNeue-Italic'" font-size="10">Sweden and </text>
			<text transform="matrix(1 0 0 1 497.9922 1864.7163)" fill="#232120" font-family="'HelveticaNeue-Italic'" font-size="10">Denmark</text>
			<g>
				<text transform="matrix(1 0 0 1 497.9922 1879.1167)" fill="#77787B" font-family="'HelveticaNeue'" font-size="10">1981 to 1984</text>
			</g>
		</g>
		<g id="fp">
			<text transform="matrix(1 0 0 1 588.9922 1873.9175)" fill="#232120" font-family="'HelveticaNeue-Italic'" font-size="10">Florence</text>
			<text transform="matrix(1 0 0 1 588.9922 1888.3179)" fill="#232120" font-family="'HelveticaNeue-Italic'" font-size="10">Project </text>
			<g>
				<text transform="matrix(1 0 0 1 588.9922 1902.7163)" fill="#77787B" font-family="'HelveticaNeue'" font-size="10">1984 to1987</text>
			</g>
		</g>
		<g id="atpd">
			<text transform="matrix(1 0 0 1 690.4951 1870.9175)" fill="#232120" font-family="'HelveticaNeue-Italic'" font-size="10">AT Project</text>
			<text transform="matrix(1 0 0 1 690.4951 1885.3179)" fill="#232120" font-family="'HelveticaNeue-Italic'" font-size="10">Denmark</text>
			<g>
				<text transform="matrix(1 0 0 1 690.4951 1899.7163)" fill="#77787B" font-family="'HelveticaNeue'" font-size="10">1990 to present</text>
			</g>
		</g>
		<g id="xparc">
			<text transform="matrix(1 0 0 1 509.9922 1623.9058)" fill="#232120" font-family="'HelveticaNeue-Italic'" font-size="10">PARC</text>
			<g>
				<text transform="matrix(1 0 0 1 509.9922 1638.3062)" fill="#77787B" font-family="'HelveticaNeue'" font-size="10">1980s to present</text>
			</g>
		</g>
		<g id="cpsr">
			<text transform="matrix(1 0 0 1 546.4922 1741.4155)" fill="#232120" font-family="'HelveticaNeue-Italic'" font-size="10">Computer Professionals </text>
			<text transform="matrix(1 0 0 1 546.4922 1755.8159)" fill="#232120" font-family="'HelveticaNeue-Italic'" font-size="10">for Social Responsibility</text>
			<text transform="matrix(1 0 0 1 546.4922 1770.2163)" fill="#232120" font-family="'HelveticaNeue-Italic'" font-size="10">(CPSR)</text>
			<g>
				<text transform="matrix(1 0 0 1 546.4922 1784.6167)" fill="#77787B" font-family="'HelveticaNeue'" font-size="10">1983 to 2013</text>
			</g>
		</g>
		<g id="pdc">
			<text transform="matrix(1 0 0 1 691.4951 1620.9058)" fill="#232120" font-family="'HelveticaNeue-Italic'" font-size="10">Participatory </text>
			<text transform="matrix(1 0 0 1 691.4951 1635.3062)" fill="#232120" font-family="'HelveticaNeue-Italic'" font-size="10">Design Conference</text>
			<g>
				<text transform="matrix(1 0 0 1 691.4951 1649.7046)" fill="#77787B" font-family="'HelveticaNeue'" font-size="10">1990 to present</text>
			</g>
		</g>
		<g id="psp">
			<text transform="matrix(1 0 0 1 898.498 1754.4155)" fill="#232120" font-family="'HelveticaNeue-Italic'" font-size="10">Public Sphere</text>
			<text transform="matrix(1 0 0 1 898.498 1768.8159)" fill="#232120" font-family="'HelveticaNeue-Italic'" font-size="10">Project</text>
			<text transform="matrix(1 0 0 1 927.8076 1768.8159)" fill="#232120" font-family="'HelveticaNeue'" font-size="10"> </text>
			<g>
				<text transform="matrix(1 0 0 1 898.498 1783.2163)" fill="#77787B" font-family="'HelveticaNeue'" font-size="10">2000s to present</text>
			</g>
		</g>
		<g id="sanders">
			<text transform="matrix(1 0 0 1 508.9922 1681.9058)" fill="#232120" font-family="'HelveticaNeue'" font-size="10">Elizabeth B.-N. </text>
			<text transform="matrix(1 0 0 1 508.9922 1696.3062)" fill="#232120" font-family="'HelveticaNeue'" font-size="10">Sanders</text>
			<g>
				<text transform="matrix(1 0 0 1 508.9922 1710.7065)" fill="#77787B" font-family="'HelveticaNeue'" font-size="10">1980s to present</text>
			</g>
		</g>
		<g id="ap">
			<text transform="matrix(1 0 0 1 909.082 1868.1714)" fill="#232120" font-family="'HelveticaNeue-Italic'" font-size="10">Atelier Project</text>
			<g>
				<text transform="matrix(1 0 0 1 909.082 1882.5718)" fill="#77787B" font-family="'HelveticaNeue'" font-size="10">2001 to 2004</text>
			</g>
		</g>
		<g id="ehn">
			<text transform="matrix(1 0 0 1 163.9277 1843.2944)" fill="#232120" font-family="'HelveticaNeue'" font-size="10">Pelle Ehn</text>
			<g>
				<text transform="matrix(1 0 0 1 163.9277 1857.6948)" fill="#77787B" font-family="'HelveticaNeue'" font-size="10">1960s to present</text>
			</g>
		</g>
	</g>
</g>
<g id="Public_Health_1_">
	<g id="Background_4_">
		<g id="field_title_1_">
			<g>
				<text transform="matrix(1 0 0 1 979.2734 1457.062)" fill="#232120" font-family="'HelveticaNeueLTStd-Th'" font-size="21">PUBLIC HEALTH</text>
			</g>
		</g>
	</g>
	<g id="Connections_4_">
		<g opacity="0.8">
			<g>
				<path fill="none" stroke="#4C4A49" stroke-width="0.5669" stroke-miterlimit="10" stroke-dasharray="2.8347,5.6693" d="
					M419.126,1471.287c-8.775,10.025-47.18,44.41-157.509,38.713"/>
				<g>
					<path fill="#4C4A49" d="M421.24,1468.603c-1.479,0.877-3.522,1.793-5.144,2.08l2.711,0.934l1.486,2.451
						C420.233,1472.425,420.694,1470.23,421.24,1468.603z"/>
				</g>
			</g>
		</g>
		<g opacity="0.8">
			<g>
				<path fill="none" stroke="#4C4A49" stroke-width="0.5669" stroke-miterlimit="10" stroke-dasharray="2.8347,5.6693" d="
					M728.118,1468.253c-26.072-2.666-194.748-19.646-247.869-18.205"/>
				<g>
					<path fill="#4C4A49" d="M731.517,1468.603c-1.547-0.744-3.438-1.947-4.567-3.141l0.717,2.775l-1.225,2.592
						C727.771,1469.873,729.856,1469.044,731.517,1468.603z"/>
				</g>
				<g>
					<path fill="#4C4A49" d="M476.828,1450.175c1.599-0.627,3.577-1.682,4.796-2.785l-0.926,2.715l1.021,2.68
						C480.465,1451.724,478.448,1450.742,476.828,1450.175z"/>
				</g>
			</g>
		</g>
		<g opacity="0.8">
			<g>
				<path fill="none" stroke="#4C4A49" stroke-width="0.5669" stroke-miterlimit="10" d="M524.242,1611.578
					c-21.706-11.758-150.972-90.463-282.74-86.891"/>
				<g>
					<path fill="#4C4A49" d="M525.329,1612.212c-1.131-1.293-2.402-3.143-2.978-4.682l-0.428,2.836l-2.143,1.906
						C521.387,1611.916,523.628,1611.97,525.329,1612.212z"/>
				</g>
				<g>
					<path fill="#4C4A49" d="M238.079,1524.798c1.6-0.627,3.578-1.68,4.797-2.781l-0.927,2.713l1.021,2.68
						C241.715,1526.349,239.699,1525.367,238.079,1524.798z"/>
				</g>
			</g>
		</g>
	</g>
	<g id="Entities_4_">
		<g id="wallerstein">
			<g>
				<text transform="matrix(1 0 0 1 380.0532 1462.0386)" fill="#77787B" font-family="'HelveticaNeue'" font-size="10">1970 to present</text>
			</g>
			<text transform="matrix(1 0 0 1 380.0532 1447.6382)" fill="#232120" font-family="'HelveticaNeue'" font-size="10">Minkler &amp; Wallerstein</text>
		</g>
		<g id="cbpr">
			<text transform="matrix(1 0 0 1 744.6221 1461.6323)" fill="#232120" font-family="'HelveticaNeue-Italic'" font-size="10">Community-based </text>
			<text transform="matrix(1 0 0 1 744.6221 1476.0327)" fill="#232120" font-family="'HelveticaNeue-Italic'" font-size="10">Participatory Research</text>
			<text transform="matrix(1 0 0 1 744.6221 1490.4331)" fill="#232120" font-family="'HelveticaNeue-Italic'" font-size="10">(CBPR) Program</text>
			<g>
				<text transform="matrix(1 0 0 1 744.6221 1504.8335)" fill="#77787B" font-family="'HelveticaNeue'" font-size="10">1995 to present</text>
			</g>
		</g>
		<g id="whyte">
			<text transform="matrix(1 0 0 1 161.375 1513.9683)" fill="#232120" font-family="'HelveticaNeue'" font-size="10">William Foote Whyte</text>
			<g>
				<text transform="matrix(1 0 0 1 161.375 1528.3687)" fill="#77787B" font-family="'HelveticaNeue'" font-size="10">1960 to1990s</text>
			</g>
		</g>
	</g>
</g>
<g id="International_Development">
	<g id="Background_2_">
		<g id="Background_3_">
			<g id="field_title">
				<g>
					<text transform="matrix(1 0 0 1 836.9141 1017.9331)" fill="#232120" font-family="'HelveticaNeueLTStd-Th'" font-size="21">INTERNATIONAL DEVELOPMENT</text>
				</g>
			</g>
		</g>
	</g>
	<g id="Connections_2_">
		<path fill="none" stroke="#4C4A49" stroke-width="0.5669" stroke-miterlimit="10" d="M333.18,1207.878
			c-12.839-3.637-59.849-15.914-77.942-6.287"/>
		<g>
			<path fill="#4C4A49" d="M336.461,1208.835c-1.391-1.008-3.042-2.525-3.946-3.896l0.22,2.857l-1.661,2.336
				C332.552,1209.425,334.75,1208.978,336.461,1208.835z"/>
		</g>
		<g>
			<path fill="#4C4A49" d="M251.938,1203.521c1.696-0.271,3.937-0.365,5.546-0.035l-2.176-1.865l-0.477-2.826
				C254.285,1200.339,253.046,1202.21,251.938,1203.521z"/>
		</g>
		<path fill="none" stroke="#4C4A49" stroke-width="0.5669" stroke-miterlimit="10" stroke-dasharray="2.8347,5.6693" d="
			M304.821,1266.32c-9.435-0.148-37.476-4.203-72.377-42.658"/>
		<g>
			<path fill="#4C4A49" d="M308.235,1266.171c-1.63-0.541-3.662-1.49-4.938-2.525l1.069,2.66l-0.88,2.729
				C304.687,1267.914,306.647,1266.824,308.235,1266.171z"/>
		</g>
		<path fill="none" stroke="#4C4A49" stroke-width="0.5669" stroke-miterlimit="10" stroke-dasharray="2.8347,5.6693" d="
			M212.976,1131.025c-3.642,8.545-13.197,33.334-13.197,58.139"/>
		<g>
			<path fill="#4C4A49" d="M214.362,1127.902c-1.188,1.238-2.917,2.668-4.399,3.375l2.861,0.176l2.087,1.967
				C214.412,1131.855,214.27,1129.617,214.362,1127.902z"/>
		</g>
		<path fill="none" stroke="#4C4A49" stroke-width="0.5669" stroke-miterlimit="10" d="M383.132,1236.685
			c6.229,6.207,32.854,21.441,146.538,34.521"/>
		<g>
			<path fill="#4C4A49" d="M381.235,1233.835c0.438,1.66,0.756,3.881,0.586,5.514l1.643-2.35l2.769-0.754
				C384.634,1235.853,382.65,1234.808,381.235,1233.835z"/>
		</g>
		<g>
			<path fill="#4C4A49" d="M533.075,1271.595c-1.67,0.398-3.776,1.17-5.135,2.092l1.294-2.559l-0.646-2.795
				C529.69,1269.556,531.55,1270.808,533.075,1271.595z"/>
		</g>
		<path fill="none" stroke="#4C4A49" stroke-width="0.5669" stroke-miterlimit="10" d="M424.43,1140.048
			c19.22,7.498,119.35,48.561,138.964,97.238"/>
		<g>
			<path fill="#4C4A49" d="M421.237,1138.826c1.285,1.139,2.776,2.811,3.544,4.264l0.063-2.865l1.885-2.158
				C425.185,1138.623,422.954,1138.851,421.237,1138.826z"/>
		</g>
		<g>
			<path fill="#4C4A49" d="M564.567,1240.5c-1.123-1.299-2.777-2.814-4.224-3.596l2.867-0.029l2.186-1.857
				C564.819,1236.554,564.563,1238.783,564.567,1240.5z"/>
		</g>
		<path fill="none" stroke="#4C4A49" stroke-width="0.5669" stroke-miterlimit="10" stroke-dasharray="2.8347,5.6693" d="
			M300.95,1373.216c-13.635-16.443-86.023-106.072-80.571-149.063"/>
		<g>
			<path fill="#4C4A49" d="M303.144,1375.837c-0.548-1.627-1.013-3.822-0.95-5.463l-1.482,2.453l-2.709,0.938
				C299.618,1374.048,301.667,1374.96,303.144,1375.837z"/>
		</g>
		<path fill="none" stroke="#4C4A49" stroke-width="0.5669" stroke-miterlimit="10" stroke-dasharray="2.8347,5.6693" d="
			M369.405,1447.123c-20.548-3.754-128.957-32.453-162.335-223.461"/>
		<g>
			<path fill="#4C4A49" d="M372.784,1447.638c-1.492-0.85-3.299-2.178-4.349-3.441l0.526,2.816l-1.396,2.504
				C368.963,1448.652,371.099,1447.968,372.784,1447.638z"/>
		</g>
		<path fill="none" stroke="#4C4A49" stroke-width="0.5669" stroke-miterlimit="10" stroke-dasharray="2.8347,5.6693" d="
			M424.998,1431.58c-0.125-10.982-3.416-44.254-39.219-37.408"/>
		<g>
			<path fill="#4C4A49" d="M424.928,1435c0.604-1.607,1.637-3.6,2.722-4.834l-2.7,0.963l-2.691-0.988
				C423.329,1431.384,424.339,1433.386,424.928,1435z"/>
		</g>
		<path fill="none" stroke="#4C4A49" stroke-width="0.5669" stroke-miterlimit="10" d="M246.603,1131.158
			c5.481,16.91,31.817,94.734,58.847,116.021"/>
		<g>
			<path fill="#4C4A49" d="M245.565,1127.902c-0.059,1.717-0.394,3.934-1.023,5.447l2.249-1.775l2.865,0.068
				C248.24,1130.812,246.642,1129.24,245.565,1127.902z"/>
		</g>
		<g>
			<path fill="#4C4A49" d="M308.235,1249.171c-1.655-0.459-3.872-0.801-5.507-0.65l2.367-1.613l0.787-2.76
				C306.257,1245.75,307.279,1247.744,308.235,1249.171z"/>
		</g>
		<path fill="none" stroke="#4C4A49" stroke-width="0.5669" stroke-miterlimit="10" d="M381.207,1015.477
			c-0.181,14.099-1.522,68.109-11.495,92.57"/>
		<g>
			<path fill="#4C4A49" d="M381.235,1012.059c-0.625,1.603-1.681,3.58-2.778,4.802l2.712-0.931l2.679,1.021
				C382.79,1015.694,381.805,1013.68,381.235,1012.059z"/>
		</g>
		<g>
			<path fill="#4C4A49" d="M368.31,1111.167c0.104-1.713-0.023-3.953-0.516-5.521l2.075,1.979l2.859,0.193
				C371.242,1108.517,369.505,1109.935,368.31,1111.167z"/>
		</g>
		<path fill="none" stroke="#4C4A49" stroke-width="0.5669" stroke-miterlimit="10" d="M323.589,1078.033
			c2.7,4.314,8.254,13.764,16.157,30.049"/>
		<g>
			<path fill="#4C4A49" d="M321.723,1075.167c0.364,1.68,0.581,3.91,0.342,5.535l1.743-2.273l2.8-0.631
				C325.027,1077.337,323.093,1076.203,321.723,1075.167z"/>
		</g>
		<g>
			<path fill="#4C4A49" d="M341.232,1111.167c-1.257-1.174-3.062-2.504-4.578-3.129l2.848-0.334l1.976-2.078
				C341.065,1107.218,341.047,1109.46,341.232,1111.167z"/>
		</g>
		<path fill="none" stroke="#4C4A49" stroke-width="0.5669" stroke-miterlimit="10" d="M369.807,1162.908
			c1.576,3.398,4.283,9.666,7.573,19.021"/>
		<g>
			<path fill="#4C4A49" d="M368.31,1159.833c0.153,1.711,0.097,3.953-0.349,5.535l2.015-2.041l2.854-0.279
				C371.321,1162.394,369.541,1161.031,368.31,1159.833z"/>
		</g>
		<g>
			<path fill="#4C4A49" d="M378.499,1185.167c-1.109-1.313-2.747-2.844-4.184-3.641h2.864l2.203-1.834
				C378.792,1181.224,378.513,1183.451,378.499,1185.167z"/>
		</g>
		<path fill="none" stroke="#4C4A49" stroke-width="0.5669" stroke-miterlimit="10" d="M296.791,1021.885
			c2.702-8.16,11.907-28.809,36.253-30.59"/>
		<g>
			<path fill="#4C4A49" d="M295.849,1025.172c1.038-1.369,2.594-2.984,3.984-3.854l-2.863,0.149l-2.298-1.715
				C295.347,1021.25,295.744,1023.458,295.849,1025.172z"/>
		</g>
		<g>
			<path fill="#4C4A49" d="M336.461,991.172c-1.582,0.668-3.533,1.773-4.723,2.906l0.854-2.736l-1.093-2.647
				C332.786,989.715,334.826,990.646,336.461,991.172z"/>
		</g>
		<path fill="none" stroke="#4C4A49" stroke-width="0.5669" stroke-miterlimit="10" d="M427.571,1010.333
			c23.367,19.197,193.551,161.254,189.893,223.932"/>
		<g>
			<path fill="#4C4A49" d="M424.925,1008.172c0.861,1.484,1.754,3.543,2.022,5.162l0.963-2.699l2.468-1.459
				C428.736,1009.221,426.547,1008.737,424.925,1008.172z"/>
		</g>
		<g>
			<path fill="#4C4A49" d="M617.079,1237.669c-0.43-1.662-1.242-3.754-2.189-5.096l2.584,1.244l2.779-0.695
				C619.054,1234.244,617.837,1236.128,617.079,1237.669z"/>
		</g>
	</g>
	<g id="Entities_2_">
		<g id="sewa">
			<text transform="matrix(1 0 0 1 329.2349 1304.2095)" fill="#232120" font-family="'HelveticaNeue-Italic'" font-size="10">Self-Employed </text>
			<text transform="matrix(1 0 0 1 329.2349 1318.6099)" fill="#232120" font-family="'HelveticaNeue-Italic'" font-size="10">Women&apos;s Associations </text>
			<text transform="matrix(1 0 0 1 329.2349 1333.0093)" fill="#232120" font-family="'HelveticaNeue-Italic'" font-size="10">(SEWA) in India</text>
			<g>
				<text transform="matrix(1 0 0 1 329.2349 1347.4097)" fill="#77787B" font-family="'HelveticaNeue'" font-size="10">1972 to present</text>
			</g>
		</g>
		<g id="opp-rti">
			<text transform="matrix(1 0 0 1 482.6748 1336.645)" fill="#232120" font-family="'HelveticaNeue-Italic'" font-size="10">Orangi Pilot Project-Research </text>
			<text transform="matrix(1 0 0 1 482.6748 1351.0444)" fill="#232120" font-family="'HelveticaNeue-Italic'" font-size="10">and Training Institute (OPP-RTI)</text>
			<g>
				<text transform="matrix(1 0 0 1 482.6748 1365.4429)" fill="#77787B" font-family="'HelveticaNeue'" font-size="10">1980 to present</text>
			</g>
		</g>
		<g id="freire">
			<text transform="matrix(1 0 0 1 189.9863 1201.5913)" fill="#232120" font-family="'HelveticaNeue'" font-size="10">Paulo Freire</text>
			<g>
				<text transform="matrix(1 0 0 1 189.9863 1215.9907)" fill="#77787B" font-family="'HelveticaNeue'" font-size="10">1960s to 1990s</text>
			</g>
		</g>
		<g id="icae">
			<text transform="matrix(1 0 0 1 344.6362 1199.2046)" fill="#232120" font-family="'HelveticaNeue-Italic'" font-size="10">International Council </text>
			<text transform="matrix(1 0 0 1 344.6362 1213.605)" fill="#232120" font-family="'HelveticaNeue-Italic'" font-size="10">for Adult Education</text>
			<g>
				<text transform="matrix(1 0 0 1 344.6362 1228.0034)" fill="#77787B" font-family="'HelveticaNeue'" font-size="10">1973 to present</text>
			</g>
		</g>
		<g id="spra">
			<text transform="matrix(1 0 0 1 539.2861 1255.1909)" fill="#232120" font-family="'HelveticaNeue-Italic'" font-size="10">Society for Participatory</text>
			<text transform="matrix(1 0 0 1 539.2861 1269.5903)" fill="#232120" font-family="'HelveticaNeue-Italic'" font-size="10">Research in Asia </text>
			<g>
				<text transform="matrix(1 0 0 1 539.2861 1283.9907)" fill="#77787B" font-family="'HelveticaNeue'" font-size="10">1982 to present</text>
			</g>
		</g>
		<g id="fals-borda">
			<text transform="matrix(1 0 0 1 312.147 1381.8804)" fill="#232120" font-family="'HelveticaNeue'" font-size="10">Orlando Fals-Borda</text>
			<g>
				<text transform="matrix(1 0 0 1 312.147 1396.2808)" fill="#77787B" font-family="'HelveticaNeue'" font-size="10">1970 to 2000s</text>
			</g>
		</g>
		<g id="wb">
			<text transform="matrix(1 0 0 1 344.6367 993.1714)" fill="#232120" font-family="'HelveticaNeue-Italic'" font-size="10">World Bank</text>
			<g>
				<text transform="matrix(1 0 0 1 344.6367 1007.5708)" fill="#77787B" font-family="'HelveticaNeue'" font-size="10">1970s to present</text>
			</g>
		</g>
		<g id="bank">
			<text transform="matrix(1 0 0 1 398.9912 1077.1694)" fill="#232120" font-family="'HelveticaNeue-Italic'" font-size="10">Grameen Bank</text>
			<g>
				<text transform="matrix(1 0 0 1 398.9912 1091.5679)" fill="#77787B" font-family="'HelveticaNeue'" font-size="10">1976 to present</text>
			</g>
		</g>
		<g id="uni">
			<text transform="matrix(1 0 0 1 286.4604 1125.1694)" fill="#232120" font-family="'HelveticaNeue-Italic'" font-size="10">United Nations Institutions</text>
			<text transform="matrix(1 0 0 1 286.4604 1139.5698)" fill="#232120" font-family="'HelveticaNeue-Italic'" font-size="10"> (UNDP and UNRISD)</text>
			<g>
				<text transform="matrix(1 0 0 1 286.4604 1153.9683)" fill="#77787B" font-family="'HelveticaNeue'" font-size="10">1970s to present</text>
			</g>
		</g>
		<g id="chambers">
			<text transform="matrix(1 0 0 1 316.4624 1260.5972)" fill="#232120" font-family="'HelveticaNeue'" font-size="10">Robert Chambers</text>
			<g>
				<text transform="matrix(1 0 0 1 316.4624 1274.9966)" fill="#77787B" font-family="'HelveticaNeue'" font-size="10">1970s to present</text>
			</g>
		</g>
		<g id="ids">
			<text transform="matrix(1 0 0 1 194.3633 1075.4468)" fill="#232120" font-family="'HelveticaNeue-Italic'" font-size="10">Institute of </text>
			<text transform="matrix(1 0 0 1 194.3633 1089.8472)" fill="#232120" font-family="'HelveticaNeue-Italic'" font-size="10">Development </text>
			<text transform="matrix(1 0 0 1 194.3633 1104.2456)" fill="#232120" font-family="'HelveticaNeue-Italic'" font-size="10">Studies </text>
			<g>
				<text transform="matrix(1 0 0 1 194.3633 1118.646)" fill="#77787B" font-family="'HelveticaNeue'" font-size="10">1966 to present</text>
			</g>
		</g>
		<g id="do">
			<text transform="matrix(1 0 0 1 279.0156 1038.1694)" fill="#232120" font-family="'HelveticaNeue-Italic'" font-size="10">Donor Organizations </text>
			<text transform="matrix(1 0 0 1 279.0156 1052.5698)" fill="#232120" font-family="'HelveticaNeue-Italic'" font-size="10">(USAID, SIDA, DFID)</text>
			<g>
				<text transform="matrix(1 0 0 1 279.0156 1066.9683)" fill="#77787B" font-family="'HelveticaNeue'" font-size="10">1970s to present</text>
			</g>
		</g>
	</g>
</g>
<g id="Youth_Development">
	<g id="Background_7_">
		<g id="Background_6_">
			<g id="field_name">
				<g>
					<text transform="matrix(1 0 0 1 915.9297 619.7202)" fill="#232120" font-family="'HelveticaNeueLTStd-Th'" font-size="21">YOUTH DEVELOPMENT</text>
				</g>
			</g>
		</g>
	</g>
	<g id="Connections_6_">
		<g>
			<path fill="#4C4A49" d="M554.517,449.838c-1.086,1.33-2.293,3.22-2.813,4.778l-0.521-2.819l-2.207-1.832
				C550.587,450.27,552.825,450.138,554.517,449.838z"/>
		</g>
		<g>
			<path fill="#4C4A49" d="M1040.567,773.686c-1.433,0.952-3.431,1.974-5.027,2.342l2.754,0.794l1.609,2.373
				C1039.757,777.555,1040.104,775.339,1040.567,773.686z"/>
		</g>
		<g>
			<path fill="#4C4A49" d="M987.235,741.556c-1.609-0.6-3.787-1.133-5.433-1.125l2.5-1.401l1.021-2.681
				C985.56,737.975,986.405,740.052,987.235,741.556z"/>
		</g>
		<g>
			<path fill="#4C4A49" d="M739.29,953c-1.639-0.514-3.688-1.428-4.979-2.441l1.111,2.646l-0.834,2.742
				C735.771,954.801,737.712,953.68,739.29,953z"/>
		</g>
		<g>
			<path fill="#4C4A49" d="M372.784,1457.144c-1.624-0.561-3.646-1.529-4.908-2.582l1.039,2.676l-0.911,2.717
				C369.216,1458.845,371.188,1457.779,372.784,1457.144z"/>
		</g>
		<g>
			<path fill="#4C4A49" d="M238.076,456.927c-0.152,1.71-0.091,3.952,0.353,5.534l-2.016-2.039l-2.854-0.278
				C235.066,459.49,236.846,458.124,238.076,456.927z"/>
		</g>
		<g>
			<path fill="#4C4A49" d="M381.238,983c1.432-0.949,3.433-1.961,5.034-2.324l-2.753-0.803l-1.604-2.377
				C382.06,979.133,381.705,981.348,381.238,983z"/>
		</g>
		<g>
			<path fill="#4C4A49" d="M634.386,497.774c0.646,1.593,1.717,3.562,2.83,4.77l-2.723-0.9l-2.668,1.052
				C632.87,501.425,633.835,499.4,634.386,497.774z"/>
		</g>
		<path fill="none" stroke="#4C4A49" stroke-width="0.5669" stroke-miterlimit="10" stroke-dasharray="2.8347,5.6693" d="
			M291.235,551.172c0,0,39.109,34.137,94.597,90.154"/>
		<g>
			<path fill="#4C4A49" d="M388.238,643.759c-1.564-0.708-3.701-1.389-5.341-1.493l2.59-1.229l1.204-2.604
				C386.813,640.072,387.514,642.202,388.238,643.759z"/>
		</g>
		<path fill="none" stroke="#4C4A49" stroke-width="0.5669" stroke-miterlimit="10" d="M374.392,737.755
			c-11.716-20.444-69.492-145.729,177.142-286.223"/>
		<g>
			<path fill="#4C4A49" d="M376.184,740.667c-0.311-1.689-0.455-3.927-0.16-5.543l-1.817,2.218l-2.815,0.542
				C372.949,738.394,374.847,739.589,376.184,740.667z"/>
		</g>
		<g>
			<path fill="#4C4A49" d="M783.971,593.04c-1.072-1.341-2.667-2.917-4.082-3.753l2.866,0.082l2.254-1.774
				C784.373,589.107,784.033,591.323,783.971,593.04z"/>
		</g>
		<path fill="none" stroke="#4C4A49" stroke-width="0.5669" stroke-miterlimit="10" d="M625.722,442.434
			c22.778-3.308,117.192,31.196,157.214,147.396"/>
		<g>
			<path fill="#4C4A49" d="M622.258,443.373c1.709,0.166,3.9,0.641,5.374,1.368l-1.633-2.356l0.251-2.856
				C625.333,440.887,623.662,442.383,622.258,443.373z"/>
		</g>
		<path fill="none" stroke="#4C4A49" stroke-width="0.5669" stroke-miterlimit="10" d="M604.212,811.31
			C584.185,798.301,464.775,720.584,423.98,690.4"/>
		<g>
			<path fill="#4C4A49" d="M607.079,813.17c-1.021-1.382-2.133-3.329-2.576-4.911l-0.662,2.79l-2.293,1.72
				C603.175,812.544,605.405,812.787,607.079,813.17z"/>
		</g>
		<g>
			<path fill="#4C4A49" d="M421.237,688.354c1.652,0.456,3.872,0.8,5.508,0.646l-2.368,1.617l-0.784,2.757
				C423.219,691.773,422.194,689.778,421.237,688.354z"/>
		</g>
		<path fill="none" stroke="#4C4A49" stroke-width="0.5669" stroke-miterlimit="10" d="M399.794,730.308
			c1.322-6.407,3.231-21.041-2.949-34.531"/>
		<g>
			<path fill="#4C4A49" d="M398.989,733.631c0.953-1.429,2.405-3.137,3.742-4.092l-2.851,0.326l-2.396-1.572
				C398.25,729.748,398.78,731.927,398.989,733.631z"/>
		</g>
		<g>
			<path fill="#4C4A49" d="M395.292,692.721c1.255,1.172,3.062,2.501,4.581,3.125l-2.848,0.335l-1.977,2.08
				C395.463,696.67,395.479,694.428,395.292,692.721z"/>
		</g>
		<path fill="none" stroke="#4C4A49" stroke-width="0.5669" stroke-miterlimit="10" d="M286.952,685.886
			c2.952,20.331,18.148,126.95,18.92,172.38"/>
		<g>
			<path fill="#4C4A49" d="M286.458,682.504c-0.376,1.676-1.117,3.792-2.021,5.164l2.54-1.329l2.803,0.604
				C288.544,685.861,287.266,684.019,286.458,682.504z"/>
		</g>
		<g>
			<path fill="#4C4A49" d="M305.902,861.689c-0.635-1.6-1.696-3.571-2.805-4.785l2.72,0.916l2.673-1.035
				C307.438,858.047,306.464,860.066,305.902,861.689z"/>
		</g>
		<path fill="none" stroke="#4C4A49" stroke-width="0.5669" stroke-miterlimit="10" d="M777.729,882.096
			c-35.219-0.854-331.035-10.845-342.858-105"/>
		<g>
			<path fill="#4C4A49" d="M781.144,882.168c-1.592-0.645-3.559-1.719-4.766-2.834l0.896,2.723l-1.054,2.666
				C777.491,883.68,779.519,882.719,781.144,882.168z"/>
		</g>
		<g>
			<path fill="#4C4A49" d="M434.566,773.686c0.76,1.54,1.979,3.425,3.18,4.543l-2.782-0.69l-2.581,1.247
				C433.329,777.44,434.138,775.348,434.566,773.686z"/>
		</g>
		<path fill="none" stroke="#4C4A49" stroke-width="0.5669" stroke-miterlimit="10" d="M735.874,923.963
			c-260.289-16.105-320.993-124.908-330.006-144.924"/>
		<g>
			<path fill="#4C4A49" d="M739.29,924.168c-1.563-0.713-3.482-1.873-4.639-3.039l0.774,2.76l-1.166,2.617
				C735.575,925.52,737.642,924.646,739.29,924.168z"/>
		</g>
		<g>
			<path fill="#4C4A49" d="M404.567,775.878c1.182,1.246,2.9,2.683,4.383,3.397l-2.863,0.159l-2.096,1.956
				C404.498,779.83,404.65,777.593,404.567,775.878z"/>
		</g>
		<path fill="none" stroke="#4C4A49" stroke-width="0.5669" stroke-miterlimit="10" d="M729.5,692.085
			c-1.758,10.198,2.333,48.638-31.358,49.103"/>
		<g>
			<path fill="#4C4A49" d="M753.313,692.085c-0.806,1.519-2.072,3.367-3.308,4.454l2.801-0.617l2.55,1.318
				C754.444,695.872,753.694,693.759,753.313,692.085z"/>
		</g>
		<g>
			<path fill="#4C4A49" d="M729.872,690.085c-0.806,1.519-2.072,3.367-3.308,4.454l2.801-0.617l2.55,1.318
				C731.004,693.872,730.254,691.759,729.872,690.085z"/>
		</g>
		<g>
			<path fill="#4C4A49" d="M694.739,741.556c1.53-0.777,3.396-2.021,4.502-3.237l-0.656,2.791l1.281,2.562
				C698.511,742.743,696.407,741.962,694.739,741.556z"/>
		</g>
		<path fill="none" stroke="#4C4A49" stroke-width="0.5669" stroke-miterlimit="10" d="M809.2,626.737
			c12.731,15.087,74.115,96.15,47.272,228.848"/>
		<g>
			<path fill="#4C4A49" d="M806.944,624.17c0.598,1.609,1.131,3.788,1.12,5.431l1.404-2.5l2.68-1.021
				C810.524,625.847,808.448,625,806.944,624.17z"/>
		</g>
		<g>
			<path fill="#4C4A49" d="M855.78,858.939c-0.283-1.693-0.908-3.851-1.736-5.27l2.465,1.465l2.83-0.447
				C858.046,855.701,856.669,857.471,855.78,858.939z"/>
		</g>
		<path fill="none" stroke="#4C4A49" stroke-width="0.5669" stroke-miterlimit="10" d="M1038.583,776.468
			c-14.34,19.771-104.857,138.945-220.66,164.105"/>
		<g>
			<path fill="#4C4A49" d="M814.567,941.274c1.436-0.943,3.151-2.388,4.118-3.718l-0.348,2.849l1.557,2.409
				C818.446,942.04,816.271,941.495,814.567,941.274z"/>
		</g>
		<path fill="none" stroke="#4C4A49" stroke-width="0.5669" stroke-miterlimit="10" d="M417.15,635.691
			c9.854-7.029,60.502-26.284,318.718-21.586"/>
		<g>
			<path fill="#4C4A49" d="M414.793,638.17c1.556-0.727,3.684-1.434,5.322-1.558l-2.604-1.199l-1.232-2.587
				C416.175,634.466,415.498,636.604,414.793,638.17z"/>
		</g>
		<g>
			<path fill="#4C4A49" d="M739.29,614.17c-1.617,0.577-3.629,1.57-4.881,2.634l1.01-2.684l-0.938-2.708
				C735.704,612.508,737.688,613.552,739.29,614.17z"/>
		</g>
		<path fill="none" stroke="#4C4A49" stroke-width="0.5669" stroke-miterlimit="10" d="M752.68,694.663
			c0,0-4.407,127.134-57.797,137.038"/>
		<g>
			<path fill="#4C4A49" d="M691.491,832.169c1.506-0.827,3.332-2.129,4.396-3.379l-0.565,2.811l1.356,2.523
				C695.298,833.238,693.173,832.523,691.491,832.169z"/>
		</g>
		<path fill="none" stroke="#4C4A49" stroke-width="0.5669" stroke-miterlimit="10" d="M424.624,673.162
			c17.684,8.478,107.813,50.27,169.203,51.833"/>
		<g>
			<path fill="#4C4A49" d="M421.55,671.67c1.206,1.222,2.586,2.991,3.251,4.493l0.257-2.856l2.023-2.027
				C425.502,671.731,423.261,671.81,421.55,671.67z"/>
		</g>
		<g>
			<path fill="#4C4A49" d="M597.249,725.039c-1.623,0.559-3.646,1.53-4.908,2.58l1.039-2.672l-0.91-2.719
				C593.683,723.337,595.655,724.404,597.249,725.039z"/>
		</g>
		<path fill="none" stroke="#4C4A49" stroke-width="0.5669" stroke-miterlimit="10" d="M433.326,643.34
			c38.411-4.585,393.101-42.606,551.349,95.942"/>
		<g>
			<path fill="#4C4A49" d="M429.935,643.76c1.667,0.414,3.769,1.204,5.116,2.142l-1.27-2.571l0.668-2.788
				C433.339,641.751,431.468,642.987,429.935,643.76z"/>
		</g>
		<path fill="none" stroke="#4C4A49" stroke-width="0.5669" stroke-miterlimit="10" d="M429.606,659.546
			c18.361,0.202,110.646,2.029,274.221,18.597"/>
		<g>
			<path fill="#4C4A49" d="M426.189,659.521c1.6,0.621,3.577,1.677,4.8,2.774l-0.933-2.712l1.021-2.679
				C429.823,657.966,427.81,658.952,426.189,659.521z"/>
		</g>
		<g>
			<path fill="#4C4A49" d="M707.235,678.489c-1.66,0.438-3.746,1.266-5.08,2.223l1.227-2.591l-0.715-2.776
				C703.798,676.537,705.688,677.742,707.235,678.489z"/>
		</g>
		<path fill="none" stroke="#4C4A49" stroke-width="0.5669" stroke-miterlimit="10" stroke-dasharray="2.8347,5.6693" d="
			M735.88,953.209c-22.221,1.059-153.238,2.84-399.416-81.571"/>
		<path fill="none" stroke="#4C4A49" stroke-width="0.5669" stroke-miterlimit="10" stroke-dasharray="2.8347,5.6693" d="
			M735.872,939.264c-45.039-0.104-519.816-9.811-497.793-372.092"/>
		<g>
			<path fill="#4C4A49" d="M739.29,939.252c-1.609-0.598-3.607-1.617-4.846-2.697l0.975,2.697l-0.975,2.695
				C735.683,940.868,737.679,939.848,739.29,939.252z"/>
		</g>
		<path fill="none" stroke="#4C4A49" stroke-width="0.5669" stroke-miterlimit="10" stroke-dasharray="2.8347,5.6693" d="
			M369.369,1457.244c-37.166,0.135-361.009-23.076-145.833-890.072"/>
		<path fill="none" stroke="#4C4A49" stroke-width="0.5669" stroke-miterlimit="10" stroke-dasharray="2.8347,5.6693" d="
			M161.375,1499c0,0-179.642-513.989,75.202-1038.995"/>
		<path fill="none" stroke="#4C4A49" stroke-width="0.5669" stroke-miterlimit="10" d="M735.927,599.124
			c-31.131-5.434-271.688-43.528-440.078,44.636"/>
		<g>
			<path fill="#4C4A49" d="M739.29,599.73c-1.488-0.858-3.285-2.198-4.326-3.473l0.51,2.821l-1.409,2.494
				C735.462,600.719,737.604,600.049,739.29,599.73z"/>
		</g>
		<path fill="none" stroke="#4C4A49" stroke-width="0.5669" stroke-miterlimit="10" d="M383.268,980.25
			c24.095-32.764,254.526-349.653,251.266-479.055"/>
		<path fill="none" stroke="#4C4A49" stroke-width="0.5669" stroke-miterlimit="10" d="M298.567,678.489
			c0,0,7.102,51.021,71.042,77.718"/>
		<g>
			<path fill="#4C4A49" d="M372.78,757.492c-1.716-0.068-3.952,0.104-5.511,0.625l1.938-2.113l0.137-2.864
				C370.072,754.613,371.523,756.322,372.78,757.492z"/>
		</g>
		<path fill="none" stroke="#4C4A49" stroke-width="0.5669" stroke-miterlimit="10" d="M646.628,790.98
			c1.146-5.069,2.346-15.755-2.486-30.265"/>
		<g>
			<path fill="#4C4A49" d="M645.673,794.264c1.006-1.393,2.521-3.047,3.889-3.953l-2.854,0.225l-2.34-1.658
				C645.075,790.356,645.526,792.553,645.673,794.264z"/>
		</g>
		<g>
			<path fill="#4C4A49" d="M642.989,757.492c1.098,1.322,2.719,2.87,4.146,3.681l-2.866-0.028l-2.224,1.813
				C642.657,761.431,642.96,759.209,642.989,757.492z"/>
		</g>
		<path fill="none" stroke="#4C4A49" stroke-width="0.5669" stroke-miterlimit="10" d="M801.188,897.969
			c-4.013,4.907-5.517,7.171-13.405,18.144"/>
		<g>
			<path fill="#4C4A49" d="M803.69,895.633c-1.568,0.701-3.707,1.373-5.351,1.471l2.584,1.24l1.193,2.607
				C802.248,899.309,802.957,897.193,803.69,895.633z"/>
		</g>
		<g>
			<path fill="#4C4A49" d="M786.479,918.059c0.467-1.651,0.817-3.864,0.676-5.504l1.604,2.375l2.753,0.804
				C789.908,916.096,787.912,917.11,786.479,918.059z"/>
		</g>
	</g>
	<g id="Entities">
		<g id="cpcs">
			<text transform="matrix(1 0 0 1 994.0918 745.5845)" fill="#232120" font-family="'HelveticaNeue-Italic'" font-size="10">&quot;Children Participation </text>
			<text transform="matrix(1 0 0 1 994.0918 759.9849)" fill="#232120" font-family="'HelveticaNeue-Italic'" font-size="10"> </text>
			<text transform="matrix(1 0 0 1 996.2119 759.9849)" fill="#232120" font-family="'HelveticaNeue-Italic'" font-size="10"> </text>
			<text transform="matrix(1 0 0 1 997.5322 759.9849)" fill="#232120" font-family="'HelveticaNeue-Italic'" font-size="10">in Community Settings&quot; </text>
			<text transform="matrix(1 0 0 1 994.0918 774.3853)" fill="#7D7D7D" font-family="'HelveticaNeue'" font-size="10">  </text>
			<g>
				<text transform="matrix(1 0 0 1 998.3311 774.3853)" fill="#77787B" font-family="'HelveticaNeue'" font-size="10">2000</text>
			</g>
		</g>
		<g id="lynch">
			<text transform="matrix(1 0 0 1 255.1631 659.519)" font-family="'HelveticaNeue'" font-size="10">Kevin Lynch </text>
			<g>
				<text transform="matrix(1 0 0 1 255.1631 673.9194)" fill="#77787B" font-family="'HelveticaNeue'" font-size="10">1960 to 1980s</text>
			</g>
		</g>
		<g id="guc_1_">
			<text transform="matrix(1 0 0 1 280.2378 871.6392)" fill="#232120" font-family="'HelveticaNeue-Italic'" font-size="10">Growing up</text>
			<text transform="matrix(1 0 0 1 280.2378 886.0386)" fill="#232120" font-family="'HelveticaNeue-Italic'" font-size="10"> in Cities </text>
			<g>
				<text transform="matrix(1 0 0 1 280.2378 900.439)" fill="#77787B" font-family="'HelveticaNeue'" font-size="10">1977 to 1980s</text>
			</g>
		</g>
		<g id="chawla">
			<g>
				<text transform="matrix(1 0 0 1 746.9443 943.2632)" fill="#77787B" font-family="'HelveticaNeue'" font-size="10">1990s to </text>
			</g>
			<g>
				<text transform="matrix(1 0 0 1 746.9443 957.6626)" fill="#77787B" font-family="'HelveticaNeue'" font-size="10">present</text>
			</g>
			<text transform="matrix(1 0 0 1 746.9443 928.8628)" font-family="'HelveticaNeue'" font-size="10">Louise Chawla</text>
		</g>
		<g id="crc">
			<text transform="matrix(1 0 0 1 615.7295 805.8198)" fill="#232120" font-family="'HelveticaNeue-Italic'" font-size="10">Convention on </text>
			<text transform="matrix(1 0 0 1 615.7295 820.2183)" fill="#232120" font-family="'HelveticaNeue-Italic'" font-size="10">the Rights of </text>
			<text transform="matrix(1 0 0 1 615.7295 834.6187)" fill="#232120" font-family="'HelveticaNeue-Italic'" font-size="10">the Child</text>
			<g>
				<text transform="matrix(1 0 0 1 615.7295 849.0181)" fill="#77787B" font-family="'HelveticaNeue'" font-size="10">1989 to present</text>
			</g>
		</g>
		<g id="unicef_irc">
			<text transform="matrix(1 0 0 1 607.0811 719.4878)" fill="#232120" font-family="'HelveticaNeue-Italic'" font-size="10">UNICEF Innocenti</text>
			<text transform="matrix(1 0 0 1 607.0811 733.8892)" fill="#232120" font-family="'HelveticaNeue-Italic'" font-size="10">Research Centre</text>
			<g>
				<text transform="matrix(1 0 0 1 607.0811 748.2886)" fill="#77787B" font-family="'HelveticaNeue'" font-size="10">1988 to present</text>
			</g>
		</g>
		<g id="hart">
			<text transform="matrix(1 0 0 1 372.7837 654.3511)" fill="#232120" font-family="'HelveticaNeue'" font-size="10">Roger Hart</text>
			<g>
				<text transform="matrix(1 0 0 1 372.7837 668.7515)" fill="#77787B" font-family="'HelveticaNeue'" font-size="10">1970s to </text>
			</g>
			<g>
				<text transform="matrix(1 0 0 1 372.7837 683.1499)" fill="#77787B" font-family="'HelveticaNeue'" font-size="10">present</text>
			</g>
		</g>
		<g id="moore">
			<text transform="matrix(1 0 0 1 378.2373 750.7612)" font-family="'HelveticaNeue'" font-size="10">Robin Moore</text>
			<g>
				<text transform="matrix(1 0 0 1 378.2373 765.1616)" fill="#77787B" font-family="'HelveticaNeue'" font-size="10">1970s to present</text>
			</g>
		</g>
		<g id="guc">
			<text transform="matrix(1 0 0 1 784.6436 877.106)" fill="#232120" font-family="'HelveticaNeue-Italic'" font-size="10">Growing up in Cities </text>
			<g>
				<text transform="matrix(1 0 0 1 784.6436 891.5054)" fill="#77787B" font-family="'HelveticaNeue'" font-size="10">1997 to 2006</text>
			</g>
		</g>
		<g id="la21">
			<text transform="matrix(1 0 0 1 711.4111 671.4878)" fill="#232120" font-family="'HelveticaNeue-Italic'" font-size="10">Agenda 21</text>
			<g>
				<text transform="matrix(1 0 0 1 711.4111 685.8862)" fill="#77787B" font-family="'HelveticaNeue'" font-size="10">1992 to present</text>
			</g>
		</g>
		<g id="driskell">
			<text transform="matrix(1 0 0 1 746.9434 602.73)" font-family="'HelveticaNeue'" font-size="10">David Driskell</text>
			<g>
				<text transform="matrix(1 0 0 1 746.9434 617.1284)" fill="#77787B" font-family="'HelveticaNeue'" font-size="10">1990s to present</text>
			</g>
		</g>
	</g>
</g>
<g id="Community_Design">
	<g id="Background_1_">
		<g>
			<text transform="matrix(1 0 0 1 928.8887 155.5474)" fill="#232120" font-family="'HelveticaNeueLTStd-Th'" font-size="21">COMMUNITY DESIGN</text>
		</g>
	</g>
	<g id="Connections">
		<path fill="none" stroke="#4C4A49" stroke-width="0.5669" stroke-miterlimit="10" stroke-dasharray="2.8347,5.6693" d="
			M239.436,136.239c0,0,81.19-17.715,110.354-17.578"/>
		<g>
			<path fill="#4C4A49" d="M353.207,118.777c-1.62,0.568-3.636,1.552-4.895,2.609l1.021-2.678l-0.927-2.713
				C349.629,117.097,351.608,118.152,353.207,118.777z"/>
		</g>
		<path fill="none" stroke="#4C4A49" stroke-width="0.5669" stroke-miterlimit="10" stroke-dasharray="2.8347,5.6693" d="
			M66.954,163.089c0,0-103.828,264.751,160.864,279.902"/>
		<g>
			<path fill="#4C4A49" d="M231.235,443.172c-1.646,0.493-3.704,1.381-5.01,2.378l1.147-2.628l-0.8-2.753
				C227.739,441.327,229.667,442.473,231.235,443.172z"/>
		</g>
		<path fill="none" stroke="#4C4A49" stroke-width="0.5669" stroke-miterlimit="10" d="M343.797,181.098
			c2.712-4.377,4.703-6.704,20.004-16.233"/>
		<g>
			<path fill="#4C4A49" d="M342.415,183.42c1.297-1.125,3.15-2.388,4.692-2.956l-2.835-0.439l-1.896-2.15
				C342.728,179.48,342.664,181.723,342.415,183.42z"/>
		</g>
		<g>
			<path fill="#4C4A49" d="M366.735,163.089c-1.063,1.352-2.229,3.265-2.722,4.833l-0.578-2.808l-2.24-1.787
				C362.815,163.599,365.051,163.423,366.735,163.089z"/>
		</g>
		<path fill="none" stroke="#4C4A49" stroke-width="0.5669" stroke-miterlimit="10" d="M349.975,130.022
			c-25.004,8.649-202.249,86.354-221.475,95.652"/>
		<g>
			<path fill="#4C4A49" d="M353.207,128.909c-1.717-0.028-3.939-0.326-5.467-0.932l1.813,2.219l-0.021,2.867
				C350.342,131.633,351.887,130.007,353.207,128.909z"/>
		</g>
		<g>
			<path fill="#4C4A49" d="M125.171,227.409c1.06-1.352,2.229-3.265,2.719-4.833l0.58,2.808l2.242,1.787
				C129.091,226.899,126.854,227.075,125.171,227.409z"/>
		</g>
		<path fill="none" stroke="#4C4A49" stroke-width="0.5669" stroke-miterlimit="10" d="M827.229,234.784
			c-95.698,13.517-319.62,98.798-353.609,133.393"/>
		<g>
			<path fill="#4C4A49" d="M830.618,234.339c-1.681-0.354-3.808-1.07-5.189-1.956l1.361,2.524l-0.57,2.81
				C827.286,236.467,829.112,235.166,830.618,234.339z"/>
		</g>
		<g>
			<path fill="#4C4A49" d="M471.3,371.275c0.489-1.648,0.867-3.856,0.744-5.495l1.575,2.396l2.74,0.836
				C474.756,369.356,472.742,370.344,471.3,371.275z"/>
		</g>
		<path fill="none" stroke="#4C4A49" stroke-width="0.5669" stroke-miterlimit="10" d="M791.961,352.392
			c-115.127-9.184-268.791-9.921-306.597,18.883"/>
		<g>
			<path fill="#4C4A49" d="M794.633,352.409c-1.608-0.603-3.604-1.63-4.836-2.713l0.966,2.7l-0.985,2.692
				C791.02,354.012,793.02,353,794.633,352.409z"/>
		</g>
		<g>
			<path fill="#4C4A49" d="M483.058,374.023c0.489-1.648,0.867-3.856,0.744-5.495l1.575,2.396l2.74,0.836
				C486.513,372.104,484.5,373.091,483.058,374.023z"/>
		</g>
		<path fill="none" stroke="#4C4A49" stroke-width="0.5669" stroke-miterlimit="10" d="M827.226,248.854
			c-94.652,13.219-218.67,108.439-242.726,133.468"/>
		<g>
			<path fill="#4C4A49" d="M830.618,248.412c-1.681-0.358-3.806-1.078-5.188-1.967l1.355,2.527l-0.576,2.809
				C827.282,250.533,829.11,249.235,830.618,248.412z"/>
		</g>
		<g>
			<path fill="#4C4A49" d="M582.573,384.322c0.61-1.604,1.166-3.777,1.174-5.419l1.381,2.512l2.668,1.047
				C586.169,382.68,584.083,383.507,582.573,384.322z"/>
		</g>
		<path fill="none" stroke="#4C4A49" stroke-width="0.5669" stroke-miterlimit="10" d="M169.195,228.372
			c17.809-16.517,151.679-79.604,184.018-88.229"/>
		<g>
			<path fill="#4C4A49" d="M167.235,231.174c1.436-0.942,3.441-1.946,5.045-2.302l-2.749-0.814l-1.593-2.384
				C168.073,227.311,167.71,229.523,167.235,231.174z"/>
		</g>
		<g>
			<path fill="#4C4A49" d="M356.551,139.383c-1.431,0.95-3.142,2.4-4.1,3.734l0.332-2.848l-1.566-2.401
				C352.669,138.636,354.847,139.17,356.551,139.383z"/>
		</g>
		<path fill="none" stroke="#4C4A49" stroke-width="0.5669" stroke-miterlimit="10" d="M192.193,266.025
			c29.63,8.505,254.356,60.633,264.423,99.093"/>
		<g>
			<path fill="#4C4A49" d="M190.266,265.338c1.347,1.065,2.933,2.651,3.777,4.06l-0.096-2.865l1.76-2.263
				C194.196,264.914,191.981,265.267,190.266,265.338z"/>
		</g>
		<g>
			<path fill="#4C4A49" d="M456.938,368.528c-0.771-1.534-2.007-3.408-3.217-4.52l2.788,0.672l2.571-1.266
				C458.146,364.764,457.353,366.862,456.938,368.528z"/>
		</g>
		<path fill="none" stroke="#4C4A49" stroke-width="0.5669" stroke-miterlimit="10" d="M192.986,240.57
			c33.156,6.865,285.6,2.616,634.239-19.78"/>
		<g>
			<path fill="#4C4A49" d="M190.454,239.901c1.417,0.97,3.108,2.443,4.048,3.791l-0.293-2.853l1.6-2.379
				C194.345,239.207,192.161,239.712,190.454,239.901z"/>
		</g>
		<g>
			<path fill="#4C4A49" d="M830.799,220.833c-1.62,0.575-3.629,1.568-4.881,2.631l1.01-2.683l-0.938-2.708
				C827.213,219.168,829.197,220.216,830.799,220.833z"/>
		</g>
		<path fill="none" stroke="#4C4A49" stroke-width="0.5669" stroke-miterlimit="10" d="M190.935,258.542
			c33.156,6.865,352.145,31.49,369.901,126.001"/>
		<g>
			<path fill="#4C4A49" d="M189.236,257.967c1.417,0.97,3.108,2.443,4.048,3.791l-0.293-2.853l1.6-2.379
				C193.127,257.273,190.943,257.778,189.236,257.967z"/>
		</g>
		<g>
			<path fill="#4C4A49" d="M561.548,386.185c-1.077-1.341-2.676-2.91-4.092-3.743l2.866,0.07l2.249-1.778
				C561.938,382.25,561.603,384.468,561.548,386.185z"/>
		</g>
		<path fill="none" stroke="#4C4A49" stroke-width="0.5669" stroke-miterlimit="10" d="M190.935,248.542
			c33.156,6.865,360.394,16.669,601.026,87.667"/>
		<g>
			<path fill="#4C4A49" d="M189.236,247.966c1.417,0.97,3.108,2.443,4.048,3.791l-0.293-2.853l1.6-2.379
				C193.127,247.272,190.943,247.777,189.236,247.966z"/>
		</g>
		<g>
			<path fill="#4C4A49" d="M794.725,337.509c-1.716-0.12-3.954-0.01-5.526,0.464l1.997-2.056l0.221-2.857
				C792.101,334.551,793.501,336.304,794.725,337.509z"/>
		</g>
		<path fill="none" stroke="#4C4A49" stroke-width="0.5669" stroke-miterlimit="10" d="M356.933,154.024
			c-17.549,10.146-117.941,50.921-183.021,168.872"/>
		<g>
			<path fill="#4C4A49" d="M359.595,151.867c-1.641,0.506-3.847,0.913-5.483,0.81l2.415,1.546l0.864,2.732
				C357.716,155.345,358.681,153.321,359.595,151.867z"/>
		</g>
		<g>
			<path fill="#4C4A49" d="M172.27,325.9c0.27-1.696,0.362-3.937,0.029-5.545l1.87,2.173l2.827,0.473
				C175.449,323.55,173.581,324.791,172.27,325.9z"/>
		</g>
		<path fill="none" stroke="#4C4A49" stroke-width="0.5669" stroke-miterlimit="10" d="M303.952,430.109
			c0,0,78.878-38.598,107.867-40.172"/>
		<g>
			<path fill="#4C4A49" d="M415.238,389.943c-1.604,0.614-3.591,1.653-4.818,2.745l0.948-2.706l-1.003-2.686
				C411.614,388.364,413.622,389.363,415.238,389.943z"/>
		</g>
		<path fill="none" stroke="#4C4A49" stroke-width="0.5669" stroke-miterlimit="10" stroke-dasharray="2.8347,5.6693" d="
			M107.141,448.088c0,0,121.952-39.813,303.505-65.293"/>
		<g>
			<path fill="#4C4A49" d="M414.035,382.322c-1.5,0.835-3.319,2.147-4.379,3.402l0.554-2.813l-1.374-2.516
				C410.224,381.274,412.353,381.978,414.035,382.322z"/>
		</g>
		<path fill="none" stroke="#4C4A49" stroke-width="0.5669" stroke-miterlimit="10" stroke-dasharray="2.8347,5.6693" d="
			M239.436,165.838c0,0,51.297,136.349,174.302,200.374"/>
		<g>
			<path fill="#4C4A49" d="M416.785,367.775c-1.702-0.231-3.943-0.272-5.545,0.097l2.131-1.919l0.409-2.837
				C414.363,364.651,415.646,366.491,416.785,367.775z"/>
		</g>
		<path fill="none" stroke="#4C4A49" stroke-width="0.5669" stroke-miterlimit="10" stroke-dasharray="2.8347,5.6693" d="
			M199.435,165.838c0,0,35.469,49.467,43.876,125.929"/>
		<g>
			<path fill="#4C4A49" d="M243.665,295.17c-0.789-1.525-2.045-3.383-3.268-4.48l2.795,0.639l2.557-1.297
				C244.829,291.393,244.062,293.5,243.665,295.17z"/>
		</g>
		<path fill="none" stroke="#4C4A49" stroke-width="0.5669" stroke-miterlimit="10" stroke-dasharray="2.8347,5.6693" d="
			M296.319,318.208c0,0,53.941,115.575,238.181,120.917"/>
		<g>
			<path fill="#4C4A49" d="M537.512,439.16c-1.614,0.585-3.619,1.59-4.865,2.662l0.995-2.69l-0.955-2.703
				C533.917,437.517,535.907,438.549,537.512,439.16z"/>
		</g>
		<path fill="none" stroke="#4C4A49" stroke-width="0.5669" stroke-miterlimit="10" stroke-dasharray="2.8347,5.6693" d="
			M186.5,164.865c0,0,29.214,200.015,46.083,259.228"/>
		<g>
			<path fill="#4C4A49" d="M233.141,426.71c-0.972-1.415-2.449-3.103-3.798-4.04l2.852,0.287l2.377-1.604
				C233.828,422.818,233.328,425.004,233.141,426.71z"/>
		</g>
		<path fill="none" stroke="#4C4A49" stroke-width="0.5669" stroke-miterlimit="10" stroke-dasharray="2.8347,5.6693" d="
			M142.06,281.017c0,0-102.442,466.247,47.927,910.691"/>
		<path fill="none" stroke="#4C4A49" stroke-width="0.5669" stroke-miterlimit="10" d="M316.46,440.505
			c0,0,118.991-1.353,216.547,7.008"/>
		<g>
			<path fill="#4C4A49" d="M536.592,447.861c-1.648,0.48-3.713,1.354-5.025,2.341l1.166-2.619l-0.779-2.759
				C533.109,445.99,535.029,447.15,536.592,447.861z"/>
		</g>
		<path fill="none" stroke="#4C4A49" stroke-width="0.5669" stroke-miterlimit="10" stroke-dasharray="2.8347,5.6693" d="
			M316.462,368.528c0,0,68.129-1.634,94.322,6.352"/>
		<g>
			<path fill="#4C4A49" d="M414.035,375.943c-1.715,0.084-3.927,0.454-5.436,1.11l1.742-2.277l-0.117-2.865
				C411.083,373.315,412.68,374.889,414.035,375.943z"/>
		</g>
		<path fill="none" stroke="#4C4A49" stroke-width="0.5669" stroke-miterlimit="10" stroke-dasharray="2.8347,5.6693" d="
			M275.233,385.415c0,0-3.733,11.46-11.29,33.994"/>
		<g>
			<path fill="#4C4A49" d="M262.459,422.571c0.156-1.713,0.101-3.952-0.339-5.538l2.011,2.045l2.853,0.285
				C265.476,420.015,263.693,421.376,262.459,422.571z"/>
		</g>
		<path fill="none" stroke="#4C4A49" stroke-width="0.5669" stroke-miterlimit="10" stroke-dasharray="2.8347,5.6693" d="
			M370.25,237.165c0,0-40.093,158.682-76.574,185.07"/>
		<g>
			<path fill="#4C4A49" d="M290.787,424.068c1.027-1.376,2.15-3.317,2.603-4.896l0.646,2.793l2.283,1.733
				C294.693,423.465,292.463,423.694,290.787,424.068z"/>
		</g>
		<path fill="none" stroke="#4C4A49" stroke-width="0.5669" stroke-miterlimit="10" stroke-dasharray="2.8347,5.6693" d="
			M275.681,458.276c-2.264,12.003-10.954,53.036-27.109,72.229"/>
		<g>
			<path fill="#4C4A49" d="M276.285,454.912c-0.89,1.469-2.269,3.239-3.562,4.252l2.832-0.451l2.466,1.465
				C277.194,458.759,276.568,456.605,276.285,454.912z"/>
		</g>
		<path fill="none" stroke="#4C4A49" stroke-width="0.5669" stroke-miterlimit="10" stroke-dasharray="2.8347,5.6693" d="
			M319.81,450.509c27.124,5.377,211.507,40.769,278.646,22.975"/>
		<g>
			<path fill="#4C4A49" d="M316.46,449.838c1.471,0.886,3.244,2.258,4.261,3.549l-0.458-2.831l1.459-2.468
				C320.305,448.92,318.153,449.55,316.46,449.838z"/>
		</g>
		<path fill="none" stroke="#4C4A49" stroke-width="0.5669" stroke-miterlimit="10" stroke-dasharray="2.8347,5.6693" d="
			M516.817,405.212c-27.075,12.923-223.625,107.171-241.354,128.233"/>
		<g>
			<path fill="#4C4A49" d="M519.903,403.742c-1.71,0.16-3.952,0.104-5.535-0.329l2.047,2.007l0.29,2.852
				C517.354,406.762,518.711,404.978,519.903,403.742z"/>
		</g>
		<path fill="none" stroke="#4C4A49" stroke-width="0.5669" stroke-miterlimit="10" d="M492.28,379.796
			c5.907-0.555,19.018-0.25,34.919,9.661"/>
		<g>
			<path fill="#4C4A49" d="M488.902,380.323c1.679,0.361,3.802,1.085,5.181,1.977l-1.35-2.529l0.579-2.808
				C492.242,378.208,490.411,379.502,488.902,380.323z"/>
		</g>
		<g>
			<path fill="#4C4A49" d="M530.068,391.331c-1.682-0.363-3.91-0.579-5.535-0.335l2.271-1.748l0.631-2.797
				C527.896,388.027,529.032,389.961,530.068,391.331z"/>
		</g>
		<path fill="none" stroke="#4C4A49" stroke-width="0.5669" stroke-miterlimit="10" d="M621.108,434.708
			c3.536-8.719,4.261-18.666-10.359-29.833"/>
		<g>
			<path fill="#4C4A49" d="M619.729,437.838c1.181-1.248,2.896-2.688,4.378-3.404l-2.863-0.155l-2.103-1.952
				C619.651,433.886,619.808,436.123,619.729,437.838z"/>
		</g>
		<g>
			<path fill="#4C4A49" d="M608.756,404.218c1.708,0.19,3.953,0.178,5.541-0.231l-2.082,1.971l-0.341,2.846
				C611.252,407.283,609.928,405.476,608.756,404.218z"/>
		</g>
		<path fill="none" stroke="#4C4A49" stroke-width="0.5669" stroke-miterlimit="10" d="M608.871,395.796
			c8.665-3.665,220.075-3.492,216.703-33.503"/>
		<g>
			<path fill="#4C4A49" d="M605.639,396.059c1.668,0.411,3.767,1.192,5.121,2.127l-1.278-2.566l0.659-2.792
				C609.037,394.042,607.169,395.281,605.639,396.059z"/>
		</g>
		<g>
			<path fill="#4C4A49" d="M825.762,358.425c0.52,1.638,1.441,3.686,2.46,4.971l-2.647-1.103l-2.738,0.843
				C823.974,361.951,825.088,360.007,825.762,358.425z"/>
		</g>
		<path fill="none" stroke="#4C4A49" stroke-width="0.5669" stroke-miterlimit="10" d="M449.637,401.828
			c6.804,7.875,29.26,28.449,84.971,29.919"/>
		<g>
			<path fill="#4C4A49" d="M447.485,399.092c0.529,1.633,0.974,3.832,0.896,5.472l1.508-2.438l2.721-0.91
				C450.993,400.915,448.953,399.982,447.485,399.092z"/>
		</g>
		<g>
			<path fill="#4C4A49" d="M538.032,431.811c-1.633,0.532-3.67,1.472-4.951,2.498l1.084-2.652l-0.865-2.733
				C534.493,430.05,536.448,431.149,538.032,431.811z"/>
		</g>
		<path fill="none" stroke="#4C4A49" stroke-width="0.5669" stroke-miterlimit="10" d="M869.292,269.518
			c-2.969,8.62-13.225,32.805-40.346,54.288"/>
		<g>
			<path fill="#4C4A49" d="M870.304,266.252c-1.062,1.349-2.646,2.937-4.055,3.784l2.865-0.1l2.266,1.756
				C870.733,270.182,870.376,267.968,870.304,266.252z"/>
		</g>
		<g>
			<path fill="#4C4A49" d="M826.235,325.9c0.883-1.472,1.807-3.516,2.1-5.133l0.922,2.715l2.445,1.496
				C830.063,324.908,827.864,325.36,826.235,325.9z"/>
		</g>
		<path fill="none" stroke="#4C4A49" stroke-width="0.5669" stroke-miterlimit="10" d="M442.997,136.239
			c0,0,295.722,107.824,372.503,189.661"/>
		<g>
			<path fill="#4C4A49" d="M818.132,328.597c-1.526-0.782-3.631-1.565-5.264-1.748l2.646-1.104l1.324-2.541
				C816.884,324.846,817.483,327.008,818.132,328.597z"/>
		</g>
		<path fill="none" stroke="#4C4A49" stroke-width="0.5669" stroke-miterlimit="10" d="M276.407,349.284
			c1.507-3.606,2.763-10.586-2.106-21.312"/>
		<g>
			<path fill="#4C4A49" d="M274.67,352.233c1.312-1.111,3.177-2.353,4.728-2.902l-2.829-0.472l-1.871-2.171
				C275.029,348.296,274.938,350.537,274.67,352.233z"/>
		</g>
		<g>
			<path fill="#4C4A49" d="M272.788,324.9c1.243,1.185,3.035,2.532,4.549,3.171l-2.851,0.307l-1.994,2.059
				C272.919,328.851,272.958,326.609,272.788,324.9z"/>
		</g>
		<g>
			<path fill="#4C4A49" d="M143.488,277.42c-0.04,1.716,0.17,3.949,0.716,5.499l-2.145-1.902l-2.866-0.091
				C140.654,280.174,142.338,278.694,143.488,277.42z"/>
		</g>
		<g>
			<path fill="#4C4A49" d="M440.232,134.802c1.709,0.128,3.953,0.035,5.529-0.429l-2.011,2.043l-0.235,2.855
				C442.835,137.776,441.446,136.016,440.232,134.802z"/>
		</g>
	</g>
	<g id="Entities_1_">
		<g id="alinsky">
			<text transform="matrix(1 0 0 1 65.625 143.0142)" fill="#232120" font-family="'HelveticaNeue'" font-size="10">Saul Alinsky</text>
			<g>
				<text transform="matrix(1 0 0 1 65.625 157.4146)" fill="#77787B" font-family="'HelveticaNeue'" font-size="10">1960s to 1990s</text>
			</g>
		</g>
		<g id="prpcdn">
			<text transform="matrix(1 0 0 1 840.2744 226.1714)" fill="#232120" font-family="'HelveticaNeue-Italic'" font-size="10">Pacific Rim </text>
			<text transform="matrix(1 0 0 1 840.2744 240.5698)" fill="#232120" font-family="'HelveticaNeue-Italic'" font-size="10">Community Design Network</text>
			<g>
				<text transform="matrix(1 0 0 1 840.2744 254.9702)" fill="#77787B" font-family="'HelveticaNeue'" font-size="10">1998 to present</text>
			</g>
		</g>
		<g id="davidoff">
			<text transform="matrix(1 0 0 1 172.2734 144.021)" font-family="'HelveticaNeue'" font-size="10">Paul Davidoff</text>
			<g>
				<text transform="matrix(1 0 0 1 172.2734 158.4194)" fill="#77787B" font-family="'HelveticaNeue'" font-size="10">1960s to 1980s</text>
			</g>
		</g>
		<g id="hester">
			<text transform="matrix(1 0 0 1 416.9268 381.3228)" font-family="'HelveticaNeue'" font-size="9">Randolph Hester</text>
			<g>
				<text transform="matrix(1 0 0 1 416.9268 395.7222)" fill="#77787B" font-family="'HelveticaNeue'" font-size="9">1970s to present</text>
			</g>
		</g>
		<g id="and">
			<text transform="matrix(1 0 0 1 326.4629 193.1704)" font-family="'HelveticaNeue-Italic'" font-size="10">Asian </text>
			<text transform="matrix(1 0 0 1 326.4629 205.9253)" font-family="'HelveticaNeue-Italic'" font-size="10">Neighborhood </text>
			<text transform="matrix(1 0 0 1 326.4629 218.6821)" font-family="'HelveticaNeue-Italic'" font-size="10">Design </text>
			<g>
				<text transform="matrix(1 0 0 1 326.4629 233.0806)" fill="#77787B" font-family="'HelveticaNeue'" font-size="10">1973 to present</text>
			</g>
		</g>
		<g id="halprin">
			<text transform="matrix(1 0 0 1 238.0791 363.396)" font-family="'HelveticaNeue'" font-size="10">Lawrence Halprin</text>
			<g>
				<text transform="matrix(1 0 0 1 238.0791 377.7944)" fill="#77787B" font-family="'HelveticaNeue'" font-size="10">1960s to 2000s</text>
			</g>
		</g>
		<g id="acd">
			<text transform="matrix(1 0 0 1 368.3125 122.9077)" font-family="'HelveticaNeue-Italic'" font-size="10">Association for </text>
			<text transform="matrix(1 0 0 1 368.3125 135.6646)" font-family="'HelveticaNeue-Italic'" font-size="10">Community </text>
			<text transform="matrix(1 0 0 1 368.3125 148.4194)" font-family="'HelveticaNeue-Italic'" font-size="10">Design </text>
			<g>
				<text transform="matrix(1 0 0 1 368.3125 162.8188)" fill="#77787B" font-family="'HelveticaNeue'" font-size="10">1977 to present</text>
			</g>
		</g>
		<g id="sanoff">
			<text transform="matrix(1 0 0 1 235.9609 434.8101)" font-family="'HelveticaNeue'" font-size="10">Henry Sanoff</text>
			<g>
				<text transform="matrix(1 0 0 1 235.9609 449.2095)" fill="#77787B" font-family="'HelveticaNeue'" font-size="10">1960s to present</text>
			</g>
		</g>
		<g id="curry">
			<text transform="matrix(1 0 0 1 142.9268 243.4116)" font-family="'HelveticaNeue'" font-size="10">Rex Curry</text>
			<g>
				<text transform="matrix(1 0 0 1 142.9268 257.8101)" fill="#77787B" font-family="'HelveticaNeue'" font-size="10">1960s to</text>
			</g>
			<g>
				<text transform="matrix(1 0 0 1 142.9268 272.2104)" fill="#77787B" font-family="'HelveticaNeue'" font-size="10">2000s</text>
			</g>
		</g>
		<g id="hamdi">
			<text transform="matrix(1 0 0 1 603.3975 473.481)" fill="#232120" font-family="'HelveticaNeue'" font-size="10">Nabeel Hamdi</text>
			<g>
				<text transform="matrix(1 0 0 1 603.3975 487.8804)" fill="#77787B" font-family="'HelveticaNeue'" font-size="10">1980s to present</text>
			</g>
		</g>
		<g id="miginc">
			<text transform="matrix(1 0 0 1 543.0791 432.0679)" font-family="'HelveticaNeue-Italic'" font-size="10">MIG Inc.</text>
			<g>
				<text transform="matrix(1 0 0 1 543.0791 446.4683)" fill="#77787B" font-family="'HelveticaNeue'" font-size="10">1980s to present</text>
			</g>
		</g>
		<g id="arnstein">
			<text transform="matrix(1 0 0 1 214.959 544.1597)" font-family="'HelveticaNeue'" font-size="10">Sherry Arnstein</text>
			<g>
				<text transform="matrix(1 0 0 1 214.959 558.5601)" fill="#77787B" font-family="'HelveticaNeue'" font-size="10">1960s to 1970s</text>
			</g>
		</g>
		<g id="francis">
			<text transform="matrix(1 0 0 1 535.0791 396.8853)" fill="#232120" font-family="'HelveticaNeue'" font-size="10">Mark Francis</text>
			<g>
				<text transform="matrix(1 0 0 1 535.0791 411.2856)" fill="#77787B" font-family="'HelveticaNeue'" font-size="10">1980s to 2000s</text>
			</g>
		</g>
		<g id="hou">
			<text transform="matrix(1 0 0 1 797.6182 340.1724)" font-family="'HelveticaNeue'" font-size="10">Jeffrey Hou</text>
			<g>
				<text transform="matrix(1 0 0 1 797.6182 354.5718)" fill="#77787B" font-family="'HelveticaNeue'" font-size="10">1990s to present</text>
			</g>
		</g>
		<g id="linn">
			<text transform="matrix(1 0 0 1 64.4688 434.4185)" fill="#232120" font-family="'HelveticaNeue'" font-size="10">Karl Linn</text>
			<g>
				<text transform="matrix(1 0 0 1 64.4688 448.8188)" fill="#77787B" font-family="'HelveticaNeue'" font-size="10">1960s to</text>
			</g>
			<g>
				<text transform="matrix(1 0 0 1 64.4688 463.2202)" fill="#77787B" font-family="'HelveticaNeue'" font-size="10">1990s</text>
			</g>
		</g>
		<g id="arch">
			<text transform="matrix(1 0 0 1 141.9873 339.6353)" font-family="'HelveticaNeue-Italic'" font-size="10">Architectural </text>
			<text transform="matrix(1 0 0 1 141.9873 352.3921)" font-family="'HelveticaNeue-Italic'" font-size="10">Renewal </text>
			<text transform="matrix(1 0 0 1 141.9873 365.147)" font-family="'HelveticaNeue-Italic'" font-size="10">Committee in </text>
			<text transform="matrix(1 0 0 1 141.9873 377.9038)" font-family="'HelveticaNeue-Italic'" font-size="10">Harlem (ARCH)</text>
			<g>
				<text transform="matrix(1 0 0 1 141.9873 392.3042)" fill="#77787B" font-family="'HelveticaNeue'" font-size="10">1963 to 1970s</text>
			</g>
		</g>
		<g id="arc">
			<text transform="matrix(1 0 0 1 66.6387 224.4097)" font-family="'HelveticaNeue-Italic'" font-size="10">Architecture</text>
			<text transform="matrix(1 0 0 1 66.6387 237.1646)" font-family="'HelveticaNeue-Italic'" font-size="10">Research</text>
			<text transform="matrix(1 0 0 1 66.6387 249.9214)" font-family="'HelveticaNeue-Italic'" font-size="10">Construction </text>
			<text transform="matrix(1 0 0 1 66.6387 262.6763)" font-family="'HelveticaNeue-Italic'" font-size="10">(ARC) </text>
			<g>
				<text transform="matrix(1 0 0 1 66.6387 277.0767)" fill="#77787B" font-family="'HelveticaNeue'" font-size="10">1960s to</text>
			</g>
			<g>
				<text transform="matrix(1 0 0 1 66.6387 291.4771)" fill="#77787B" font-family="'HelveticaNeue'" font-size="10">present</text>
			</g>
		</g>
		<g id="krumholz">
			<text transform="matrix(1 0 0 1 214.3652 306.2827)" font-family="'HelveticaNeue'" font-size="10">Norman Krumholz</text>
			<g>
				<text transform="matrix(1 0 0 1 214.3652 320.6812)" fill="#77787B" font-family="'HelveticaNeue'" font-size="10">1960s to present</text>
			</g>
		</g>
	</g>
</g>
<g id="Legend">
	<g>
		<g>
			<g>
				
					<line fill="none" stroke="#4C4A49" stroke-width="0.8504" stroke-miterlimit="10" x1="0.646" y1="2026.755" x2="38.518" y2="2026.755"/>
				<g>
					<path fill="#4C4A49" d="M43.65,2026.755c-2.415,0.896-5.411,2.426-7.269,4.045l1.463-4.045l-1.463-4.043
						C38.239,2024.333,41.235,2025.861,43.65,2026.755z"/>
				</g>
			</g>
		</g>
		<text transform="matrix(1 0 0 1 54.0889 2030.2749)" font-family="'MyriadPro-Regular'" font-size="12">One-way strong influence (professor-student and/or strong inspiration) </text>
	</g>
	<g>
		<g>
			<g>
				
					<line fill="none" stroke="#4C4A49" stroke-width="0.8504" stroke-miterlimit="10" x1="0.646" y1="2064.826" x2="4.898" y2="2064.826"/>
				
					<line fill="none" stroke="#4C4A49" stroke-width="0.8504" stroke-miterlimit="10" stroke-dasharray="7.3419,4.8946" x1="9.792" y1="2064.826" x2="31.819" y2="2064.826"/>
				
					<line fill="none" stroke="#4C4A49" stroke-width="0.8504" stroke-miterlimit="10" x1="34.266" y1="2064.826" x2="38.518" y2="2064.826"/>
				<g>
					<path fill="#4C4A49" d="M43.65,2064.826c-2.415,0.895-5.411,2.426-7.269,4.045l1.463-4.045l-1.463-4.043
						C38.239,2062.4,41.235,2063.929,43.65,2064.826z"/>
				</g>
			</g>
		</g>
		<text transform="matrix(1 0 0 1 54.0889 2068.3413)" font-family="'MyriadPro-Regular'" font-size="12">One-way influence (citation, applying theories and/or methods)</text>
	</g>
	<g>
		<g>
			<g>
				
					<line fill="none" stroke="#4C4A49" stroke-width="0.8504" stroke-miterlimit="10" x1="5.778" y1="2008.115" x2="38.518" y2="2008.115"/>
				<g>
					<path fill="#4C4A49" d="M0.646,2008.115c2.415,0.895,5.411,2.424,7.269,4.043l-1.463-4.043l1.463-4.045
						C6.057,2005.689,3.061,2007.216,0.646,2008.115z"/>
				</g>
				<g>
					<path fill="#4C4A49" d="M43.65,2008.115c-2.415,0.895-5.411,2.424-7.269,4.043l1.463-4.043l-1.463-4.045
						C38.239,2005.689,41.235,2007.216,43.65,2008.115z"/>
				</g>
			</g>
		</g>
		<text transform="matrix(1 0 0 1 54.0889 2011.2397)" font-family="'MyriadPro-Regular'" font-size="12">Close mutual relationship (co-workers and co-authors)</text>
	</g>
	<g>
		<text transform="matrix(1 0 0 1 54.085 2049.3081)" font-family="'MyriadPro-Regular'" font-size="12">Mutual influence (citation, applying theories and/or methods)</text>
		<g>
			<g>
				
					<line fill="none" stroke="#4C4A49" stroke-width="0.8504" stroke-miterlimit="10" stroke-dasharray="5.6693,5.6693" x1="5.778" y1="2045.791" x2="38.518" y2="2045.791"/>
				<g>
					<path fill="#4C4A49" d="M0.646,2045.791c2.415,0.895,5.411,2.424,7.269,4.043l-1.463-4.043l1.463-4.045
						C6.057,2043.367,3.061,2044.894,0.646,2045.791z"/>
				</g>
				<g>
					<path fill="#4C4A49" d="M43.65,2045.791c-2.415,0.895-5.411,2.424-7.269,4.043l1.463-4.043l-1.463-4.045
						C38.239,2043.367,41.235,2044.894,43.65,2045.791z"/>
				</g>
			</g>
		</g>
	</g>
</g>
<g id="Years">
	<g>
		<text transform="matrix(1 0 0 1 66.0039 80.5073)" fill="#232120" font-family="'HelveticaNeue'" font-size="18">1960s</text>
	</g>
	<g>
		<text transform="matrix(1 0 0 1 274.5308 80.5073)" fill="#232120" font-family="'HelveticaNeue'" font-size="18">1970s</text>
	</g>
	<g>
		<text transform="matrix(1 0 0 1 483.0576 80.5073)" fill="#232120" font-family="'HelveticaNeue'" font-size="18">1980s</text>
	</g>
	<g>
		<text transform="matrix(1 0 0 1 691.585 80.5073)" fill="#232120" font-family="'HelveticaNeue'" font-size="18">1990s</text>
	</g>
	<g>
		<text transform="matrix(1 0 0 1 900.1113 80.5073)" fill="#232120" font-family="'HelveticaNeue'" font-size="18">2000s</text>
	</g>
</g>
</svg>
