<?xml version="1.0" encoding="utf-8"?>
<!-- Generator: Adobe Illustrator 16.0.0, SVG Export Plug-In . SVG Version: 6.00 Build 0)  -->
<!DOCTYPE svg PUBLIC "-//W3C//DTD SVG 1.1//EN" "http://www.w3.org/Graphics/SVG/1.1/DTD/svg11.dtd">
<svg version="1.1" id="Layer_1" xmlns="http://www.w3.org/2000/svg" xmlns:xlink="http://www.w3.org/1999/xlink" x="0px" y="0px"
	 width="300px" height="300px" viewBox="0 0 300 300" enable-background="new 0 0 300 300" xml:space="preserve">
<ellipse id="Outline" fill="#FFFFFF" stroke="#000000" stroke-miterlimit="10" cx="135.758" cy="117.792" rx="59.557" ry="50"/>
<g>
	<g>
		<path d="M117.758,87.718c-2.944,5.381-6.302,10.702-10.451,15.242c-3.519,3.851-7.174,7.385-8.865,12.445
			c-0.451,1.351,0.512,2.654,1.746,3.075c9.633,3.292,20.13-1.578,29.054-4.967c13.091-4.972,25.577-11.096,38.09-17.359
			c-1.14-1.14-2.28-2.28-3.42-3.42c-4.415,9.543-9.753,18.602-14.775,27.83c-4.583,8.422-7.633,18.282-13.597,25.845
			c1.393,0.811,2.786,1.622,4.178,2.432c3.572-9.278,8.884-17.757,14.129-26.159c-1.522-0.642-3.046-1.284-4.569-1.926
			c-1.497,5.573-8.2,16.575,1.227,18.626c6.332,1.377,16.291-3.749,17.02-10.612c1.026-9.674-7.038-18.736-12.315-26.052
			c-7.326-10.155-15.884-20.004-27.279-25.641c-8.152-4.032-17.318-3.93-24.325,2.181c-6.302,5.498-8.425,15.286-7.158,23.245
			c1.368,8.59,6.566,15.261,12.589,21.268c5.485,5.47,13.449,11.305,21.617,9.015c9.263-2.598,9.001-13.625,7.043-21.03
			c-2.146-8.117-7.42-20.94-15.647-24.601c-10.154-4.518-12.963,10.528-11.847,17.147c1.654,9.808,9.135,20.729,19.416,22.54
			c3.152,0.555,4.5-4.263,1.329-4.821c-10.911-1.922-18.319-16.418-15.477-26.677c2.393-8.639,9.005,0.213,11.25,3.908
			c2.84,4.676,5.069,9.725,6.467,15.014c1.185,4.482,1.624,10.333-2.768,13.183c-4.167,2.704-9.645-0.708-13.056-3.094
			c-7.265-5.08-14.127-13.23-15.913-22.038c-1.822-8.984,2.212-20.019,11.589-22.71c12.509-3.591,25.331,10.239,32.409,18.61
			c3.729,4.411,7.018,9.188,10.344,13.904c3.19,4.525,6.814,9.849,6.845,15.577c0.024,4.445-7.057,6.715-10.563,6.843
			c-3.594,0.131,1.485-10.449,2.024-12.455c0.747-2.782-3.076-4.318-4.57-1.926c-5.49,8.791-10.898,17.648-14.634,27.353
			c-0.878,2.28,2.646,4.375,4.178,2.432c5.56-7.049,8.511-15.662,12.622-23.563c5.425-10.428,11.591-20.443,16.531-31.123
			c1.055-2.28-1.087-4.588-3.42-3.42c-11.222,5.617-22.412,11.297-34.131,15.824c-8.65,3.341-19.801,9.196-29.16,5.998
			c0.582,1.025,1.164,2.05,1.746,3.075c1.66-4.967,6.059-8.425,9.39-12.275c3.685-4.258,6.729-9.295,9.421-14.218
			C123.623,87.412,119.306,84.889,117.758,87.718L117.758,87.718z"/>
	</g>
</g>
<g>
	<g>
		<path d="M125.028,177.369c8.228-8.253,4.899-20.045-1.916-28.014c-8.148-9.527-21.827-14.178-33.965-15.049
			c-2.822-0.203-3.401,4.305-0.665,4.911c5.685,1.258,15.324-2.574,17.375-8.496c0.86-2.483-0.476-4.309-2.764-5.184
			c-3.681-1.406-7.698,1.258-10.166,3.685c-6.483,6.375-8.89,16.544-5.61,24.937c3.685,9.428,13.219,15.395,22.187,19.002
			c10.013,4.029,21.79,6.413,32.489,4.325c10.679-2.085,16.145-11.572,18.533-21.356c4.995-20.463,4.533-47.945-16.469-59.14
			c-9.729-5.186-17.496,2.022-22.97,9.626c-5.869,8.153-8.944,17.616-7.201,27.639c4.008,23.046,35.408,23.516,45.529,4.97
			c5.381-9.862,3.548-22.543,1.074-32.951c-2.064-8.688-5.316-18.09-11.756-24.526c-6.911-6.908-15.749-4.744-22.246,1.289
			c-3.544,3.291-6.406,7.375-9.203,11.295c-4.172,5.848-8.43,11.529-11.916,17.833c-5.544,10.029-9.094,22.304-2.874,32.779
			c5.284,8.897,15.941,13.283,25.539,15.488c8.657,1.989,20.622,3.017,25.65-6.05c4.307-7.765,0.349-19.494-1.571-27.465
			c-4.088-16.983-13.518-38.76-34.8-34.338c-7.388,1.535-15.843,6.616-18.074,14.226c-2.375,8.098,6.435,13.092,12.538,15.674
			c15.035,6.359,34.924,11.406,50.927,6.007c7.541-2.544,13.438-9.047,14.104-17.172c0.938-11.418-5.134-22.005-9.525-32.146
			c-3.168-7.313-7.626-18.828-17.267-19.108c-9.201-0.267-16.175,6.742-21.5,13.441c-5.999,7.547-10.62,16.093-16.016,24.063
			c-7.043,10.403-11.914,21.522-4.001,32.927c12.019,17.324,35.964,28.142,56.029,18.769c8.029-3.751,15.145-11.581,16.225-20.593
			c1.037-8.659-2.76-16.8-7.813-23.6c-11.485-15.457-30.714-27.194-50.295-26.335c-13.244,0.581-24.637,6.49-35.917,12.811
			c-3.457,1.937-6.94,4.212-7.723,8.361c-0.719,3.812,2.11,7.337,4.626,9.814c6.209,6.113,15.203,9.777,23.247,12.778
			c13.18,4.917,27.43,7.011,41.467,6.778c9.209-0.153,19.072-1.663,24.103-10.265c5.012-8.571,5.229-22.955,2.108-32.104
			c-3.249-9.525-12.643-13.969-22.041-11.336c-8.141,2.281-15.163,9.444-20.99,15.244c-11.047,10.995-26.204,29.098-19.078,45.765
			c3.262,7.631,12.468,12.002,19.472,15.286c10.018,4.695,20.946,7.243,31.95,8.044c7.645,0.556,18.08,1.226,24.208-4.398
			c6.965-6.392,7.166-16.959,6.437-25.74c-1.307-15.721-22.367-19.27-34.938-19.349c-15.503-0.098-31.652,6.52-37.053,22.043
			c-0.334,0.959,0.185,2.402,1.149,2.823c7.25,3.169,15.734,2.197,23.331,0.921c1.923-0.323,2.313-2.945,1.103-4.178
			c-8.539-8.702-22.228-10.486-33.65-12.596c-13.435-2.481-27.676-7.589-41.357-3.766c-2.122,0.593-2.425,3.438-0.597,4.569
			c9.795,6.062,20.637,9.626,31.598,12.93c5.194,1.565,15.062,5.03,17.881-1.792c2.269-5.491-3.082-13.55-6.068-17.658
			c-4.059-5.583-9.959-11.098-17.215-11.402c-8.745-0.367-13.715,10.255-14.351,17.56c-0.896,10.3,5.146,17.68,14.504,21.224
			c18.146,6.873,40.742-3.47,46.316-22.014c2.048-6.814,1.571-14.181,0.237-21.07c-0.613-3.164-5.431-1.821-4.821,1.329
			c1.575,8.134,1.4,16.557-2.504,24.029c-3.887,7.438-11.399,11.565-19.261,13.562c-8.229,2.091-18.223,1.362-24.943-4.263
			c-6.91-5.783-6.008-19.52,1.626-24.477c9.197-5.974,21.775,13.479,21.821,20.999c0.021,3.373-13.877-1.448-15.819-2.077
			c-9.232-2.989-18.167-6.055-26.477-11.197c-0.199,1.523-0.398,3.046-0.597,4.569c12.376-3.458,25.41,1.236,37.559,3.553
			c10.79,2.058,24.486,3.27,32.584,11.522c0.368-1.393,0.735-2.786,1.103-4.178c-6.041,1.014-13.679,2.119-19.479-0.417
			c0.383,0.941,0.766,1.882,1.149,2.823c7.313-21.022,36.599-21.517,53.741-13.94c5.04,2.228,8.07,5.616,8.536,11.218
			c0.551,6.624,0.474,14.757-4.119,20.021c-3.942,4.518-11.766,4.174-17.166,4.007c-7.417-0.23-14.614-1.247-21.783-3.178
			c-6.859-1.848-13.391-4.695-19.532-8.244c-4.863-2.812-9.309-6.098-10.963-11.682c-2.625-8.859,3.683-18.725,8.566-25.567
			c5.448-7.631,12.307-14.419,19.548-20.346c3.979-3.257,8.47-6.066,13.718-6.438c7.241-0.513,11.569,6.27,12.918,12.49
			c1.309,6.034,0.465,12.79-0.837,18.739c-1.396,6.383-4.565,10.381-10.91,12.188c-12.755,3.633-28.625,0.823-41.14-2.319
			c-10.015-2.514-20.241-6.7-28.638-12.771c-1.914-1.384-3.627-3.104-4.829-5.138c-1.817-3.075,1.572-5.075,3.812-6.415
			c5.998-3.591,12.02-6.944,18.612-9.338c12.17-4.418,25.055-4.696,36.849,0.783c9.147,4.25,17.339,10.719,23.834,18.404
			c5.928,7.014,10.357,16.397,7.322,25.584c-3.763,11.384-17.601,16.5-28.504,15.931c-12.221-0.638-23.593-8.1-31.423-17.078
			c-5.434-6.231-7.25-13.002-3.96-20.744c2.401-5.651,6.415-10.531,9.689-15.682c5.424-8.532,10.394-17.516,17.951-24.402
			c3.471-3.162,8.164-5.741,12.942-4.421c5.248,1.45,8.038,8.593,10.013,13.04c4.625,10.414,12.558,23.173,9.763,34.923
			c-2.272,9.555-13.099,11.881-21.471,12.111c-7.329,0.202-51.913-5.569-45.138-19.165c4.249-8.526,17.806-11.512,25.799-7.629
			c9.464,4.597,13.326,16.798,15.891,26.154c1.183,4.313,2.09,8.694,2.962,13.078c1.117,5.614,2.493,13.284-2.927,17.076
			c-4.596,3.217-12.086,1.628-17.105,0.567c-5.823-1.23-11.201-3.308-16.146-6.654c-13.868-9.385-8.845-25.192-1.8-37.323
			c3.181-5.479,7.102-10.457,10.772-15.602c3.414-4.786,7.161-9.881,12.335-12.869c10.441-6.027,17.319,11.826,19.543,18.701
			c3.622,11.203,6.286,25.203,0.365,36.054c-6.228,11.412-22.997,12.958-31.614,3.798c-8.011-8.516-4.222-21.629,1.084-30.309
			c2.684-4.391,7.227-10.913,12.903-11.312c5.824-0.409,11.69,5.817,14.841,10.017c7.746,10.326,6.574,24.039,5.414,36.169
			c-1.124,11.753-4.71,24.103-17.759,26.649c-10.722,2.093-24.229-2.04-33.687-7.034c-9.811-5.18-17.743-14.712-13.475-26.09
			c0.963-2.567,2.513-5.005,4.321-7.047c0.871-0.983,1.951-1.788,3.176-2.271c0.405-0.07,0.81-0.141,1.214-0.211
			c1.215,0.342,1.268,0.018,0.157-0.975c-1.706,3.12-7.811,5.844-11.199,5.094c-0.222,1.637-0.443,3.274-0.665,4.911
			c9.892,0.71,19.679,4.224,27.355,10.582c6.758,5.596,12.35,16.563,4.991,23.946C119.215,176.119,122.75,179.655,125.028,177.369
			L125.028,177.369z"/>
	</g>
</g>
</svg>
