<?xml version="1.0" encoding="utf-8"?>
<!-- Generator: Adobe Illustrator 16.0.0, SVG Export Plug-In . SVG Version: 6.00 Build 0)  -->
<!DOCTYPE svg PUBLIC "-//W3C//DTD SVG 1.1//EN" "http://www.w3.org/Graphics/SVG/1.1/DTD/svg11.dtd">
<svg version="1.1" id="Layer1" xmlns="http://www.w3.org/2000/svg" xmlns:xlink="http://www.w3.org/1999/xlink" x="0px" y="0px"
	 width="1301.52px" height="2107.834px" viewBox="0 0 1301.52 2107.834" enable-background="new 0 0 1301.52 2107.834"
	 xml:space="preserve">
<g id="Technology_Development">
</g>
<g id="Public_Health">
</g>
<g id="International_Development">
</g>
<g id="Youth_Development">
</g>
<g id="Community_Design">
	<g id="Background_1_">
		<rect x="68.285" y="106.207" fill="#DCDDDD" width="1152.05" height="463.965"/>
		<text transform="matrix(1 0 0 1 1040.2207 551.0278)" fill="#232120" font-family="'HelveticaNeue'" font-size="18">Community Design</text>
	</g>
	<g id="Connections_1_">
		<g opacity="0.8">
			<g>
				<path fill="none" stroke="#AAABAB" stroke-width="0.5669" stroke-miterlimit="10" stroke-dasharray="2.8347,5.6693" d="
					M305.771,136.239c0,0,81.19-17.715,110.354-17.578"/>
				<g>
					<path fill="#AAABAB" d="M419.542,118.777c-1.62,0.568-3.636,1.552-4.894,2.609l1.023-2.678l-0.927-2.713
						C415.964,117.097,417.943,118.152,419.542,118.777z"/>
				</g>
			</g>
		</g>
		<g opacity="0.8">
			<g>
				<path fill="none" stroke="#AAABAB" stroke-width="0.5669" stroke-miterlimit="10" stroke-dasharray="2.8347,5.6693" d="
					M133.289,163.089c0,0-103.828,264.751,160.864,279.902"/>
				<g>
					<path fill="#AAABAB" d="M297.57,443.172c-1.646,0.493-3.704,1.381-5.01,2.378l1.147-2.628l-0.8-2.753
						C294.074,441.327,296.002,442.473,297.57,443.172z"/>
				</g>
			</g>
		</g>
		<g opacity="0.8">
			<g>
				<path fill="none" stroke="#4C4A49" stroke-width="0.5669" stroke-miterlimit="10" d="M405.346,187.397
					c2.712-4.377,9.489-13.003,24.79-22.532"/>
				<g>
					<path fill="#4C4A49" d="M403.749,190.421c1.297-1.125,3.15-2.388,4.692-2.956l-2.834-0.439l-1.896-2.15
						C404.063,186.481,403.998,188.723,403.749,190.421z"/>
				</g>
				<g>
					<path fill="#4C4A49" d="M433.07,163.089c-1.06,1.352-2.229,3.265-2.719,4.833l-0.58-2.808l-2.241-1.787
						C429.15,163.599,431.386,163.423,433.07,163.089z"/>
				</g>
			</g>
		</g>
		<g opacity="0.8">
			<g>
				<path fill="none" stroke="#4C4A49" stroke-width="0.5669" stroke-miterlimit="10" d="M416.31,130.022
					c-25.004,8.649-187.346,65.53-213.701,93.485"/>
				<g>
					<path fill="#4C4A49" d="M419.542,128.909c-1.717-0.028-3.939-0.326-5.467-0.932l1.816,2.219l-0.023,2.867
						C416.677,131.633,418.222,130.007,419.542,128.909z"/>
				</g>
				<g>
					<path fill="#4C4A49" d="M200.458,226.17c0.56-1.624,1.039-3.814,0.99-5.456l1.466,2.464l2.702,0.956
						C203.996,224.407,201.94,225.304,200.458,226.17z"/>
				</g>
			</g>
		</g>
		<g opacity="0.8">
			<g>
				<path fill="none" stroke="#4C4A49" stroke-width="0.5669" stroke-miterlimit="10" d="M893.564,234.784
					c-95.699,13.517-312.491,121.899-345.331,132.87"/>
				<g>
					<path fill="#4C4A49" d="M896.953,234.339c-1.68-0.354-3.807-1.07-5.189-1.956l1.361,2.524l-0.57,2.81
						C893.621,236.467,895.447,235.166,896.953,234.339z"/>
				</g>
				<g>
					<path fill="#4C4A49" d="M544.921,368.528c1.392-1.006,3.044-2.522,3.948-3.894l-0.219,2.859l1.66,2.337
						C548.829,369.121,546.632,368.672,544.921,368.528z"/>
				</g>
			</g>
		</g>
		<g opacity="0.8">
			<g>
				<path fill="none" stroke="#4C4A49" stroke-width="0.5669" stroke-miterlimit="10" d="M893.561,248.854
					C798.908,262.073,651.188,354.7,627.133,379.729"/>
				<g>
					<path fill="#4C4A49" d="M896.953,248.412c-1.68-0.358-3.805-1.078-5.186-1.967l1.355,2.527l-0.576,2.809
						C893.617,250.533,895.445,249.235,896.953,248.412z"/>
				</g>
				<g>
					<path fill="#4C4A49" d="M624.906,382.322c0.613-1.604,1.166-3.777,1.174-5.419l1.381,2.512l2.668,1.047
						C628.502,380.68,626.416,381.507,624.906,382.322z"/>
				</g>
			</g>
		</g>
		<g opacity="0.8">
			<g>
				<path fill="none" stroke="#4C4A49" stroke-width="0.5669" stroke-miterlimit="10" d="M235.53,228.372
					c17.809-16.517,151.679-79.604,184.018-88.229"/>
				<g>
					<path fill="#4C4A49" d="M233.57,231.174c1.436-0.942,3.441-1.946,5.045-2.302l-2.749-0.814l-1.593-2.384
						C234.408,227.311,234.045,229.523,233.57,231.174z"/>
				</g>
				<g>
					<path fill="#4C4A49" d="M422.886,139.383c-1.431,0.95-3.142,2.4-4.1,3.734l0.332-2.848l-1.566-2.401
						C419.004,138.636,421.182,139.17,422.886,139.383z"/>
				</g>
			</g>
		</g>
		<g opacity="0.8">
			<g>
				<path fill="none" stroke="#4C4A49" stroke-width="0.5669" stroke-miterlimit="10" d="M260.598,262.241
					c29.63,8.505,252.287,64.417,262.353,102.877"/>
				<g>
					<path fill="#4C4A49" d="M257.351,261.171c1.347,1.065,2.933,2.651,3.777,4.06l-0.096-2.865l1.76-2.263
						C261.281,260.747,259.066,261.1,257.351,261.171z"/>
				</g>
				<g>
					<path fill="#4C4A49" d="M523.271,368.528c-0.771-1.534-2.004-3.408-3.214-4.52l2.788,0.672l2.571-1.266
						C524.48,364.764,523.688,366.862,523.271,368.528z"/>
				</g>
			</g>
		</g>
		<g opacity="0.8">
			<g>
				<path fill="none" stroke="#4C4A49" stroke-width="0.5669" stroke-miterlimit="10" d="M260.662,248.288
					c33.156,6.865,310.88,49.482,632.957-27.317"/>
				<g>
					<path fill="#4C4A49" d="M257.351,247.444c1.417,0.97,3.108,2.443,4.048,3.791l-0.293-2.853l1.6-2.379
						C261.242,246.75,259.058,247.255,257.351,247.444z"/>
				</g>
				<g>
					<path fill="#4C4A49" d="M896.953,220.172c-1.436,0.942-3.154,2.383-4.119,3.712l0.346-2.846l-1.553-2.409
						C893.074,219.404,895.25,219.951,896.953,220.172z"/>
				</g>
			</g>
		</g>
		<g opacity="0.8">
			<g>
				<path fill="none" stroke="#4C4A49" stroke-width="0.5669" stroke-miterlimit="10" d="M423.268,154.024
					c-17.549,10.146-117.944,50.921-183.021,168.872"/>
				<g>
					<path fill="#4C4A49" d="M425.93,151.867c-1.641,0.506-3.847,0.913-5.486,0.81l2.415,1.546l0.867,2.732
						C424.051,155.345,425.016,153.321,425.93,151.867z"/>
				</g>
				<g>
					<path fill="#4C4A49" d="M238.605,325.9c0.27-1.696,0.362-3.937,0.029-5.545l1.87,2.173l2.827,0.473
						C241.784,323.55,239.916,324.791,238.605,325.9z"/>
				</g>
			</g>
		</g>
		<g opacity="0.8">
			<g>
				<path fill="none" stroke="#898989" stroke-width="0.5669" stroke-miterlimit="10" d="M370.287,430.109
					c0,0,78.878-38.598,107.867-40.172"/>
				<g>
					<path fill="#898989" d="M481.573,389.943c-1.604,0.614-3.591,1.653-4.818,2.745l0.948-2.706l-1.003-2.686
						C477.949,388.364,479.957,389.363,481.573,389.943z"/>
				</g>
			</g>
		</g>
		<g opacity="0.8">
			<g>
				<path fill="none" stroke="#AAABAB" stroke-width="0.5669" stroke-miterlimit="10" stroke-dasharray="2.8347,5.6693" d="
					M178.221,447.552c0,0,117.207-39.279,298.761-64.757"/>
				<g>
					<path fill="#AAABAB" d="M480.37,382.322c-1.5,0.835-3.319,2.147-4.379,3.402l0.554-2.813l-1.374-2.516
						C476.559,381.274,478.688,381.978,480.37,382.322z"/>
				</g>
			</g>
		</g>
		<g opacity="0.8">
			<g>
				<path fill="none" stroke="#AAABAB" stroke-width="0.5669" stroke-miterlimit="10" stroke-dasharray="2.8347,5.6693" d="
					M305.771,165.838c0,0,51.297,136.349,174.302,200.374"/>
				<g>
					<path fill="#AAABAB" d="M483.12,367.775c-1.702-0.231-3.943-0.272-5.545,0.097l2.131-1.919l0.409-2.837
						C480.698,364.651,481.98,366.491,483.12,367.775z"/>
				</g>
			</g>
		</g>
		<g opacity="0.8">
			<g>
				<path fill="none" stroke="#727171" stroke-width="0.5669" stroke-miterlimit="10" stroke-dasharray="2.8347,5.6693" d="
					M265.77,165.838c0,0,35.469,49.467,43.876,125.929"/>
				<g>
					<path fill="#727171" d="M310,295.17c-0.789-1.525-2.045-3.383-3.268-4.48l2.795,0.639l2.557-1.297
						C311.164,291.393,310.396,293.5,310,295.17z"/>
				</g>
			</g>
		</g>
		<g opacity="0.8">
			<g>
				<path fill="none" stroke="#898989" stroke-width="0.5669" stroke-miterlimit="10" d="M382.795,440.505
					c0,0,120.612-3.991,218.168,4.369"/>
				<g>
					<path fill="#898989" d="M604.367,445.172c-1.648,0.48-3.713,1.354-5.025,2.341l1.166-2.619l-0.779-2.759
						C600.885,443.301,602.805,444.461,604.367,445.172z"/>
				</g>
			</g>
		</g>
		<g opacity="0.8">
			<g>
				<path fill="none" stroke="#AAABAB" stroke-width="0.5669" stroke-miterlimit="10" stroke-dasharray="2.8347,5.6693" d="
					M391.952,361.112c0,0,58.975,5.782,85.167,13.768"/>
				<g>
					<path fill="#AAABAB" d="M480.37,375.943c-1.715,0.084-3.927,0.454-5.433,1.11l1.742-2.277l-0.117-2.865
						C477.418,373.315,479.015,374.889,480.37,375.943z"/>
				</g>
			</g>
		</g>
		<g opacity="0.8">
			<g>
				<path fill="none" stroke="#727171" stroke-width="0.5669" stroke-miterlimit="10" stroke-dasharray="2.8347,5.6693" d="
					M341.568,385.415c0,0,5.16,12.934-11.29,33.994"/>
				<g>
					<path fill="#727171" d="M328.12,422.068c0.534-1.632,0.979-3.83,0.903-5.471l1.505,2.441l2.717,0.913
						C331.63,420.249,329.589,421.179,328.12,422.068z"/>
				</g>
			</g>
		</g>
		<g opacity="0.8">
			<g>
				<path fill="none" stroke="#AAABAB" stroke-width="0.5669" stroke-miterlimit="10" stroke-dasharray="2.8347,5.6693" d="
					M434.645,248.412c0,0-38.155,147.434-74.634,173.822"/>
				<g>
					<path fill="#AAABAB" d="M357.122,424.068c1.027-1.376,2.15-3.317,2.603-4.896l0.646,2.793l2.283,1.733
						C361.028,423.465,358.798,423.694,357.122,424.068z"/>
				</g>
			</g>
		</g>
		<g opacity="0.8">
			<g>
				<path fill="none" stroke="#AAABAB" stroke-width="0.5669" stroke-miterlimit="10" stroke-dasharray="2.8347,5.6693" d="
					M342.016,458.276c-2.264,12.003-10.954,53.036-27.111,72.23"/>
				<g>
					<path fill="#AAABAB" d="M342.62,454.912c-0.89,1.469-2.267,3.239-3.56,4.252l2.832-0.451l2.464,1.465
						C343.529,458.759,342.903,456.605,342.62,454.912z"/>
				</g>
			</g>
		</g>
		<g opacity="0.8">
			<g>
				<path fill="none" stroke="#AAABAB" stroke-width="0.5669" stroke-miterlimit="10" stroke-dasharray="2.8347,5.6693" d="
					M386.145,450.509c27.124,5.377,211.504,40.766,278.645,22.972"/>
				<g>
					<path fill="#AAABAB" d="M382.795,449.838c1.471,0.886,3.244,2.258,4.261,3.549l-0.458-2.831l1.459-2.468
						C386.64,448.92,384.488,449.55,382.795,449.838z"/>
				</g>
			</g>
		</g>
		<g opacity="0.8">
			<g>
				<path fill="none" stroke="#AAABAB" stroke-width="0.5669" stroke-miterlimit="10" stroke-dasharray="2.8347,5.6693" d="
					M583.152,405.212c-27.075,12.923-223.624,107.171-241.354,128.233"/>
				<g>
					<path fill="#AAABAB" d="M586.238,403.742c-1.71,0.16-3.952,0.107-5.535-0.329l2.047,2.007l0.29,2.852
						C583.688,406.762,585.046,404.978,586.238,403.742z"/>
				</g>
			</g>
		</g>
		<g opacity="0.8">
			<g>
				<path fill="none" stroke="#4C4A49" stroke-width="0.5669" stroke-miterlimit="10" d="M558.615,379.796
					c5.908-0.555,19.018-0.25,34.919,9.661"/>
				<g>
					<path fill="#4C4A49" d="M555.237,380.323c1.679,0.361,3.802,1.085,5.181,1.977l-1.35-2.529l0.58-2.808
						C558.577,378.208,556.746,379.502,555.237,380.323z"/>
				</g>
				<g>
					<path fill="#4C4A49" d="M596.403,391.331c-1.679-0.363-3.91-0.579-5.535-0.335l2.272-1.748l0.629-2.797
						C594.232,388.027,595.367,389.961,596.403,391.331z"/>
				</g>
			</g>
		</g>
		<g opacity="0.8">
			<g>
				<path fill="none" stroke="#4C4A49" stroke-width="0.5669" stroke-miterlimit="10" d="M683.443,434.708
					c3.537-8.719,11.207-33.031-10.359-38.887"/>
				<g>
					<path fill="#4C4A49" d="M682.063,437.838c1.18-1.248,2.898-2.688,4.377-3.404l-2.863-0.158l-2.1-1.952
						C681.986,433.886,682.143,436.123,682.063,437.838z"/>
				</g>
				<g>
					<path fill="#4C4A49" d="M669.729,395.102c1.703-0.226,3.877-0.778,5.322-1.557l-1.547,2.414l0.354,2.845
						C672.889,397.477,671.168,396.041,669.729,395.102z"/>
				</g>
			</g>
		</g>
		<g opacity="0.8">
			<g>
				<path fill="none" stroke="#4C4A49" stroke-width="0.5669" stroke-miterlimit="10" d="M514.178,402.863
					c6.803,7.875,31.052,30.413,86.762,31.884"/>
				<g>
					<path fill="#4C4A49" d="M512.07,400.172c0.532,1.633,0.974,3.832,0.896,5.472l1.508-2.439l2.718-0.91
						C515.578,401.995,513.538,401.063,512.07,400.172z"/>
				</g>
				<g>
					<path fill="#4C4A49" d="M604.367,434.811c-1.633,0.532-3.67,1.469-4.951,2.498l1.084-2.655l-0.865-2.733
						C600.828,433.05,602.783,434.149,604.367,434.811z"/>
				</g>
			</g>
		</g>
		<g opacity="0.8">
			<g>
				<path fill="none" stroke="#4C4A49" stroke-width="0.5669" stroke-miterlimit="10" d="M935.627,269.518
					c-2.969,8.62-13.225,32.805-40.346,54.288"/>
				<g>
					<path fill="#4C4A49" d="M936.639,266.252c-1.063,1.349-2.646,2.937-4.055,3.784l2.865-0.1l2.266,1.756
						C937.068,270.182,936.711,267.968,936.639,266.252z"/>
				</g>
				<g>
					<path fill="#4C4A49" d="M892.57,325.9c0.883-1.472,1.807-3.516,2.1-5.133l0.922,2.715l2.445,1.496
						C896.396,324.908,894.199,325.36,892.57,325.9z"/>
				</g>
			</g>
		</g>
		<g opacity="0.8">
			<g>
				<path fill="none" stroke="#AAABAB" stroke-width="0.5669" stroke-miterlimit="10" stroke-dasharray="2.8347,5.6693" d="
					M509.332,136.239c0,0,348.246-7.182,425.027,74.655"/>
				<g>
					<path fill="#AAABAB" d="M936.639,213.443c-1.529-0.782-3.631-1.565-5.264-1.748l2.646-1.104l1.326-2.541
						C935.391,209.692,935.99,211.854,936.639,213.443z"/>
				</g>
			</g>
		</g>
		<g opacity="0.8">
			<g>
				<path fill="none" stroke="#4C4A49" stroke-width="0.5669" stroke-miterlimit="10" d="M342.742,350.284
					c1.507-3.606,2.763-10.586-2.106-21.312"/>
				<g>
					<path fill="#4C4A49" d="M341.005,353.233c1.31-1.111,3.177-2.353,4.726-2.902l-2.829-0.472l-1.871-2.171
						C341.364,349.296,341.273,351.537,341.005,353.233z"/>
				</g>
				<g>
					<path fill="#4C4A49" d="M339.123,325.9c1.243,1.185,3.035,2.532,4.549,3.171l-2.851,0.307l-1.994,2.059
						C339.254,329.851,339.293,327.609,339.123,325.9z"/>
				</g>
			</g>
		</g>
	</g>

	<g id="Entities_1_">
		<g id="alinsky" class="name">
			<text transform="matrix(1 0 0 1 131.9604 143.0151)"><tspan x="0" y="0" fill="#232120" font-family="'HelveticaNeue'" font-size="10">Saul Alinsky</tspan><tspan x="0" y="14.4" fill="#B5B6B6" font-family="'HelveticaNeue'" font-size="10">1960s to 1990s</tspan></text>
		</g>
		<g id="prpcdn" class="name">
			<text transform="matrix(1 0 0 1 906.6094 226.1714)"><tspan x="0" y="0" fill="#232120" font-family="'HelveticaNeue-Italic'" font-size="10">Pacific Rim Participatory </tspan><tspan x="0" y="14.4" fill="#232120" font-family="'HelveticaNeue-Italic'" font-size="10">Community Design Conference </tspan><tspan x="0" y="28.8" fill="#B4B5B5" font-family="'HelveticaNeue-Italic'" font-size="10">1998 to Present</tspan></text>
		</g>
		<g id="davidoff" class="name">
			<text transform="matrix(1 0 0 1 238.6089 144.021)"><tspan x="0" y="0" font-family="'HelveticaNeue'" font-size="10">Paul Davidoff</tspan><tspan x="0" y="14.4" fill="#B5B6B6" font-family="'HelveticaNeue'" font-size="10">1960s to 1980s</tspan></text>
		</g> 
		<g id="hester" class="name">
			<text transform="matrix(1 0 0 1 491.2622 380.3228)"><tspan x="0" y="0" font-family="'HelveticaNeue'" font-size="9">Randy Hester</tspan><tspan x="0" y="14.4" fill="#B4B5B5" font-family="'HelveticaNeue'" font-size="9">1970s to Present</tspan></text>
		</g>
		<g id="and" class="name">
			<text transform="matrix(1 0 0 1 382.7974 201.1714)"><tspan x="0" y="0" font-family="'HelveticaNeue-Italic'" font-size="10">Asian </tspan><tspan x="0" y="12.756" font-family="'HelveticaNeue-Italic'" font-size="10">Neighborhood </tspan><tspan x="0" y="25.512" font-family="'HelveticaNeue-Italic'" font-size="10">Design </tspan><tspan x="0" y="39.912" fill="#B5B6B6" font-family="'HelveticaNeue-Italic'" font-size="10">1973 to Present</tspan></text>
		</g>
		<g id="halprin" class="name">
			<text transform="matrix(1 0 0 1 304.4141 363.396)"><tspan x="0" y="0" font-family="'HelveticaNeue'" font-size="10">Lawrence Halprin</tspan><tspan x="0" y="14.4" fill="#B5B6B6" font-family="'HelveticaNeue'" font-size="10">1960s to 2000s</tspan></text>
		</g>
		<g id="acd" class="name">
			<text transform="matrix(1 0 0 1 434.6475 122.9087)"><tspan x="0" y="0" font-family="'HelveticaNeue-Italic'" font-size="10">Association for </tspan><tspan x="0" y="12.756" font-family="'HelveticaNeue-Italic'" font-size="10">Community </tspan><tspan x="0" y="25.512" font-family="'HelveticaNeue-Italic'" font-size="10">Design Inc. </tspan><tspan x="0" y="39.912" fill="#B5B6B6" font-family="'HelveticaNeue-Italic'" font-size="10">1977 to Present</tspan></text>
		</g>
		<g id="sanoff" class="name">
			<text transform="matrix(1 0 0 1 302.2959 434.811)"><tspan x="0" y="0" font-family="'HelveticaNeue'" font-size="10">Henry Sanoff</tspan><tspan x="0" y="14.4" fill="#B4B5B5" font-family="'HelveticaNeue'" font-size="10">1960s to Present</tspan></text>
		</g>
		<g id="curry" class="name">
			<text transform="matrix(1 0 0 1 210.2617 246.4116)"><tspan x="0" y="0" font-family="'HelveticaNeue'" font-size="10">Rex Curry</tspan><tspan x="0" y="14.4" fill="#B5B6B6" font-family="'HelveticaNeue'" font-size="10">1960s to</tspan><tspan x="0" y="28.8" fill="#B5B6B6" font-family="'HelveticaNeue'" font-size="10">2000s</tspan></text>
		</g>
		<g id="hamdi" class="name">
			<text transform="matrix(1 0 0 1 669.7324 473.481)"><tspan x="0" y="0" fill="#232120" font-family="'HelveticaNeue'" font-size="10">Nabeel Hamdi</tspan><tspan x="0" y="14.4" fill="#B4B5B5" font-family="'HelveticaNeue'" font-size="10">1980s to Present</tspan></text>
		</g>
		<g id="miginc" class="name">
			<text transform="matrix(1 0 0 1 609.4141 432.0688)"><tspan x="0" y="0" font-family="'HelveticaNeue-Italic'" font-size="10">MIG Inc.</tspan><tspan x="0" y="14.4" fill="#B4B5B5" font-family="'HelveticaNeue-Italic'" font-size="10">1980s to Present</tspan></text>
		</g>
		<g id="arnstein" class="name">
			<text transform="matrix(1 0 0 1 281.2944 544.1606)"><tspan x="0" y="0" font-family="'HelveticaNeue'" font-size="10">Sherry Arnstein</tspan><tspan x="0" y="14.4" fill="#B4B5B5" font-family="'HelveticaNeue'" font-size="10">1960s to 1970s</tspan></text>
		</g>
		<g id="francis" class="name">
			<text transform="matrix(1 0 0 1 600.4141 395.8872)"><tspan x="0" y="0" fill="#232120" font-family="'HelveticaNeue'" font-size="10">Mark Francis</tspan><tspan x="0" y="14.4" fill="#B4B5B5" font-family="'HelveticaNeue'" font-size="10">1980s to 2000s</tspan></text>
		</g>
		<g id="hou" class="name">
			<text transform="matrix(1 0 0 1 863.9531 340.1724)"><tspan x="0" y="0" font-family="'HelveticaNeue'" font-size="10">Jeffrey Hou</tspan><tspan x="0" y="14.4" fill="#B4B5B5" font-family="'HelveticaNeue'" font-size="10">1990s to Present</tspan></text>
		</g>
		<g id="linn" class= "name">
			<text transform="matrix(1 0 0 1 130.8032 434.4204)"><tspan x="0" y="0" fill="#232120" font-family="'HelveticaNeue'" font-size="10">Karl Linn</tspan><tspan x="0" y="14.4" fill="#B4B5B5" font-family="'HelveticaNeue'" font-size="10">1960s to</tspan><tspan x="0" y="28.8" fill="#B4B5B5" font-family="'HelveticaNeue'" font-size="10">1990s</tspan></text>
		</g>
		<g id="arch" class="name">
			<text transform="matrix(1 0 0 1 198.3208 339.6362)"><tspan x="0" y="0" font-family="'HelveticaNeue-Italic'" font-size="10">Architectural </tspan><tspan x="0" y="12.756" font-family="'HelveticaNeue-Italic'" font-size="10">Renewal </tspan><tspan x="0" y="25.512" font-family="'HelveticaNeue-Italic'" font-size="10">Committee in </tspan><tspan x="0" y="38.268" font-family="'HelveticaNeue-Italic'" font-size="10">Harlem (ARCH)</tspan><tspan x="0" y="52.668" fill="#B5B6B6" font-family="'HelveticaNeue'" font-size="10">1963 to 1970s</tspan></text>
		</g>
		<g id="arc" class="name">
			<text transform="matrix(1 0 0 1 132.9741 224.4097)"><tspan x="0" y="0" font-family="'HelveticaNeue-Italic'" font-size="10">Architecture</tspan><tspan x="0" y="12.756" font-family="'HelveticaNeue-Italic'" font-size="10">Research</tspan><tspan x="0" y="25.512" font-family="'HelveticaNeue-Italic'" font-size="10">Construction </tspan><tspan x="0" y="38.268" font-family="'HelveticaNeue-Italic'" font-size="10">(ARC) </tspan><tspan x="0" y="52.668" fill="#B5B6B6" font-family="'HelveticaNeue'" font-size="10">1960s to</tspan><tspan x="0" y="67.068" fill="#B5B6B6" font-family="'HelveticaNeue'" font-size="10">Present</tspan></text>
		</g>
		<g id="krumholz" class="name">
			<text transform="matrix(1 0 0 1 280.7002 306.2827)"><tspan x="0" y="0" font-family="'HelveticaNeue'" font-size="10">Norman Krumholz</tspan><tspan x="0" y="14.4" fill="#B5B6B6" font-family="'HelveticaNeue'" font-size="10">1960s to Present</tspan></text>
		</g>
	</g>
</g>
<g id="Background">
	<rect x="68.285" y="969" fill="#DCDDDD" width="1152.05" height="439.562"/>
	<rect x="68.286" y="570.172" fill="#F7F8F8" width="1152.049" height="398.829"/>
	<rect x="68.287" y="1408.562" fill="#F7F8F8" width="1152.048" height="152.42"/>
	<rect x="68.285" y="1560.875" fill="#DCDDDD" width="1152.05" height="417.006"/>
	<g>
		<text transform="matrix(1 0 0 1 1493.793 1269.7153)" fill="#232120" font-family="'HelveticaNeue'" font-size="11.3386">Community Design</text>
	</g>
	<rect x="1650.107" y="1259.364" opacity="0.3" fill="#F4C51D" width="82.665" height="13.689"/>
	<g>
		<text transform="matrix(1 0 0 1 1493.793 1289.7261)" fill="#232120" font-family="'HelveticaNeue'" font-size="11.3386">Youth Development</text>
	</g>
	<rect x="1650.107" y="1280.749" opacity="0.3" fill="#E73453" width="82.665" height="13.691"/>
	<g>
		<text transform="matrix(1 0 0 1 1493.793 1310.0542)" fill="#232120" font-family="'HelveticaNeue'" font-size="11.3386">International Development </text>
	</g>
	<rect x="1650.107" y="1301.081" opacity="0.3" fill="#5DBEEB" width="82.665" height="13.688"/>
	<g>
		<text transform="matrix(1 0 0 1 1493.793 1330.3823)" fill="#232120" font-family="'HelveticaNeue'" font-size="11.3386">Public Health</text>
	</g>
	<rect x="1650.107" y="1321.407" opacity="0.3" fill="#A5A5A5" width="82.665" height="13.689"/>
	<g>
		<text transform="matrix(1 0 0 1 1493.793 1350.7104)" fill="#232120" font-family="'HelveticaNeue'" font-size="11.3386">Technology Development</text>
	</g>
	<rect x="1650.107" y="1341.733" opacity="0.3" fill="#64B962" width="82.665" height="13.689"/>
</g>
<g id="Legend">
	<g>
		<g>
			<g>
				
					<line fill="none" stroke="#898989" stroke-width="0.8504" stroke-miterlimit="10" x1="66.981" y1="2026.756" x2="104.853" y2="2026.756"/>
				<g>
					<path fill="#898989" d="M109.985,2026.756c-2.415,0.896-5.411,2.425-7.269,4.044l1.463-4.044l-1.463-4.044
						C104.574,2024.333,107.57,2025.861,109.985,2026.756z"/>
				</g>
			</g>
		</g>
		<text transform="matrix(1 0 0 1 120.4238 2030.2759)" font-family="'MyriadPro-Regular'" font-size="12">Some types of one-way strong influence (professor-student and/or strong inspiration) </text>
	</g>
	<g>
		<g>
			<g>
				
					<line fill="none" stroke="#AAABAB" stroke-width="0.8504" stroke-miterlimit="10" x1="66.981" y1="2064.825" x2="71.233" y2="2064.825"/>
				
					<line fill="none" stroke="#AAABAB" stroke-width="0.8504" stroke-miterlimit="10" stroke-dasharray="7.3419,4.8946" x1="76.127" y1="2064.825" x2="98.154" y2="2064.825"/>
				
					<line fill="none" stroke="#AAABAB" stroke-width="0.8504" stroke-miterlimit="10" x1="100.601" y1="2064.825" x2="104.853" y2="2064.825"/>
				<g>
					<path fill="#AAABAB" d="M109.985,2064.825c-2.415,0.896-5.411,2.426-7.269,4.045l1.463-4.045l-1.463-4.043
						C104.574,2062.401,107.57,2063.93,109.985,2064.825z"/>
				</g>
			</g>
		</g>
		<text transform="matrix(1 0 0 1 120.4238 2068.3423)" font-family="'MyriadPro-Regular'" font-size="12">Some types of one-way influence (citation, applying theories and/or methods)</text>
	</g>
	<g>
		<g>
			<g>
				
					<line fill="none" stroke="#4C4A49" stroke-width="0.8504" stroke-miterlimit="10" x1="72.113" y1="2008.114" x2="104.853" y2="2008.114"/>
				<g>
					<path fill="#4C4A49" d="M66.981,2008.114c2.415,0.896,5.411,2.424,7.269,4.043l-1.463-4.043l1.463-4.045
						C72.392,2005.69,69.396,2007.217,66.981,2008.114z"/>
				</g>
				<g>
					<path fill="#4C4A49" d="M109.985,2008.114c-2.415,0.896-5.411,2.424-7.269,4.043l1.463-4.043l-1.463-4.045
						C104.574,2005.69,107.57,2007.217,109.985,2008.114z"/>
				</g>
			</g>
		</g>
		<text transform="matrix(1 0 0 1 120.4238 2011.2407)" font-family="'MyriadPro-Regular'" font-size="12">Some types of close mutual relationship (co-workers and co-authors)</text>
	</g>
	<text transform="matrix(1 0 0 1 1086.6064 1542.5591)" fill="#232120" font-family="'HelveticaNeue'" font-size="18">Public Health</text>
	<text transform="matrix(1 0 0 1 1036.2246 949.7734)" fill="#232120" font-family="'HelveticaNeue'" font-size="18">Youth Development</text>
	<text transform="matrix(1 0 0 1 982.2441 1389.9146)" fill="#232120" font-family="'HelveticaNeue'" font-size="18">International Development</text>
	<g>
		<text transform="matrix(1 0 0 1 990.2354 1951.2544)" fill="#232120" font-family="'HelveticaNeue'" font-size="18">Technology Development</text>
	</g>
</g>
<g id="Connections">
	<rect x="104.129" y="88.311" fill="none" width="28.862" height="16.899"/>
	<g>
		<text transform="matrix(1 0 0 1 120.4199 2049.3091)" font-family="'MyriadPro-Regular'" font-size="12">Some types of mutual influence (citation, applying theories and/or methods)</text>
		<g>
			<g>
				
					<line fill="none" stroke="#898989" stroke-width="0.8504" stroke-miterlimit="10" stroke-dasharray="5.6693,5.6693" x1="72.113" y1="2045.79" x2="104.853" y2="2045.79"/>
				<g>
					<path fill="#898989" d="M66.981,2045.79c2.415,0.896,5.411,2.425,7.269,4.044l-1.463-4.044l1.463-4.044
						C72.392,2043.366,69.396,2044.894,66.981,2045.79z"/>
				</g>
				<g>
					<path fill="#898989" d="M109.985,2045.79c-2.415,0.896-5.411,2.425-7.269,4.044l1.463-4.044l-1.463-4.044
						C104.574,2043.366,107.57,2044.894,109.985,2045.79z"/>
				</g>
			</g>
		</g>
	</g>
	<g opacity="0.8">
		<g>
			<path fill="none" stroke="#AAABAB" stroke-width="0.5669" stroke-miterlimit="10" stroke-dasharray="2.8347,5.6693" d="
				M357.57,551.172c0,0,39.111,34.137,94.597,90.154"/>
			<g>
				<path fill="#AAABAB" d="M454.573,643.759c-1.564-0.708-3.701-1.389-5.341-1.493l2.59-1.23l1.204-2.602
					C453.146,640.072,453.849,642.202,454.573,643.759z"/>
			</g>
		</g>
	</g>
	<g opacity="0.8">
		<g>
			<path fill="none" stroke="#4C4A49" stroke-width="0.5669" stroke-miterlimit="10" d="M440.727,737.755
				c-11.716-20.444-69.494-145.73,177.139-286.223"/>
			<g>
				<path fill="#4C4A49" d="M442.519,740.667c-0.311-1.689-0.457-3.927-0.163-5.543l-1.817,2.218l-2.815,0.542
					C439.284,738.394,441.182,739.589,442.519,740.667z"/>
			</g>
			<g>
				<path fill="#4C4A49" d="M620.852,449.838c-1.086,1.33-2.293,3.22-2.816,4.778l-0.521-2.819l-2.207-1.832
					C616.922,450.27,619.16,450.138,620.852,449.838z"/>
			</g>
		</g>
	</g>
	<g opacity="0.8">
		<g>
			<path fill="none" stroke="#4C4A49" stroke-width="0.5669" stroke-miterlimit="10" d="M670.547,811.31
				C650.52,798.301,531.11,720.584,490.315,690.4"/>
			<g>
				<path fill="#4C4A49" d="M673.414,813.17c-1.02-1.382-2.133-3.329-2.576-4.911l-0.662,2.79l-2.293,1.72
					C669.51,812.544,671.74,812.787,673.414,813.17z"/>
			</g>
			<g>
				<path fill="#4C4A49" d="M487.572,688.353c1.655,0.457,3.872,0.798,5.508,0.646l-2.368,1.617l-0.784,2.757
					C489.554,691.773,488.529,689.778,487.572,688.353z"/>
			</g>
		</g>
	</g>
	<g opacity="0.8">
		<g>
			<path fill="none" stroke="#4C4A49" stroke-width="0.5669" stroke-miterlimit="10" d="M466.129,730.308
				c1.322-6.41,3.231-21.041-2.949-34.534"/>
			<g>
				<path fill="#4C4A49" d="M465.324,733.631c0.953-1.429,2.406-3.137,3.742-4.092l-2.848,0.326l-2.398-1.572
					C464.585,729.748,465.115,731.927,465.324,733.631z"/>
			</g>
			<g>
				<path fill="#4C4A49" d="M461.627,692.721c1.255,1.172,3.061,2.501,4.581,3.125l-2.848,0.335l-1.974,2.08
					C461.798,696.67,461.814,694.428,461.627,692.721z"/>
			</g>
		</g>
	</g>
	<g opacity="0.8">
		<g>
			<path fill="none" stroke="#4C4A49" stroke-width="0.5669" stroke-miterlimit="10" d="M353.287,685.886
				c2.952,20.331,18.15,126.95,18.92,172.38"/>
			<g>
				<path fill="#4C4A49" d="M352.793,682.504c-0.376,1.676-1.117,3.792-2.021,5.164l2.541-1.329l2.802,0.604
					C354.879,685.861,353.601,684.019,352.793,682.504z"/>
			</g>
			<g>
				<path fill="#4C4A49" d="M372.237,861.689c-0.633-1.597-1.696-3.571-2.803-4.785l2.718,0.916l2.673-1.035
					C373.773,858.047,372.799,860.066,372.237,861.689z"/>
			</g>
		</g>
	</g>
	<g opacity="0.8">
		<g>
			<path fill="none" stroke="#4C4A49" stroke-width="0.5669" stroke-miterlimit="10" d="M844.063,882.096
				c-35.217-0.855-331.036-10.845-342.859-105"/>
			<g>
				<path fill="#4C4A49" d="M847.479,882.168c-1.592-0.645-3.559-1.719-4.766-2.834l0.896,2.723l-1.051,2.666
					C843.826,883.68,845.854,882.719,847.479,882.168z"/>
			</g>
			<g>
				<path fill="#4C4A49" d="M500.901,773.686c0.76,1.54,1.979,3.422,3.18,4.543l-2.782-0.693l-2.581,1.247
					C499.664,777.44,500.473,775.348,500.901,773.686z"/>
			</g>
		</g>
	</g>
	<g opacity="0.8">
		<g>
			<path fill="none" stroke="#4C4A49" stroke-width="0.5669" stroke-miterlimit="10" d="M802.209,923.963
				C541.92,907.856,481.216,799.055,472.203,779.039"/>
			<g>
				<path fill="#4C4A49" d="M805.625,924.168c-1.563-0.713-3.482-1.873-4.639-3.039l0.777,2.76l-1.166,2.617
					C801.91,925.52,803.977,924.647,805.625,924.168z"/>
			</g>
			<g>
				<path fill="#4C4A49" d="M470.902,775.878c1.182,1.246,2.903,2.683,4.383,3.397l-2.863,0.162l-2.096,1.956
					C470.833,779.83,470.985,777.593,470.902,775.878z"/>
			</g>
		</g>
	</g>
	<g opacity="0.8">
		<g>
			<path fill="none" stroke="#4C4A49" stroke-width="0.5669" stroke-miterlimit="10" d="M819.225,695.477
				c-1.758,10.198-10.65,40.216-54.748,45.711"/>
			<g>
				<path fill="#4C4A49" d="M819.646,692.085c-0.803,1.519-2.072,3.367-3.305,4.454l2.801-0.617l2.547,1.318
					C820.779,695.872,820.029,693.759,819.646,692.085z"/>
			</g>
			<g>
				<path fill="#4C4A49" d="M761.074,741.556c1.531-0.78,3.396-2.024,4.502-3.24l-0.656,2.791l1.281,2.564
					C764.846,742.743,762.742,741.962,761.074,741.556z"/>
			</g>
		</g>
	</g>
	<g opacity="0.8">
		<g>
			<path fill="none" stroke="#4C4A49" stroke-width="0.5669" stroke-miterlimit="10" d="M846.275,691.641
				c6.369,17.64,36.957,104.148,46.332,163.912"/>
			<g>
				<path fill="#4C4A49" d="M845.107,688.431c-0.023,1.717-0.314,3.94-0.916,5.469l2.213-1.822l2.867,0.016
					C847.84,691.288,846.209,689.748,845.107,688.431z"/>
			</g>
			<g>
				<path fill="#4C4A49" d="M893.119,858.939c-0.852-1.49-2.184-3.295-3.451-4.34l2.818,0.521l2.5-1.403
					C894.125,855.116,893.445,857.254,893.119,858.939z"/>
			</g>
		</g>
	</g>
	<g opacity="0.8">
		<g>
			<path fill="none" stroke="#4C4A49" stroke-width="0.5669" stroke-miterlimit="10" d="M875.535,626.737
				c12.734,15.087,74.115,96.153,47.275,228.848"/>
			<g>
				<path fill="#4C4A49" d="M873.279,624.17c0.598,1.609,1.131,3.788,1.121,5.431l1.406-2.5l2.678-1.021
					C876.859,625.847,874.783,625,873.279,624.17z"/>
			</g>
			<g>
				<path fill="#4C4A49" d="M922.115,858.939c-0.283-1.693-0.908-3.848-1.736-5.267l2.465,1.465l2.83-0.45
					C924.381,855.701,923.004,857.471,922.115,858.939z"/>
			</g>
		</g>
	</g>
	<g opacity="0.8">
		<g>
			<path fill="none" stroke="#4C4A49" stroke-width="0.5669" stroke-miterlimit="10" d="M1104.918,776.468
				c-14.34,19.771-104.857,138.945-220.66,164.105"/>
			<g>
				<path fill="#4C4A49" d="M1106.902,773.686c-1.43,0.952-3.428,1.971-5.027,2.339l2.754,0.794l1.609,2.373
					C1106.092,777.555,1106.439,775.339,1106.902,773.686z"/>
			</g>
			<g>
				<path fill="#4C4A49" d="M880.902,941.274c1.436-0.943,3.154-2.385,4.119-3.715l-0.346,2.846l1.555,2.41
					C884.781,942.04,882.605,941.495,880.902,941.274z"/>
			</g>
		</g>
	</g>
	<g opacity="0.8">
		<g>
			<path fill="none" stroke="#4C4A49" stroke-width="0.5669" stroke-miterlimit="10" d="M483.485,635.691
				c9.854-7.029,60.502-26.284,318.718-21.585"/>
			<g>
				<path fill="#4C4A49" d="M481.128,638.17c1.556-0.727,3.684-1.434,5.322-1.558l-2.604-1.199l-1.235-2.587
					C482.51,634.466,481.833,636.604,481.128,638.17z"/>
			</g>
			<g>
				<path fill="#4C4A49" d="M805.625,614.17c-1.617,0.577-3.629,1.57-4.881,2.634l1.01-2.684l-0.939-2.708
					C802.039,612.508,804.021,613.552,805.625,614.17z"/>
			</g>
		</g>
	</g>
	<g opacity="0.8">
		<g>
			<path fill="none" stroke="#4C4A49" stroke-width="0.5669" stroke-miterlimit="10" d="M818.441,699.137
				c0,0-3.834,122.66-57.221,132.563"/>
			<g>
				<path fill="#4C4A49" d="M757.826,832.169c1.506-0.827,3.332-2.129,4.398-3.379l-0.568,2.811l1.359,2.523
					C761.633,833.238,759.508,832.523,757.826,832.169z"/>
			</g>
		</g>
	</g>
	<g opacity="0.8">
		<g>
			<path fill="none" stroke="#4C4A49" stroke-width="0.5669" stroke-miterlimit="10" d="M490.959,673.162
				c17.684,8.478,107.813,50.27,169.203,51.833"/>
			<g>
				<path fill="#4C4A49" d="M487.885,671.67c1.206,1.222,2.586,2.991,3.251,4.493l0.257-2.856l2.023-2.03
					C491.837,671.731,489.596,671.81,487.885,671.67z"/>
			</g>
			<g>
				<path fill="#4C4A49" d="M663.584,725.039c-1.623,0.559-3.645,1.53-4.908,2.58l1.039-2.672l-0.91-2.718
					C660.018,723.337,661.99,724.404,663.584,725.039z"/>
			</g>
		</g>
	</g>
	<g opacity="0.8">
		<g>
			<path fill="none" stroke="#4C4A49" stroke-width="0.5669" stroke-miterlimit="10" d="M499.661,643.34
				c38.411-4.585,393.101-42.609,551.349,95.942"/>
			<g>
				<path fill="#4C4A49" d="M496.27,643.76c1.667,0.414,3.766,1.204,5.116,2.139l-1.27-2.571l0.668-2.788
					C499.674,641.751,497.803,642.987,496.27,643.76z"/>
			</g>
			<g>
				<path fill="#4C4A49" d="M1053.57,741.556c-1.609-0.6-3.787-1.133-5.43-1.125l2.5-1.404l1.021-2.678
					C1051.895,737.975,1052.74,740.052,1053.57,741.556z"/>
			</g>
		</g>
	</g>
	<g opacity="0.8">
		<g>
			<path fill="none" stroke="#4C4A49" stroke-width="0.5669" stroke-miterlimit="10" d="M495.941,659.546
				c18.364,0.202,110.646,2.029,274.221,18.597"/>
			<g>
				<path fill="#4C4A49" d="M492.524,659.521c1.6,0.624,3.58,1.677,4.8,2.777l-0.93-2.712l1.02-2.679
					C496.158,657.966,494.145,658.952,492.524,659.521z"/>
			</g>
			<g>
				<path fill="#4C4A49" d="M773.57,678.489c-1.66,0.441-3.746,1.266-5.08,2.223l1.227-2.591l-0.715-2.776
					C770.133,676.537,772.023,677.742,773.57,678.489z"/>
			</g>
		</g>
	</g>
	<g opacity="0.8">
		<g>
			<path fill="none" stroke="#AAABAB" stroke-width="0.5669" stroke-miterlimit="10" stroke-dasharray="2.8347,5.6693" d="
				M802.215,953.209c-22.221,1.059-153.238,2.84-399.416-81.571"/>
			<g>
				<path fill="#AAABAB" d="M805.625,953c-1.639-0.514-3.688-1.428-4.979-2.441l1.113,2.643l-0.834,2.742
					C802.105,954.801,804.047,953.68,805.625,953z"/>
			</g>
		</g>
	</g>
	<g opacity="0.8">
		<g>
			<path fill="none" stroke="#AAABAB" stroke-width="0.5669" stroke-miterlimit="10" stroke-dasharray="2.8347,5.6693" d="
				M802.207,939.264c-45.039-0.105-519.816-9.811-497.793-372.092"/>
			<g>
				<path fill="#AAABAB" d="M805.625,939.252c-1.609-0.598-3.607-1.617-4.846-2.697l0.975,2.697l-0.975,2.695
					C802.018,940.868,804.014,939.848,805.625,939.252z"/>
			</g>
		</g>
	</g>
	<g opacity="0.8">
		<g>
			<path fill="none" stroke="#AAABAB" stroke-width="0.5669" stroke-miterlimit="10" stroke-dasharray="2.8347,5.6693" d="
				M435.704,1457.244c-37.166,0.135-361.009-23.076-145.833-890.072"/>
			<g>
				<path fill="#AAABAB" d="M439.119,1457.144c-1.624-0.561-3.645-1.531-4.908-2.582l1.039,2.674l-0.911,2.717
					C435.551,1458.845,437.523,1457.779,439.119,1457.144z"/>
			</g>
		</g>
	</g>
	<g opacity="0.8">
		<g>
			<path fill="none" stroke="#AAABAB" stroke-width="0.5669" stroke-miterlimit="10" stroke-dasharray="2.8347,5.6693" d="
				M227.71,1499c0,0-179.642-513.989,75.202-1038.995"/>
			<g>
				<path fill="#AAABAB" d="M304.411,456.927c-0.152,1.71-0.091,3.952,0.353,5.534l-2.016-2.039l-2.854-0.278
					C301.401,459.49,303.181,458.124,304.411,456.927z"/>
			</g>
		</g>
	</g>
	<g opacity="0.8">
		<g>
			<path fill="none" stroke="#898989" stroke-width="0.5669" stroke-miterlimit="10" d="M802.262,599.124
				c-31.131-5.434-271.691-43.528-440.078,44.636"/>
			<g>
				<path fill="#898989" d="M805.625,599.73c-1.488-0.858-3.285-2.198-4.326-3.47l0.51,2.821l-1.412,2.494
					C801.797,600.719,803.938,600.049,805.625,599.73z"/>
			</g>
		</g>
	</g>
	<g opacity="0.8">
		<g>
			<path fill="none" stroke="#4C4A49" stroke-width="0.5669" stroke-miterlimit="10" d="M449.603,980.25
				c24.092-32.764,254.526-349.653,251.263-479.055"/>
			<g>
				<path fill="#4C4A49" d="M447.573,983c1.432-0.949,3.433-1.961,5.034-2.324l-2.752-0.803l-1.603-2.377
					C448.395,979.133,448.04,981.348,447.573,983z"/>
			</g>
			<g>
				<path fill="#4C4A49" d="M700.721,497.774c0.643,1.593,1.717,3.562,2.83,4.77l-2.723-0.9l-2.668,1.049
					C699.205,501.425,700.17,499.4,700.721,497.774z"/>
			</g>
		</g>
	</g>
	<g opacity="0.8">
		<g>
			<path fill="none" stroke="#898989" stroke-width="0.5669" stroke-miterlimit="10" d="M364.902,678.489
				c0,0,7.102,51.022,71.042,77.718"/>
			<g>
				<path fill="#898989" d="M439.115,757.492c-1.716-0.068-3.952,0.104-5.51,0.625l1.938-2.113l0.137-2.864
					C436.407,754.613,437.858,756.322,439.115,757.492z"/>
			</g>
		</g>
	</g>
	<g opacity="0.8">
		<g>
			<path fill="none" stroke="#727171" stroke-width="0.5669" stroke-miterlimit="10" d="M712.963,790.98
				c1.143-5.069,2.346-15.752-2.486-30.262"/>
			<g>
				<path fill="#727171" d="M712.008,794.264c1.006-1.393,2.52-3.047,3.889-3.953l-2.857,0.222l-2.34-1.658
					C711.41,790.356,711.861,792.553,712.008,794.264z"/>
			</g>
			<g>
				<path fill="#727171" d="M709.324,757.492c1.098,1.322,2.719,2.87,4.148,3.681l-2.867-0.028l-2.223,1.812
					C708.992,761.431,709.295,759.209,709.324,757.492z"/>
			</g>
		</g>
	</g>
	<g opacity="0.8">
		<g>
			<path fill="none" stroke="#AAABAB" stroke-width="0.5669" stroke-miterlimit="10" stroke-dasharray="2.8347,5.6693" d="
				M399.515,1207.878c-12.839-3.637-59.849-15.914-77.944-6.287"/>
			<g>
				<path fill="#AAABAB" d="M402.796,1208.835c-1.391-1.008-3.042-2.525-3.946-3.896l0.217,2.859l-1.661,2.336
					C398.887,1209.425,401.085,1208.978,402.796,1208.835z"/>
			</g>
		</g>
	</g>
	<g opacity="0.8">
		<g>
			<path fill="none" stroke="#AAABAB" stroke-width="0.5669" stroke-miterlimit="10" stroke-dasharray="2.8347,5.6693" d="
				M371.156,1266.32c-9.433-0.148-37.474-4.203-72.377-42.658"/>
			<g>
				<path fill="#AAABAB" d="M374.57,1266.171c-1.63-0.541-3.662-1.49-4.938-2.525l1.069,2.66l-0.88,2.729
					C371.021,1267.914,372.982,1266.824,374.57,1266.171z"/>
			</g>
		</g>
	</g>
	<g opacity="0.8">
		<g>
			<path fill="none" stroke="#AAABAB" stroke-width="0.5669" stroke-miterlimit="10" stroke-dasharray="2.8347,5.6693" d="
				M279.311,1131.025c-3.642,8.545-13.197,33.334-13.197,58.139"/>
			<g>
				<path fill="#AAABAB" d="M280.697,1127.902c-1.188,1.24-2.917,2.668-4.399,3.375l2.861,0.176l2.087,1.967
					C280.747,1131.855,280.605,1129.617,280.697,1127.902z"/>
			</g>
		</g>
	</g>
	<g opacity="0.8">
		<g>
			<path fill="none" stroke="#4C4A49" stroke-width="0.5669" stroke-miterlimit="10" d="M449.467,1236.685
				c6.228,6.207,32.853,21.441,146.538,34.521"/>
			<g>
				<path fill="#4C4A49" d="M447.57,1233.835c0.438,1.66,0.756,3.881,0.586,5.514l1.643-2.35l2.766-0.754
					C450.969,1235.853,448.985,1234.808,447.57,1233.835z"/>
			</g>
			<g>
				<path fill="#4C4A49" d="M599.41,1271.595c-1.67,0.398-3.776,1.17-5.135,2.092l1.294-2.559l-0.643-2.795
					C596.025,1269.556,597.885,1270.808,599.41,1271.595z"/>
			</g>
		</g>
	</g>
	<g opacity="0.8">
		<g>
			<path fill="none" stroke="#4C4A49" stroke-width="0.5669" stroke-miterlimit="10" d="M490.765,1140.048
				c19.217,7.498,119.347,48.559,138.964,97.238"/>
			<g>
				<path fill="#4C4A49" d="M487.572,1138.826c1.285,1.139,2.779,2.811,3.544,4.264l0.065-2.865l1.883-2.162
					C491.52,1138.623,489.289,1138.851,487.572,1138.826z"/>
			</g>
			<g>
				<path fill="#4C4A49" d="M630.902,1240.5c-1.123-1.299-2.777-2.814-4.221-3.596l2.867-0.029l2.184-1.857
					C631.154,1236.554,630.898,1238.783,630.902,1240.5z"/>
			</g>
		</g>
	</g>
	<g opacity="0.8">
		<g>
			<path fill="none" stroke="#AAABAB" stroke-width="0.5669" stroke-miterlimit="10" stroke-dasharray="2.8347,5.6693" d="
				M485.461,1471.287c-8.775,10.025-47.18,44.41-157.509,38.713"/>
			<g>
				<path fill="#AAABAB" d="M487.575,1468.603c-1.476,0.877-3.522,1.793-5.141,2.08l2.711,0.932l1.486,2.451
					C486.568,1472.425,487.029,1470.23,487.575,1468.603z"/>
			</g>
		</g>
	</g>
	<g opacity="0.8">
		<g>
			<path fill="none" stroke="#4C4A49" stroke-width="0.5669" stroke-miterlimit="10" d="M867.523,897.969
				c-2.461,3.01-6.791,8.943-13.406,18.141"/>
			<g>
				<path fill="#4C4A49" d="M870.025,895.633c-1.568,0.701-3.707,1.373-5.348,1.471l2.584,1.24l1.193,2.607
					C868.582,899.315,869.295,897.188,870.025,895.633z"/>
			</g>
			<g>
				<path fill="#4C4A49" d="M852.115,918.895c0.467-1.654,0.82-3.867,0.676-5.504l1.605,2.375l2.752,0.801
					C855.547,916.932,853.547,917.946,852.115,918.895z"/>
			</g>
		</g>
	</g>
	<g opacity="0.8">
		<g>
			<path fill="none" stroke="#AAABAB" stroke-width="0.5669" stroke-miterlimit="10" stroke-dasharray="2.8347,5.6693" d="
				M367.285,1373.216c-13.635-16.443-86.023-106.072-80.571-149.063"/>
			<g>
				<path fill="#AAABAB" d="M369.479,1375.837c-0.548-1.627-1.013-3.822-0.952-5.463l-1.482,2.453l-2.709,0.938
					C365.953,1374.048,368.002,1374.96,369.479,1375.837z"/>
			</g>
		</g>
	</g>
	<g opacity="0.8">
		<g>
			<path fill="none" stroke="#AAABAB" stroke-width="0.5669" stroke-miterlimit="10" stroke-dasharray="2.8347,5.6693" d="
				M435.74,1447.123c-20.548-3.754-128.957-32.453-162.335-223.461"/>
			<g>
				<path fill="#AAABAB" d="M439.119,1447.638c-1.492-0.85-3.299-2.178-4.347-3.443l0.527,2.818l-1.398,2.504
					C435.298,1448.652,437.434,1447.968,439.119,1447.638z"/>
			</g>
		</g>
	</g>
	<g opacity="0.8">
		<g>
			<path fill="none" stroke="#AAABAB" stroke-width="0.5669" stroke-miterlimit="10" stroke-dasharray="2.8347,5.6693" d="
				M491.333,1431.58c-0.125-10.982-3.416-44.254-39.219-37.408"/>
			<g>
				<path fill="#AAABAB" d="M491.263,1435c0.604-1.607,1.634-3.6,2.719-4.834l-2.7,0.963l-2.691-0.988
					C489.664,1431.384,490.674,1433.386,491.263,1435z"/>
			</g>
		</g>
	</g>
	<g opacity="0.8">
		<g>
			<path fill="none" stroke="#AAABAB" stroke-width="0.5669" stroke-miterlimit="10" stroke-dasharray="2.8347,5.6693" d="
				M395.644,1762.615c-10.593,0.787-42.017,1.697-37.851-15.697"/>
			<g>
				<path fill="#AAABAB" d="M399.048,1762.306c-1.649-0.477-3.718-1.346-5.032-2.33l1.172,2.617l-0.772,2.76
					C395.57,1764.185,397.486,1763.021,399.048,1762.306z"/>
			</g>
		</g>
	</g>
	<g opacity="0.8">
		<g>
			<path fill="none" stroke="#AAABAB" stroke-width="0.5669" stroke-miterlimit="10" stroke-dasharray="2.8347,5.6693" d="
				M566.121,1614.613c-14.214-8.578-78.758-42.619-145.424,0.961"/>
			<g>
				<path fill="#AAABAB" d="M569.009,1616.441c-1.044-1.363-2.191-3.289-2.664-4.863l-0.611,2.801l-2.262,1.762
					C565.095,1615.886,567.328,1616.089,569.009,1616.441z"/>
			</g>
		</g>
	</g>
	<g opacity="0.8">
		<g>
			<path fill="none" stroke="#AAABAB" stroke-width="0.5669" stroke-miterlimit="10" stroke-dasharray="2.8347,5.6693" d="
				M748.061,1608.775c-29.561-10.139-254.7-83.338-360.003,1.127"/>
			<g>
				<path fill="#AAABAB" d="M751.287,1609.902c-1.334-1.082-2.9-2.688-3.727-4.107l0.059,2.867l-1.787,2.242
					C747.352,1610.277,749.57,1609.951,751.287,1609.902z"/>
			</g>
		</g>
	</g>
	<g opacity="0.8">
		<g>
			<path fill="none" stroke="#AAABAB" stroke-width="0.5669" stroke-miterlimit="10" stroke-dasharray="2.8347,5.6693" d="
				M748.063,1620.771c-14.818-5.008-76.945-23.848-106.969,1.133"/>
			<g>
				<path fill="#AAABAB" d="M751.287,1621.904c-1.324-1.094-2.875-2.715-3.688-4.143l0.033,2.867l-1.809,2.225
					C747.348,1622.242,749.57,1621.937,751.287,1621.904z"/>
			</g>
		</g>
	</g>
	<g opacity="0.8">
		<g>
			<path fill="none" stroke="#AAABAB" stroke-width="0.5669" stroke-miterlimit="10" stroke-dasharray="2.8347,5.6693" d="
				M783.432,1661.525c-9.014,153.938,4.434,200.408,2.52,193.916"/>
			<g>
				<path fill="#AAABAB" d="M783.635,1658.109c-0.672,1.58-1.785,3.527-2.922,4.715l2.74-0.848l2.646,1.1
					C785.08,1661.789,784.154,1659.746,783.635,1658.109z"/>
			</g>
		</g>
	</g>
	<g opacity="0.8">
		<g>
			<path fill="none" stroke="#AAABAB" stroke-width="0.5669" stroke-miterlimit="10" stroke-dasharray="2.8347,5.6693" d="
				M467.908,1833.279c-9.892-0.217-37.835-3.252-37.835-30.633"/>
			<g>
				<path fill="#AAABAB" d="M471.328,1833.242c-1.607-0.604-3.602-1.629-4.836-2.713l0.966,2.699l-0.985,2.691
					C467.715,1834.845,469.716,1833.833,471.328,1833.242z"/>
			</g>
		</g>
	</g>
	<g opacity="0.8">
		<g>
			<path fill="none" stroke="#AAABAB" stroke-width="0.5669" stroke-miterlimit="10" stroke-dasharray="2.8347,5.6693" d="
				M555.726,1879.101c-11.902,0.432-50.841,1.113-50.841-8.455"/>
			<g>
				<path fill="#AAABAB" d="M559.141,1878.953c-1.63-0.541-3.661-1.492-4.936-2.527l1.067,2.66l-0.883,2.729
					C555.591,1880.691,557.552,1879.605,559.141,1878.953z"/>
			</g>
		</g>
	</g>
	<g opacity="0.8">
		<g>
			<path fill="none" stroke="#AAABAB" stroke-width="0.5669" stroke-miterlimit="10" stroke-dasharray="2.8347,5.6693" d="
				M645.635,1899.777c-10.893,0.631-44.133,1.58-44.133-10.334"/>
			<g>
				<path fill="#AAABAB" d="M649.045,1899.542c-1.641-0.504-3.693-1.408-4.992-2.414l1.129,2.635l-0.82,2.748
					C645.537,1901.363,647.473,1900.23,649.045,1899.542z"/>
			</g>
		</g>
	</g>
	<g opacity="0.8">
		<g>
			<path fill="none" stroke="#AAABAB" stroke-width="0.5669" stroke-miterlimit="10" stroke-dasharray="2.8347,5.6693" d="
				M750.547,1901.701c-11.014,5.598-49.336,23.15-68.484,7.076"/>
			<g>
				<path fill="#AAABAB" d="M753.57,1900.105c-1.705,0.209-3.947,0.225-5.543-0.166l2.105,1.945l0.375,2.844
					C751.109,1903.199,752.414,1901.375,753.57,1900.105z"/>
			</g>
		</g>
	</g>
	<g opacity="0.8">
		<g>
			<path fill="none" stroke="#4C4A49" stroke-width="0.5669" stroke-miterlimit="10" d="M588.649,1811.378
				c-1.147-12.133-3.764-52.75,12.296-55.834"/>
			<g>
				<path fill="#4C4A49" d="M589.009,1814.775c0.453-1.656,1.293-3.734,2.26-5.064l-2.601,1.209l-2.77-0.734
					C587.082,1811.324,588.273,1813.224,589.009,1814.775z"/>
			</g>
			<g>
				<path fill="#4C4A49" d="M604.367,1755.443c-1.58,0.672-3.527,1.783-4.715,2.92l0.85-2.738l-1.102-2.646
					C600.689,1753.998,602.732,1754.923,604.367,1755.443z"/>
			</g>
		</g>
	</g>
	<g opacity="0.8">
		<g>
			<path fill="none" stroke="#4C4A49" stroke-width="0.5669" stroke-miterlimit="10" d="M571.289,1647.183
				c-8.347,16.145-43.488,91.707,29.656,92.285"/>
			<g>
				<path fill="#4C4A49" d="M572.903,1644.169c-1.28,1.145-3.116,2.434-4.649,3.023l2.84,0.398l1.927,2.123
					C572.646,1648.115,572.678,1645.873,572.903,1644.169z"/>
			</g>
			<g>
				<path fill="#4C4A49" d="M604.367,1739.443c-1.617,0.576-3.627,1.57-4.879,2.633l1.01-2.684l-0.941-2.707
					C600.781,1737.781,602.766,1738.826,604.367,1739.443z"/>
			</g>
		</g>
	</g>
	<g opacity="0.8">
		<g>
			<path fill="none" stroke="#4C4A49" stroke-width="0.5669" stroke-miterlimit="10" d="M605.723,1665.242
				c-0.088-3.809-0.334-10.398-1.01-17.666"/>
			<g>
				<path fill="#4C4A49" d="M605.771,1668.662c0.561-1.625,1.531-3.645,2.582-4.908l-2.672,1.039l-2.719-0.912
					C604.072,1665.093,605.137,1667.066,605.771,1668.662z"/>
			</g>
			<g>
				<path fill="#4C4A49" d="M604.367,1644.169c0.736,1.553,1.928,3.453,3.111,4.592l-2.771-0.736l-2.6,1.209
					C603.074,1647.906,603.914,1645.826,604.367,1644.169z"/>
			</g>
		</g>
	</g>
	<g opacity="0.8">
		<g>
			<path fill="none" stroke="#4C4A49" stroke-width="0.5669" stroke-miterlimit="10" d="M567.273,1813.833
				c-11.719-20.318-76.574-140.238-1.271-183.414"/>
			<g>
				<path fill="#4C4A49" d="M569.009,1816.775c-0.288-1.693-0.404-3.932-0.089-5.545l-1.847,2.193l-2.822,0.504
					C565.805,1814.46,567.687,1815.679,569.009,1816.775z"/>
			</g>
			<g>
				<path fill="#4C4A49" d="M569.009,1628.775c-1.117,1.305-2.369,3.166-2.927,4.711l-0.457-2.832l-2.161-1.883
					C565.07,1629.115,567.312,1629.035,569.009,1628.775z"/>
			</g>
		</g>
	</g>
	<g opacity="0.8">
		<g>
			<path fill="none" stroke="#4C4A49" stroke-width="0.5669" stroke-miterlimit="10" d="M670.061,1846.648
				c2.076-10.172,9.014-42.246,20.936-78.977"/>
			<g>
				<path fill="#4C4A49" d="M669.395,1850c0.906-1.459,2.305-3.213,3.609-4.211l-2.836,0.418l-2.447-1.494
					C668.531,1846.142,669.131,1848.302,669.395,1850z"/>
			</g>
			<g>
				<path fill="#4C4A49" d="M692.063,1764.416c0.084,1.715,0.453,3.928,1.111,5.434l-2.277-1.742l-2.865,0.117
					C689.434,1767.369,691.008,1765.771,692.063,1764.416z"/>
			</g>
		</g>
	</g>
	<g opacity="0.8">
		<g>
			<path fill="none" stroke="#4C4A49" stroke-width="0.5669" stroke-miterlimit="10" d="M767.523,1852.025
				c-0.318-15.691-3.697-80.705-37.689-95.289"/>
			<g>
				<path fill="#4C4A49" d="M767.553,1855.441c0.582-1.615,1.582-3.623,2.648-4.871l-2.686,1.002l-2.705-0.949
					C765.902,1851.849,766.939,1853.837,767.553,1855.441z"/>
			</g>
			<g>
				<path fill="#4C4A49" d="M726.619,1755.541c1.717,0.018,3.947-0.221,5.49-0.785l-1.875,2.168l-0.053,2.867
					C729.41,1758.339,727.91,1756.673,726.619,1755.541z"/>
			</g>
		</g>
	</g>
	<g opacity="0.8">
		<g>
			<path fill="none" stroke="#4C4A49" stroke-width="0.5669" stroke-miterlimit="10" d="M749.658,1632.839
				c-12.992,2.727-61.117,14.096-97.818,39.52"/>
			<g>
				<path fill="#4C4A49" d="M753.01,1632.169c-1.699-0.242-3.867-0.816-5.307-1.609l1.523,2.428l-0.383,2.842
					C749.826,1634.513,751.563,1633.093,753.01,1632.169z"/>
			</g>
			<g>
				<path fill="#4C4A49" d="M649.045,1674.337c0.996-1.398,2.076-3.363,2.494-4.953l0.707,2.779l2.322,1.682
					C652.938,1673.648,650.713,1673.927,649.045,1674.337z"/>
			</g>
		</g>
	</g>
	<g opacity="0.8">
		<g>
			<path fill="none" stroke="#4C4A49" stroke-width="0.5669" stroke-miterlimit="10" d="M749.781,1645.291
				c-14.768,5.408-75.184,30.504-76.385,77.955"/>
			<g>
				<path fill="#4C4A49" d="M753.01,1644.169c-1.717-0.033-3.938-0.336-5.463-0.945l1.811,2.223l-0.033,2.867
					C750.139,1646.886,751.688,1645.265,753.01,1644.169z"/>
			</g>
			<g>
				<path fill="#4C4A49" d="M673.414,1726.669c-0.58-1.615-1.578-3.625-2.645-4.873l2.686,1.004l2.707-0.947
					C675.068,1723.08,674.027,1725.066,673.414,1726.669z"/>
			</g>
		</g>
	</g>
	<g opacity="0.8">
		<g>
			<path fill="none" stroke="#4C4A49" stroke-width="0.5669" stroke-miterlimit="10" d="M957.406,1746.056
				c-19.42-8.107-122.021-52.324-129.07-84.545"/>
			<g>
				<path fill="#4C4A49" d="M960.566,1747.359c-1.242-1.186-2.674-2.912-3.385-4.393l-0.17,2.861l-1.963,2.09
					C956.613,1747.417,958.852,1747.271,960.566,1747.359z"/>
			</g>
			<g>
				<path fill="#4C4A49" d="M827.955,1658.109c0.791,1.523,2.051,3.381,3.275,4.475l-2.797-0.633l-2.555,1.301
					C826.797,1661.89,827.563,1659.781,827.955,1658.109z"/>
			</g>
		</g>
	</g>
	<g opacity="0.8">
		<g>
			<path fill="none" stroke="#727171" stroke-width="0.5669" stroke-miterlimit="10" d="M732.57,1746.917
				c0,0,134.25-7.975,224.695,15.912"/>
			<g>
				<path fill="#727171" d="M960.566,1763.72c-1.707,0.195-3.891,0.707-5.35,1.459l1.592-2.385l-0.303-2.852
					C957.449,1761.289,959.146,1762.755,960.566,1763.72z"/>
			</g>
		</g>
	</g>
	<g opacity="0.8">
		<g>
			<path fill="none" stroke="#898989" stroke-width="0.5669" stroke-miterlimit="10" stroke-dasharray="2.8347,5.6693" d="
				M794.453,1468.253c-26.072-2.666-194.748-19.646-247.869-18.205"/>
			<g>
				<path fill="#898989" d="M797.852,1468.603c-1.547-0.746-3.439-1.949-4.57-3.141l0.717,2.775l-1.225,2.592
					C794.107,1469.873,796.191,1469.044,797.852,1468.603z"/>
			</g>
			<g>
				<path fill="#898989" d="M543.163,1450.175c1.599-0.627,3.577-1.682,4.796-2.785l-0.926,2.715l1.023,2.678
					C546.8,1451.724,544.783,1450.742,543.163,1450.175z"/>
			</g>
		</g>
	</g>
	<g opacity="0.8">
		<g>
			<path fill="none" stroke="#4C4A49" stroke-width="0.5669" stroke-miterlimit="10" d="M312.938,1131.158
				c5.481,16.91,31.817,94.736,58.845,116.023"/>
			<g>
				<path fill="#4C4A49" d="M311.9,1127.902c-0.057,1.717-0.392,3.934-1.023,5.449l2.249-1.777l2.865,0.07
					C314.575,1130.812,312.977,1129.24,311.9,1127.902z"/>
			</g>
			<g>
				<path fill="#4C4A49" d="M374.57,1249.171c-1.655-0.459-3.871-0.801-5.507-0.65l2.369-1.615l0.787-2.758
					C372.592,1245.75,373.614,1247.744,374.57,1249.171z"/>
			</g>
		</g>
	</g>
	<g opacity="0.8">
		<g>
			<path fill="none" stroke="#4C4A49" stroke-width="0.5669" stroke-miterlimit="10" d="M447.542,1015.477
				c-0.181,14.096-1.522,68.108-11.495,92.569"/>
			<g>
				<path fill="#4C4A49" d="M447.57,1012.059c-0.625,1.6-1.678,3.58-2.778,4.799l2.712-0.928l2.679,1.02
					C449.125,1015.694,448.14,1013.68,447.57,1012.059z"/>
			</g>
			<g>
				<path fill="#4C4A49" d="M434.645,1111.167c0.102-1.713-0.026-3.953-0.516-5.521l2.075,1.979l2.859,0.193
					C437.577,1108.517,435.84,1109.935,434.645,1111.167z"/>
			</g>
		</g>
	</g>
	<g opacity="0.8">
		<g>
			<path fill="none" stroke="#4C4A49" stroke-width="0.5669" stroke-miterlimit="10" d="M389.924,1078.033
				c2.7,4.316,8.254,13.764,16.157,30.049"/>
			<g>
				<path fill="#4C4A49" d="M388.058,1075.167c0.364,1.68,0.581,3.91,0.339,5.535l1.746-2.273l2.797-0.631
					C391.362,1077.337,389.428,1076.203,388.058,1075.167z"/>
			</g>
			<g>
				<path fill="#4C4A49" d="M407.567,1111.167c-1.254-1.174-3.059-2.504-4.578-3.129l2.848-0.334l1.976-2.078
					C407.4,1107.218,407.382,1109.46,407.567,1111.167z"/>
			</g>
		</g>
	</g>
	<g opacity="0.8">
		<g>
			<path fill="none" stroke="#4C4A49" stroke-width="0.5669" stroke-miterlimit="10" d="M436.142,1162.908
				c1.576,3.4,4.283,9.666,7.573,19.021"/>
			<g>
				<path fill="#4C4A49" d="M434.645,1159.833c0.153,1.711,0.094,3.953-0.349,5.535l2.015-2.041l2.853-0.279
					C437.656,1162.394,435.876,1161.031,434.645,1159.833z"/>
			</g>
			<g>
				<path fill="#4C4A49" d="M444.834,1185.167c-1.109-1.311-2.747-2.844-4.184-3.641h2.867l2.203-1.834
					C445.127,1181.224,444.848,1183.451,444.834,1185.167z"/>
			</g>
		</g>
	</g>
	<g opacity="0.8">
		<g>
			<path fill="none" stroke="#4C4A49" stroke-width="0.5669" stroke-miterlimit="10" d="M363.126,1021.885
				c2.702-8.16,11.907-28.809,36.253-30.59"/>
			<g>
				<path fill="#4C4A49" d="M362.184,1025.172c1.038-1.369,2.592-2.984,3.984-3.857l-2.863,0.152l-2.298-1.715
					C361.682,1021.25,362.079,1023.458,362.184,1025.172z"/>
			</g>
			<g>
				<path fill="#4C4A49" d="M402.796,991.172c-1.582,0.668-3.533,1.773-4.723,2.906l0.855-2.736l-1.093-2.65
					C399.121,989.715,401.161,990.647,402.796,991.172z"/>
			</g>
		</g>
	</g>
	<g opacity="0.8">
		<g>
			<path fill="none" stroke="#4C4A49" stroke-width="0.5669" stroke-miterlimit="10" d="M493.906,1010.333
				c23.367,19.197,193.551,161.255,189.893,223.933"/>
			<g>
				<path fill="#4C4A49" d="M491.26,1008.172c0.861,1.484,1.754,3.543,2.022,5.162l0.963-2.699l2.468-1.459
					C495.071,1009.221,492.882,1008.737,491.26,1008.172z"/>
			</g>
			<g>
				<path fill="#4C4A49" d="M683.414,1237.669c-0.43-1.662-1.242-3.754-2.189-5.096l2.584,1.244l2.779-0.695
					C685.389,1234.244,684.172,1236.128,683.414,1237.669z"/>
			</g>
		</g>
	</g>
	<g opacity="0.8">
		<g>
			<path fill="none" stroke="#AAABAB" stroke-width="0.5669" stroke-miterlimit="10" stroke-dasharray="2.8347,5.6693" d="
				M463.346,1014.647c6.907,8.221,27.297,34.162,24.227,50.524"/>
			<g>
				<path fill="#AAABAB" d="M461.114,1012.059c0.579,1.617,1.084,3.803,1.054,5.445l1.437-2.482l2.691-0.988
					C464.673,1013.782,462.607,1012.909,461.114,1012.059z"/>
			</g>
		</g>
	</g>
	<g opacity="0.8">
		<g>
			<path fill="none" stroke="#4C4A49" stroke-width="0.5669" stroke-miterlimit="10" d="M285.472,1838.304
				c15.124-9.105,84.716-50.846,110.493-63.645"/>
			<g>
				<path fill="#4C4A49" d="M282.545,1840.068c1.689-0.311,3.927-0.457,5.543-0.162l-2.217-1.818l-0.541-2.814
					C284.818,1836.833,283.623,1838.732,282.545,1840.068z"/>
			</g>
			<g>
				<path fill="#4C4A49" d="M399.048,1773.169c-1.162,1.266-2.478,3.08-3.09,4.605l-0.357-2.846l-2.095-1.957
					C395.1,1773.371,397.343,1773.371,399.048,1773.169z"/>
			</g>
		</g>
	</g>
	<g opacity="0.8">
		<g>
			<path fill="none" stroke="#4C4A49" stroke-width="0.5669" stroke-miterlimit="10" d="M304.35,1869.207
				c55.402,17.486,795.705,244.428,505.078-208.217"/>
			<g>
				<path fill="#4C4A49" d="M301.094,1868.169c1.367,1.039,2.983,2.594,3.854,3.986l-0.15-2.863l1.716-2.297
					C305.015,1867.669,302.808,1868.066,301.094,1868.169z"/>
			</g>
			<g>
				<path fill="#4C4A49" d="M807.57,1658.109c1.359,1.049,3.285,2.201,4.855,2.678l-2.803,0.604l-1.766,2.258
					C808.115,1662.025,807.918,1659.791,807.57,1658.109z"/>
			</g>
		</g>
	</g>
	<g opacity="0.8">
		<g>
			<path fill="none" stroke="#4C4A49" stroke-width="0.5669" stroke-miterlimit="10" d="M314.081,1857.287
				c21.481,8.34,147.784,54.436,251.613,28.246"/>
			<g>
				<path fill="#4C4A49" d="M310.904,1856.027c1.283,1.141,2.775,2.814,3.537,4.27l0.069-2.865l1.888-2.158
					C314.853,1855.83,312.621,1856.054,310.904,1856.027z"/>
			</g>
			<g>
				<path fill="#4C4A49" d="M569.009,1884.669c-1.424,0.961-3.125,2.422-4.074,3.764l0.313-2.852l-1.583-2.389
					C565.122,1883.949,567.304,1884.47,569.009,1884.669z"/>
			</g>
		</g>
	</g>
	<g opacity="0.8">
		<g>
			<path fill="none" stroke="#4C4A49" stroke-width="0.5669" stroke-miterlimit="10" d="M268.705,1869.529
				c38.212,16.307,418.033,171.275,713.818,19.99"/>
			<g>
				<path fill="#4C4A49" d="M265.57,1868.169c1.26,1.168,2.715,2.873,3.446,4.346l0.13-2.865l1.932-2.117
					C269.521,1868.056,267.286,1868.234,265.57,1868.169z"/>
			</g>
			<g>
				<path fill="#4C4A49" d="M985.57,1887.949c-1.174,1.254-2.504,3.059-3.129,4.578l-0.334-2.848l-2.078-1.975
					C981.621,1888.117,983.863,1888.134,985.57,1887.949z"/>
			</g>
		</g>
	</g>
	<g opacity="0.8">
		<g>
			<path fill="none" stroke="#4C4A49" stroke-width="0.5669" stroke-miterlimit="10" d="M597.42,1603.501
				c-21.706-11.758-157.816-82.387-289.583-78.813"/>
			<g>
				<path fill="#4C4A49" d="M600.414,1605.15c-1.131-1.293-2.402-3.141-2.977-4.68l-0.426,2.836l-2.143,1.906
					C596.472,1604.853,598.713,1604.908,600.414,1605.15z"/>
			</g>
			<g>
				<path fill="#4C4A49" d="M304.414,1524.798c1.6-0.627,3.578-1.68,4.797-2.781l-0.927,2.713l1.022,2.678
					C308.05,1526.349,306.034,1525.367,304.414,1524.798z"/>
			</g>
		</g>
	</g>
</g>
<g id="Entities">
	<text transform="matrix(1 0 0 1 446.3882 1447.6392)"><tspan x="0" y="0" fill="#232120" font-family="'HelveticaNeue'" font-size="10">Minkler &amp; Wallerstein</tspan><tspan x="0" y="14.4" fill="#7D7D7D" font-family="'HelveticaNeue'" font-size="10">1970 toPresent</tspan></text>
	<g>
		<text transform="matrix(1 0 0 1 810.957 1461.6343)"><tspan x="0" y="0" fill="#232120" font-family="'HelveticaNeue-Italic'" font-size="10">Community-based </tspan><tspan x="0" y="14.4" fill="#232120" font-family="'HelveticaNeue-Italic'" font-size="10">Participatory Research</tspan><tspan x="0" y="28.8" fill="#232120" font-family="'HelveticaNeue-Italic'" font-size="10">(CBPR) Program</tspan><tspan x="0" y="43.2" fill="#B4B5B5" font-family="'HelveticaNeue-Italic'" font-size="10">1995 to Present</tspan></text>
	</g>
	<g>
		<text transform="matrix(1 0 0 1 777.7461 671.4878)"><tspan x="0" y="0" fill="#232120" font-family="'HelveticaNeue-Italic'" font-size="10">Local Agenda 21</tspan><tspan x="0" y="14.4" fill="#B5B6B6" font-family="'HelveticaNeue'" font-size="10">1992 to Present</tspan></text>
	</g>
	<text transform="matrix(1 0 0 1 813.2783 602.73)"><tspan x="0" y="0" font-family="'HelveticaNeue'" font-size="10">David Driskell</tspan><tspan x="0" y="14.4" fill="#B5B6B6" font-family="'HelveticaNeue'" font-size="10">1990s to Present</tspan></text>
	<g>
		<text transform="matrix(1 0 0 1 1060.4268 731.186)"><tspan x="0" y="0" fill="#232120" font-family="'HelveticaNeue-Italic'" font-size="10">A symposium on </tspan><tspan x="0" y="14.4" fill="#232120" font-family="'HelveticaNeue-Italic'" font-size="10">&quot;Children Participation </tspan><tspan x="0" y="28.8" fill="#232120" font-family="'HelveticaNeue-Italic'" font-size="10"> </tspan><tspan x="2.12" y="28.8" fill="#232120" font-family="'HelveticaNeue-Italic'" font-size="10"> </tspan><tspan x="3.44" y="28.8" fill="#232120" font-family="'HelveticaNeue-Italic'" font-size="10">in Community Settings&quot; </tspan><tspan x="0" y="43.2" fill="#7D7D7D" font-family="'HelveticaNeue'" font-size="10">  </tspan><tspan x="4.239" y="43.2" fill="#B5B6B6" font-family="'HelveticaNeue'" font-size="10">2000</tspan></text>
	</g>
	<g>
		<text transform="matrix(1 0 0 1 395.5698 1304.2104)"><tspan x="0" y="0" fill="#232120" font-family="'HelveticaNeue-Italic'" font-size="10">Self-Employed </tspan><tspan x="0" y="14.4" fill="#232120" font-family="'HelveticaNeue-Italic'" font-size="10">Women&apos;s Associations </tspan><tspan x="0" y="28.8" fill="#232120" font-family="'HelveticaNeue-Italic'" font-size="10">(SEWA) in India</tspan><tspan x="0" y="43.2" fill="#7D7D7D" font-family="'HelveticaNeue-Italic'" font-size="10">1972 to Present</tspan></text>
	</g>
	<g>
		<text transform="matrix(1 0 0 1 549.0098 1336.645)"><tspan x="0" y="0" fill="#232120" font-family="'HelveticaNeue-Italic'" font-size="10">Orangi Pilot Project-Research </tspan><tspan x="0" y="14.4" fill="#232120" font-family="'HelveticaNeue-Italic'" font-size="10">and Training Institute (OPP-RTI)</tspan><tspan x="0" y="28.8" fill="#B5B6B6" font-family="'HelveticaNeue-Italic'" font-size="10">1980 to Present</tspan></text>
	</g>
	<g>
		<text transform="matrix(1 0 0 1 339.3936 1628.8667)"><tspan x="0" y="0" fill="#232120" font-family="'HelveticaNeue-Italic'" font-size="10">Design Research </tspan><tspan x="0" y="14.4" fill="#232120" font-family="'HelveticaNeue-Italic'" font-size="10">Society Conference </tspan><tspan x="0" y="28.8" fill="#232120" font-family="'HelveticaNeue-Italic'" font-size="10">Design Participation </tspan><tspan x="0" y="43.2" fill="#B5B6B6" font-family="'HelveticaNeue'" font-size="10">1971</tspan></text>
	</g>
	<g>
		<text transform="matrix(1 0 0 1 339.3926 1710.2065)"><tspan x="0" y="0" fill="#232120" font-family="'HelveticaNeue-Italic'" font-size="10">NJMF Project</tspan><tspan x="0" y="14.4" fill="#232120" font-family="'HelveticaNeue-Italic'" font-size="10">Norway </tspan><tspan x="0" y="28.8" fill="#B4B5B5" font-family="'HelveticaNeue-Italic'" font-size="10">19711973</tspan></text>
	</g>
	<g>
		<text transform="matrix(1 0 0 1 406.8262 1764.4185)"><tspan x="0" y="0" fill="#232120" font-family="'HelveticaNeue-Italic'" font-size="10">DEMOS Project</tspan><tspan x="0" y="14.4" fill="#232120" font-family="'HelveticaNeue-Italic'" font-size="10">Sweden</tspan><tspan x="0" y="28.799" fill="#B4B5B5" font-family="'HelveticaNeue-Italic'" font-size="10">19751979</tspan></text>
	</g>
	<g>
		<text transform="matrix(1 0 0 1 475.3271 1833.9185)"><tspan x="0" y="0" fill="#232120" font-family="'HelveticaNeue-Italic'" font-size="10">DUE Project</tspan><tspan x="0" y="14.4" fill="#232120" font-family="'HelveticaNeue-Italic'" font-size="10">Denmark</tspan><tspan x="0" y="28.799" fill="#B4B5B5" font-family="'HelveticaNeue-Italic'" font-size="10">19771980</tspan></text>
	</g>
	<g>
		<text transform="matrix(1 0 0 1 564.3271 1835.9185)"><tspan x="0" y="0" fill="#232120" font-family="'HelveticaNeue-Italic'" font-size="10">UTOPIA project</tspan><tspan x="0" y="14.4" fill="#232120" font-family="'HelveticaNeue-Italic'" font-size="10">Sweden and </tspan><tspan x="0" y="28.799" fill="#232120" font-family="'HelveticaNeue-Italic'" font-size="10">Denmark</tspan><tspan x="0" y="43.199" fill="#B4B5B5" font-family="'HelveticaNeue-Italic'" font-size="10">19811984</tspan></text>
	</g>
	<g>
		<text transform="matrix(1 0 0 1 655.3271 1873.9185)"><tspan x="0" y="0" fill="#232120" font-family="'HelveticaNeue-Italic'" font-size="10">Florence</tspan><tspan x="0" y="14.4" fill="#232120" font-family="'HelveticaNeue-Italic'" font-size="10">Project </tspan><tspan x="0" y="28.799" fill="#B4B5B5" font-family="'HelveticaNeue-Italic'" font-size="10">1984-1987</tspan></text>
	</g>
	<g>
		<text transform="matrix(1 0 0 1 756.8301 1870.9185)"><tspan x="0" y="0" fill="#232120" font-family="'HelveticaNeue-Italic'" font-size="10">AT Project</tspan><tspan x="0" y="14.4" fill="#232120" font-family="'HelveticaNeue-Italic'" font-size="10">Denmark</tspan><tspan x="0" y="28.799" fill="#B4B5B5" font-family="'HelveticaNeue-Italic'" font-size="10">1990 to Present</tspan></text>
	</g>
	<g>
		<text transform="matrix(1 0 0 1 575.3271 1621.9067)"><tspan x="0" y="0" fill="#232120" font-family="'HelveticaNeue-Italic'" font-size="10">Xerox PARC</tspan><tspan x="0" y="14.4" fill="#B4B5B5" font-family="'HelveticaNeue-Italic'" font-size="10">1980s to Present</tspan></text>
	</g>
	<g>
		<text transform="matrix(1 0 0 1 612.8271 1741.4165)"><tspan x="0" y="0" fill="#232120" font-family="'HelveticaNeue-Italic'" font-size="10">Computer Professionals </tspan><tspan x="0" y="14.4" fill="#232120" font-family="'HelveticaNeue-Italic'" font-size="10">for Social Responsibility</tspan><tspan x="0" y="28.801" fill="#232120" font-family="'HelveticaNeue-Italic'" font-size="10">(CPSR)</tspan><tspan x="0" y="43.201" fill="#B4B5B5" font-family="'HelveticaNeue'" font-size="10">1983  2013</tspan></text>
	</g>
	<g>
		<text transform="matrix(1 0 0 1 757.8301 1620.9067)"><tspan x="0" y="0" fill="#232120" font-family="'HelveticaNeue-Italic'" font-size="10">Participatory </tspan><tspan x="0" y="14.4" fill="#232120" font-family="'HelveticaNeue-Italic'" font-size="10">Design Conference</tspan><tspan x="0" y="28.799" fill="#B4B5B5" font-family="'HelveticaNeue-Italic'" font-size="10">1990 to Present</tspan></text>
	</g>
	<g>
		<text transform="matrix(1 0 0 1 964.833 1754.4175)"><tspan x="0" y="0" fill="#232120" font-family="'HelveticaNeue-Italic'" font-size="10">Public Sphere</tspan><tspan x="0" y="14.4" fill="#232120" font-family="'HelveticaNeue-Italic'" font-size="10">Project</tspan><tspan x="29.31" y="14.4" fill="#232120" font-family="'HelveticaNeue'" font-size="10"> </tspan><tspan x="0" y="28.8" fill="#B4B5B5" font-family="'HelveticaNeue'" font-size="10">2000s to Present</tspan></text>
	</g>
	<g>
		<text transform="matrix(1 0 0 1 575.3271 1681.9067)"><tspan x="0" y="0" fill="#232120" font-family="'HelveticaNeue'" font-size="10">Elizabeth B.-N. </tspan><tspan x="0" y="14.4" fill="#232120" font-family="'HelveticaNeue'" font-size="10">Sanders</tspan><tspan x="0" y="28.8" fill="#B4B5B5" font-family="'HelveticaNeue'" font-size="10">1980s to Present</tspan></text>
	</g>
	<text transform="matrix(1 0 0 1 256.3208 1201.5923)"><tspan x="0" y="0" fill="#232120" font-family="'HelveticaNeue'" font-size="10">Paulo Freire</tspan><tspan x="0" y="14.4" fill="#B5B6B6" font-family="'HelveticaNeue'" font-size="10">1960s to 1990s</tspan></text>
	<g>
		<text transform="matrix(1 0 0 1 410.9712 1199.2056)"><tspan x="0" y="0" fill="#232120" font-family="'HelveticaNeue-Italic'" font-size="10">International Council </tspan><tspan x="0" y="14.4" fill="#232120" font-family="'HelveticaNeue-Italic'" font-size="10">for Adult Education</tspan><tspan x="0" y="28.8" fill="#B5B6B6" font-family="'HelveticaNeue-Italic'" font-size="10">1973 to Present</tspan></text>
	</g>
	<g>
		<text transform="matrix(1 0 0 1 605.6211 1255.1919)"><tspan x="0" y="0" fill="#232120" font-family="'HelveticaNeue-Italic'" font-size="10">Society for Participatory</tspan><tspan x="0" y="14.4" fill="#232120" font-family="'HelveticaNeue-Italic'" font-size="10">Research in Asia </tspan><tspan x="0" y="28.8" fill="#B5B6B6" font-family="'HelveticaNeue-Italic'" font-size="10">1982 to Present</tspan></text>
	</g>
	<g>
		<text transform="matrix(1 0 0 1 378.4819 1381.8813)"><tspan x="0" y="0" fill="#232120" font-family="'HelveticaNeue'" font-size="10">Orlando Fals-Borda</tspan><tspan x="0" y="14.4" fill="#7D7D7D" font-family="'HelveticaNeue'" font-size="10">1970 to 2000s</tspan></text>
	</g>
	<g>
		<text transform="matrix(1 0 0 1 321.498 659.5205)"><tspan x="0" y="0" font-family="'HelveticaNeue'" font-size="10">Kevin Lynch </tspan><tspan x="0" y="14.4" fill="#B5B6B6" font-family="'HelveticaNeue'" font-size="10">1960 to 1980s</tspan></text>
	</g>
	<g>
		<text transform="matrix(1 0 0 1 346.5728 871.6392)"><tspan x="0" y="0" fill="#232120" font-family="'HelveticaNeue-Italic'" font-size="10">Growing up</tspan><tspan x="0" y="14.4" fill="#232120" font-family="'HelveticaNeue-Italic'" font-size="10"> in Cities </tspan><tspan x="0" y="28.8" fill="#B5B6B6" font-family="'HelveticaNeue-Italic'" font-size="10">1977 to 1980s</tspan></text>
	</g>
	<text transform="matrix(1 0 0 1 813.2793 928.8638)"><tspan x="0" y="0" font-family="'HelveticaNeue'" font-size="10">Louise Chawla</tspan><tspan x="0" y="14.4" fill="#B5B6B6" font-family="'HelveticaNeue'" font-size="10">1990s to </tspan><tspan x="0" y="28.8" fill="#B5B6B6" font-family="'HelveticaNeue'" font-size="10">Present</tspan></text>
	<g>
		<text transform="matrix(1 0 0 1 682.0645 805.8198)"><tspan x="0" y="0" fill="#232120" font-family="'HelveticaNeue-Italic'" font-size="10">Convention on </tspan><tspan x="0" y="14.4" fill="#232120" font-family="'HelveticaNeue-Italic'" font-size="10">the Rights of </tspan><tspan x="0" y="28.8" fill="#232120" font-family="'HelveticaNeue-Italic'" font-size="10">the Child</tspan><tspan x="0" y="43.2" fill="#B5B6B6" font-family="'HelveticaNeue'" font-size="10">1989 to Present</tspan></text>
	</g>
	<g>
		<text transform="matrix(1 0 0 1 673.416 719.4893)"><tspan x="0" y="0" fill="#232120" font-family="'HelveticaNeue-Italic'" font-size="10">UNICEF Innocenti</tspan><tspan x="0" y="14.4" fill="#232120" font-family="'HelveticaNeue-Italic'" font-size="10">Research Centre</tspan><tspan x="0" y="28.8" fill="#B5B6B6" font-family="'HelveticaNeue'" font-size="10">1988 to Present</tspan></text>
	</g>
	<g>
		<text transform="matrix(1 0 0 1 439.1187 654.3516)"><tspan x="0" y="0" fill="#232120" font-family="'HelveticaNeue'" font-size="10">Roger Hart</tspan><tspan x="0" y="14.4" fill="#B5B6B6" font-family="'HelveticaNeue'" font-size="10">1970s to </tspan><tspan x="0" y="28.8" fill="#B5B6B6" font-family="'HelveticaNeue'" font-size="10">Present</tspan></text>
	</g>
	<text transform="matrix(1 0 0 1 444.5723 750.7622)"><tspan x="0" y="0" font-family="'HelveticaNeue'" font-size="10">Robin Moore</tspan><tspan x="0" y="14.4" fill="#B5B6B6" font-family="'HelveticaNeue'" font-size="10">1970s to Present</tspan></text>
	<g>
		<text transform="matrix(1 0 0 1 850.9785 877.1069)"><tspan x="0" y="0" fill="#232120" font-family="'HelveticaNeue-Italic'" font-size="10">Growing up in Cities </tspan><tspan x="0" y="14.4" fill="#B5B6B6" font-family="'HelveticaNeue-Italic'" font-size="10">1997 to 2006</tspan></text>
	</g>
	<g>
		<text transform="matrix(1 0 0 1 227.71 1513.9692)"><tspan x="0" y="0" fill="#232120" font-family="'HelveticaNeue'" font-size="10">William Foote Whyte</tspan><tspan x="0" y="14.4" fill="#7D7D7D" font-family="'HelveticaNeue'" font-size="10">1960 to1990s</tspan></text>
	</g>
	<g>
		<text transform="matrix(1 0 0 1 410.9717 993.1719)"><tspan x="0" y="0" fill="#232120" font-family="'HelveticaNeue-Italic'" font-size="10">World Bank</tspan><tspan x="0" y="14.4" fill="#B5B6B6" font-family="'HelveticaNeue-Italic'" font-size="10">1970s to Present</tspan></text>
	</g>
	<g>
		<text transform="matrix(1 0 0 1 465.3262 1077.1704)"><tspan x="0" y="0" fill="#232120" font-family="'HelveticaNeue-Italic'" font-size="10">Grameen Bank</tspan><tspan x="0" y="14.399" fill="#B5B6B6" font-family="'HelveticaNeue-Italic'" font-size="10">1976 to Present</tspan></text>
	</g>
	<g>
		<text transform="matrix(1 0 0 1 352.7954 1125.1704)"><tspan x="0" y="0" fill="#232120" font-family="'HelveticaNeue-Italic'" font-size="10">United Nations Institutions</tspan><tspan x="0" y="14.4" fill="#232120" font-family="'HelveticaNeue-Italic'" font-size="10"> (UNDP and UNRISD)</tspan><tspan x="0" y="28.8" fill="#B5B6B6" font-family="'HelveticaNeue-Italic'" font-size="10">1970s to Present</tspan></text>
	</g>
	<g>
		<text transform="matrix(1 0 0 1 382.7974 1260.5981)"><tspan x="0" y="0" fill="#232120" font-family="'HelveticaNeue'" font-size="10">Robert Chambers</tspan><tspan x="0" y="14.4" fill="#B5B6B6" font-family="'HelveticaNeue'" font-size="10">1970s to Present</tspan></text>
	</g>
	<g>
		<text transform="matrix(1 0 0 1 260.6982 1075.4478)"><tspan x="0" y="0" fill="#232120" font-family="'HelveticaNeue-Italic'" font-size="10">Institute of </tspan><tspan x="0" y="14.4" fill="#232120" font-family="'HelveticaNeue-Italic'" font-size="10">Development </tspan><tspan x="0" y="28.8" fill="#232120" font-family="'HelveticaNeue-Italic'" font-size="10">Studies </tspan><tspan x="0" y="43.2" fill="#B5B6B6" font-family="'HelveticaNeue-Italic'" font-size="10">1966 to Present</tspan></text>
	</g>
	<g>
		<text transform="matrix(1 0 0 1 345.3506 1038.1699)"><tspan x="0" y="0" fill="#232120" font-family="'HelveticaNeue-Italic'" font-size="10">Donor Organizations </tspan><tspan x="0" y="14.4" fill="#232120" font-family="'HelveticaNeue-Italic'" font-size="10">(USAID, SIDA, DFID)</tspan><tspan x="0" y="28.8" fill="#B5B6B6" font-family="'HelveticaNeue-Italic'" font-size="10">1970s to Present</tspan></text>
	</g>
	<g>
		<text transform="matrix(1 0 0 1 975.417 1868.1724)"><tspan x="0" y="0" fill="#232120" font-family="'HelveticaNeue-Italic'" font-size="10">Atelier Project</tspan><tspan x="0" y="14.4" fill="#B4B5B5" font-family="'HelveticaNeue-Italic'" font-size="10">2001 to 2004</tspan></text>
	</g>
	<g>
		<text transform="matrix(1 0 0 1 230.2627 1843.2954)"><tspan x="0" y="0" fill="#232120" font-family="'HelveticaNeue'" font-size="10">Pelle Ehn</tspan><tspan x="0" y="14.4" fill="#B4B5B5" font-family="'HelveticaNeue'" font-size="10">1960s to Present</tspan></text>
	</g>
</g>
<g id="Years">
	<g>
		<text transform="matrix(1 0 0 1 132.3384 80.5073)" fill="#232120" font-family="'HelveticaNeue'" font-size="18">1960s</text>
	</g>
	<g>
		<text transform="matrix(1 0 0 1 340.8657 80.5073)" fill="#232120" font-family="'HelveticaNeue'" font-size="18">1970s</text>
	</g>
	<g>
		<text transform="matrix(1 0 0 1 549.3926 80.5073)" fill="#232120" font-family="'HelveticaNeue'" font-size="18">1980s</text>
	</g>
	<g>
		<text transform="matrix(1 0 0 1 757.9199 80.5073)" fill="#232120" font-family="'HelveticaNeue'" font-size="18">1990s</text>
	</g>
	<g>
		<text transform="matrix(1 0 0 1 966.4463 80.5073)" fill="#232120" font-family="'HelveticaNeue'" font-size="18">2000s</text>
	</g>
</g>
</svg>
